<svg xmlns="http://www.w3.org/2000/svg" xmlns:xlink="http://www.w3.org/1999/xlink" viewBox="0 0 64.97 89.23"><defs><symbol id="Nouveau_symbole" data-name="Nouveau symbole" viewBox="0 0 64.97 89.23"><path d="M61.06,36.7l-.32-4.2-.33-4.32H53.22a.75.75,0,0,0-.75.79l.15,2.74a.75.75,0,0,1-.75.79H45.3a.76.76,0,0,1-.75-.72l-.07-2.87a.74.74,0,0,0-.75-.72H37.22a.75.75,0,0,0-.75.75l0,2.81a.75.75,0,0,1-.75.76H29.19a.75.75,0,0,1-.75-.76l0-2.81a.74.74,0,0,0-.75-.75H21.22a.76.76,0,0,0-.75.72l-.09,2.87a.74.74,0,0,1-.75.72H13.06a.75.75,0,0,1-.75-.79L12.48,29a.75.75,0,0,0-.75-.79H5.24a.74.74,0,0,0-.74.69L4.22,32.5,3.9,36.7,0,87.75a1.37,1.37,0,0,0,1.37,1.48h19a1.38,1.38,0,0,0,1.38-1.34l.44-17.53a9.26,9.26,0,0,1,.9-3.79,9.74,9.74,0,0,1,2.25-3,10.23,10.23,0,0,1,3.24-2,10.84,10.84,0,0,1,3.92-.74,10.59,10.59,0,0,1,7.16,2.76,9.9,9.9,0,0,1,2.25,3,9.3,9.3,0,0,1,.9,3.79l.44,17.53a1.37,1.37,0,0,0,1.38,1.34h19A1.37,1.37,0,0,0,65,87.75Z"/><path d="M31.69,31.4h1.59a.35.35,0,0,0,.35-.35V.71A.71.71,0,0,0,32.92,0H32a.71.71,0,0,0-.71.71V31A.36.36,0,0,0,31.69,31.4Z"/><path d="M40.58,10.6a9.86,9.86,0,0,0,6-2.48,20.22,20.22,0,0,0,2.79-2.91.6.6,0,0,0-.66-1A10.05,10.05,0,0,1,41.48,4c-1.1-.49-2.11-1.19-3.25-1.6a3.78,3.78,0,0,0-3.47.24v7.77C36.28,10.16,39.05,10.61,40.58,10.6Z"/></symbol></defs><title>Fichier 1</title><g id="Calque_2" data-name="Calque 2"><g id="Calque_1-2" data-name="Calque 1"><use width="64.97" height="89.23" xlink:href="#Nouveau_symbole"/></g></g></svg>