<?xml version="1.0" encoding="UTF-8" standalone="no"?>
<!-- Generator: Adobe Illustrator 18.0.0, SVG Export Plug-In . SVG Version: 6.00 Build 0)  -->

<svg
   xmlns:dc="http://purl.org/dc/elements/1.1/"
   xmlns:cc="http://creativecommons.org/ns#"
   xmlns:rdf="http://www.w3.org/1999/02/22-rdf-syntax-ns#"
   xmlns:svg="http://www.w3.org/2000/svg"
   xmlns="http://www.w3.org/2000/svg"
   xmlns:sodipodi="http://sodipodi.sourceforge.net/DTD/sodipodi-0.dtd"
   xmlns:inkscape="http://www.inkscape.org/namespaces/inkscape"
   version="1.1"
   id="Capa_1"
   x="0px"
   y="0px"
   viewBox="0 0 297 297"
   style="enable-background:new 0 0 297 297;"
   xml:space="preserve"
   sodipodi:docname="arbre.svg"
   inkscape:version="0.92.4 (5da689c313, 2019-01-14)"><metadata
   id="metadata899"><rdf:RDF><cc:Work
       rdf:about=""><dc:format>image/svg+xml</dc:format><dc:type
         rdf:resource="http://purl.org/dc/dcmitype/StillImage" /></cc:Work></rdf:RDF></metadata><defs
   id="defs897" /><sodipodi:namedview
   pagecolor="#ffffff"
   bordercolor="#666666"
   borderopacity="1"
   objecttolerance="10"
   gridtolerance="10"
   guidetolerance="10"
   inkscape:pageopacity="0"
   inkscape:pageshadow="2"
   inkscape:window-width="1920"
   inkscape:window-height="1017"
   id="namedview895"
   showgrid="false"
   inkscape:zoom="1.4276094"
   inkscape:cx="-30.870412"
   inkscape:cy="184.16012"
   inkscape:window-x="-8"
   inkscape:window-y="-8"
   inkscape:window-maximized="1"
   inkscape:current-layer="Capa_1" />
<ellipse
   style="opacity:1;fill:#70a26f;fill-opacity:1;stroke:none;stroke-width:38.46617508;stroke-linecap:square;stroke-linejoin:round;stroke-miterlimit:4;stroke-dasharray:none;stroke-dashoffset:0;stroke-opacity:0.97894736;paint-order:normal"
   id="path901"
   cx="148.5"
   cy="148.5"
   rx="148.5"
   ry="149.20047" /><g
   id="g862"
   transform="matrix(0.95278233,0,0,0.94339584,4.5601736,10.507076)">
	<path
   d="m 144.865,162.638 v 11.946 c 0,4.11 -2.164,8.014 -5.817,9.897 -4.225,2.178 -9.266,1.358 -12.574,-1.948 l -7.817,-7.819 -7.352,7.352 18.259,18.258 c 2.034,2.035 3.155,4.74 3.155,7.618 v 79.593 c 0,5.226 4.237,9.463 9.463,9.463 h 15.763 c 5.226,0 9.463,-4.237 9.463,-9.463 V 219.91 c 0,-2.878 1.12,-5.583 3.155,-7.618 l 15.133,-15.133 -7.352,-7.352 -4.691,4.692 c -3.307,3.303 -8.339,4.122 -12.565,1.953 -3.657,-1.877 -5.826,-5.779 -5.826,-9.889 v -23.925 z"
   id="path858"
   inkscape:connector-curvature="0" />
	<path
   d="m 289.432,122.216 c 0,-34.74 -26.947,-63.303 -61.037,-65.881 C 216.498,22.81 184.664,0 148.5,0 112.336,0 80.502,22.81 68.605,56.336 34.515,58.914 7.568,87.477 7.568,122.217 c 0,17.725 7.026,34.476 19.469,46.838 -0.501,3.078 -0.753,6.191 -0.753,9.307 0,32.009 26.041,58.05 58.049,58.05 h 34.491 V 209.236 L 99.272,189.685 c -2.034,-2.033 -3.156,-4.739 -3.156,-7.618 0,-2.879 1.121,-5.585 3.158,-7.619 l 11.765,-11.766 c 4.201,-4.199 11.035,-4.199 15.236,0 l 4.695,4.696 v -7.861 c 0,-5.94 4.833,-10.773 10.773,-10.773 h 16.641 c 5.94,0 10.773,4.832 10.773,10.773 v 19.828 l 1.569,-1.57 c 2.034,-2.034 4.74,-3.155 7.617,-3.155 2.878,-0.001 5.584,1.12 7.619,3.155 l 11.766,11.766 c 0,0 0,0 0.001,0 4.2,4.201 4.2,11.036 0,15.236 l -16.426,16.426 v 15.209 h 31.365 c 32.008,0 58.049,-26.041 58.049,-58.05 0,-3.116 -0.252,-6.229 -0.753,-9.307 12.442,-12.363 19.468,-29.114 19.468,-46.839 z"
   id="path860"
   inkscape:connector-curvature="0" />
</g>
<g
   id="g864">
</g>
<g
   id="g866">
</g>
<g
   id="g868">
</g>
<g
   id="g870">
</g>
<g
   id="g872">
</g>
<g
   id="g874">
</g>
<g
   id="g876">
</g>
<g
   id="g878">
</g>
<g
   id="g880">
</g>
<g
   id="g882">
</g>
<g
   id="g884">
</g>
<g
   id="g886">
</g>
<g
   id="g888">
</g>
<g
   id="g890">
</g>
<g
   id="g892">
</g>
</svg>