<?xml version="1.0" encoding="UTF-8" standalone="no"?>
<!-- Created with Inkscape (http://www.inkscape.org/) -->

<svg
   xmlns:dc="http://purl.org/dc/elements/1.1/"
   xmlns:cc="http://creativecommons.org/ns#"
   xmlns:rdf="http://www.w3.org/1999/02/22-rdf-syntax-ns#"
   xmlns:svg="http://www.w3.org/2000/svg"
   xmlns="http://www.w3.org/2000/svg"
   xmlns:sodipodi="http://sodipodi.sourceforge.net/DTD/sodipodi-0.dtd"
   xmlns:inkscape="http://www.inkscape.org/namespaces/inkscape"
   width="210mm"
   height="297mm"
   viewBox="0 0 210 297"
   version="1.1"
   id="svg8"
   inkscape:version="0.92.4 (5da689c313, 2019-01-14)"
   sodipodi:docname="BlowfishStj.svg">
  <defs
     id="defs2" />
  <sodipodi:namedview
     id="base"
     pagecolor="#ffffff"
     bordercolor="#666666"
     borderopacity="1.0"
     inkscape:pageopacity="0.0"
     inkscape:pageshadow="2"
     inkscape:zoom="0.24748737"
     inkscape:cx="547.09465"
     inkscape:cy="702.20236"
     inkscape:document-units="mm"
     inkscape:current-layer="layer1"
     showgrid="false"
     showguides="false"
     inkscape:snap-others="false"
     inkscape:snap-nodes="false"
     inkscape:window-width="958"
     inkscape:window-height="1008"
     inkscape:window-x="953"
     inkscape:window-y="0"
     inkscape:window-maximized="0" />
  <metadata
     id="metadata5">
    <rdf:RDF>
      <cc:Work
         rdf:about="">
        <dc:format>image/svg+xml</dc:format>
        <dc:type
           rdf:resource="http://purl.org/dc/dcmitype/StillImage" />
        <dc:title></dc:title>
      </cc:Work>
    </rdf:RDF>
  </metadata>
  <g
     inkscape:label="Calque 1"
     inkscape:groupmode="layer"
     id="layer1">
    <path
       style="fill:#ea0911;fill-opacity:1;stroke-width:0.35277778"
       d="m 60.816479,174.13254 c -1.776401,-1.06715 -4.643261,-3.01115 -6.370799,-4.31999 l -3.140978,-2.37972 -6.217197,2.48349 c -3.419457,1.36592 -6.283642,2.41704 -6.364855,2.33583 -0.08121,-0.0812 0.633991,-3.26212 1.589334,-7.06868 l 1.736993,-6.92102 -2.61645,-3.22251 c -1.439048,-1.77237 -3.899232,-5.14691 -5.467072,-7.49898 -1.567839,-2.35206 -2.907781,-4.33859 -2.977649,-4.41451 -0.06987,-0.0759 -0.805755,0.41723 -1.635297,1.09587 -4.42909,3.62343 -9.448423,4.20642 -14.863986,1.72645 -2.34062,-1.07184 -5.6157097,-3.39801 -6.4389197,-4.57331 -0.50815,-0.72549 -0.50359,-0.72638 0.82238,-0.15979 1.8438397,0.78788 5.2309197,0.72089 7.1816897,-0.14203 0.86167,-0.38116 2.04143,-1.27799 2.62168,-1.99296 2.659406,-3.27685 3.59281,-4.23959 5.091766,-5.25183 0.884224,-0.59711 1.647088,-1.11256 1.695256,-1.14546 0.04817,-0.0329 -0.52373,-1.4756 -1.270885,-3.20602 -2.645597,-6.12724 -2.425571,-4.19687 -2.62109,-7.51296 l -0.668174,-4.14268 10.13405,1.50222 c 7.10637,-0.16161 16.052221,-0.76411 10.8184,-5.88882 0.292558,-1.52381 -3.009835,-3.26237 -10.413479,-3.26237 -3.8568,0 -9.415876,1.75183 -9.413537,1.60631 0.01288,-0.80282 2.091076,-3.67483 4.655185,-6.43339 2.869957,-3.08759 2.932515,-3.13063 3.628351,-2.49649 4.65902,4.24594 12.134529,1.02223 12.165577,-5.246244 0.01598,-3.22572 -2.643911,-6.46471 -5.711744,-6.95527 l -1.365077,-0.21829 0.21571,-1.62828 c 0.599334,-4.52406 3.094475,-12.68045 5.054268,-16.52196 l 0.703947,-1.37985 -4.736345,-7.66013 c -2.604989,-4.21308 -4.736345,-7.71989 -4.736345,-7.79291 0,-0.073 3.354779,1.37316 7.455062,3.21376 l 7.455062,3.34653 3.329732,-3.55235 c 2.762038,-2.9467 8.587013,-7.83885 10.824425,-9.09097 0.494669,-0.27683 0.42381,-1.25431 -0.673795,-9.29513 -0.674627,-4.94217 -1.226598,-9.13609 -1.226598,-9.31983 0,-0.18373 2.377197,2.87122 5.282657,6.78879 l 5.282657,7.12285 1.861093,-0.75464 c 1.023602,-0.41506 3.448593,-1.26557 5.388871,-1.89002 l 3.527778,-1.13538 0.176388,-6.17869 0.176389,-6.17869 3.704167,5.1016 c 2.694406,7.221654 10.407843,4.047076 18.175855,3.93965 1.74196,-0.0241 4.26117,-0.14316 5.59826,-0.26458 l 2.43107,-0.22076 1.75143,-5.82084 c 0.96329,-3.20146 1.86694,-5.94521 2.00811,-6.09722 0.14117,-0.15201 0.71011,2.42737 1.26432,5.73196 0.5542,3.30459 1.11097,6.17554 1.23727,6.3799 0.1263,0.20435 1.88211,0.59011 3.9018,0.85723 2.01969,0.26713 4.38654,0.65198 5.25966,0.85523 0.87313,0.20325 1.68696,0.37342 1.80852,0.37817 0.12156,0.005 2.10593,-2.84633 4.40972,-6.33573 l 4.1887,-6.34434 0.0951,7.5744 0.0951,7.5744 3.65477,1.72395 c 4.15974,1.96215 7.79889,4.22211 11.19818,6.95422 l 2.34306,1.88319 6.86614,-4.87076 c 3.77638,-2.67892 7.04324,-4.98022 7.25968,-5.11399 0.21645,-0.13376 -0.95833,2.34294 -2.61062,5.50378 -1.65229,3.16085 -3.57036,6.86351 -4.26239,8.22814 l -1.25822,2.48114 1.98472,2.76629 c 1.94798,2.71508 5.37447,8.52906 6.2565,10.61588 0.24602,0.58208 0.47835,1.10827 0.51627,1.16931 0.0379,0.061 4.00276,-1.1675 8.81075,-2.73009 4.80798,-1.56259 8.78772,-2.79514 8.84386,-2.73901 0.0561,0.0561 -2.99886,3.70107 -6.78888,8.09986 l -6.89094,7.99779 0.87129,3.45513 c 0.4792,1.90032 0.98428,4.20869 1.1224,5.12971 0.13812,0.92102 0.36156,1.74284 0.49655,1.82626 0.13499,0.0834 2.12181,0.47266 4.41516,0.86497 2.29336,0.3923 4.22495,0.76848 4.29244,0.83597 0.0675,0.0675 -1.63089,1.70036 -3.77415,3.62862 -3.62039,3.257204 -3.883,3.581004 -3.70162,4.564254 0.10737,0.58209 0.30075,4.90802 0.42972,9.6132 0.12898,4.70517 0.28915,8.55486 0.35595,8.55486 0.0668,0 4.29448,-2.61938 9.39485,-5.82084 5.10038,-3.20146 9.60614,-5.82083 10.0128,-5.82083 1.63028,0 1.68076,0.79141 0.30867,4.83895 -3.15797,9.31574 -4.4854,16.93446 -4.98486,28.61016 -0.38356,8.96646 -0.52686,8.93425 -9.13993,-2.05397 -3.65101,-4.65781 -6.71285,-8.39409 -6.8041,-8.30284 -0.0912,0.0913 -0.98416,2.12261 -1.98426,4.51415 -1.0001,2.39154 -2.90692,6.24688 -4.23738,8.56743 l -2.41903,4.21917 2.85034,9.87055 c 1.56768,5.42881 2.79269,9.92819 2.72224,9.99864 -0.0704,0.0704 -2.91566,-2.34277 -6.3227,-5.36269 l -6.19463,-5.49078 -2.91554,2.92807 c -1.60354,1.61043 -4.22522,4.00145 -5.82595,5.31338 -16.66173,22.52902 -63.588014,20.55394 -90.764651,5.84976 z M 137.3966,144.87502 c 4.23003,-1.59825 8.80458,-5.01022 8.80458,-6.56699 0,-1.18199 -0.96926,-1.56994 -3.92237,-1.56994 -4.73751,0 -8.20979,-2.69931 -10.99997,-8.55125 -2.32859,-4.88383 -5.25209,-7.14799 -9.7823,-7.57607 -2.2402,-0.21168 -3.04501,0.33431 -2.67368,1.81383 0.17986,0.7166 0.50457,0.90653 1.89148,1.10635 4.13611,0.59591 5.83659,1.94581 8.01364,6.36153 2.5876,5.24843 5.46154,7.89928 10.76218,9.92683 0.82489,0.31552 0.74603,0.39456 -1.41111,1.41424 -6.52926,3.08638 -11.55855,2.13545 -17.2582,-3.26318 -3.71691,-3.52061 -6.1957,-5.40206 -8.66272,-6.57519 -3.2936,-1.56619 -6.17362,-1.22153 -6.17362,0.73881 0,0.99483 0.88923,1.49574 2.76629,1.55827 2.16442,0.0721 5.08413,1.95004 9.86108,6.34261 1.80332,1.6582 3.80512,3.34022 4.44844,3.73781 3.94912,2.44069 9.63665,2.87802 14.33628,1.10234 z m 21.31026,-43.75851 c 3.21133,-3.487564 5.83877,-6.563754 5.83877,-6.835974 0,-1.38012 -0.81435,-1.40536 -8.50846,-0.26369 -4.09989,0.60835 -7.59333,1.192 -7.76323,1.29699 -0.52637,0.32532 -0.33957,1.92351 0.25134,2.15026 0.50385,0.19334 8.18502,-0.70122 10.37591,-1.2084 0.70281,-0.16269 0.27288,0.46017 -2.11667,3.06656 -5.75356,6.275684 -6.06216,6.669364 -5.82178,7.426724 0.14227,0.44829 0.53353,0.70856 1.06511,0.70856 0.6374,0 2.24969,-1.5307 6.67901,-6.34103 z m -99.549978,5.00368 c 5.610585,-2.48183 7.228145,-9.805664 3.204034,-14.506934 -5.315737,-6.21024 -15.51444,-2.90252 -16.255697,5.27217 -0.638781,7.044584 6.532369,12.118564 13.051663,9.234764 z m -5.588635,-4.2961 c -0.403881,-0.16339 -1.157943,-0.80051 -1.675694,-1.41582 -1.160233,-1.378864 -1.265199,-3.527804 -0.253369,-5.187244 0.868899,-1.42502 1.931116,-1.99219 3.731073,-1.99219 2.504687,0 4.406382,1.91313 4.395174,4.4216 -0.01394,3.119964 -3.311726,5.340944 -6.197184,4.173654 z M 145.22059,79.854306 c 1.692,-4.21921 2.98941,-7.89787 2.88314,-8.17481 -0.35279,-0.91935 -1.27234,-0.93406 -2.74229,-0.0439 -0.79932,0.48408 -3.59644,2.35287 -6.21582,4.15286 -3.96931,2.72764 -4.7625,3.4194 -4.7625,4.15351 0,1.6611 1.43136,1.29576 5.45134,-1.39143 2.0281,-1.35569 3.74677,-2.40558 3.81927,-2.33308 0.0725,0.0725 -0.75728,2.39018 -1.84396,5.15041 -2.12454,5.39644 -2.2267,6.45391 -0.60539,6.26638 0.8739,-0.10107 1.15573,-0.647 4.01621,-7.77999 z m -71.056626,-2.10065 c 0.29766,-0.29766 0.423333,-2.29408 0.423333,-6.72499 v -6.30164 l 3.916313,4.43192 c 2.15397,2.43756 4.106595,4.43193 4.339167,4.43193 0.613371,0 1.26952,-0.75121 1.26952,-1.45345 0,-0.61762 -10.056135,-12.30489 -10.587552,-12.30489 -1.389983,0 -1.406892,0.10998 -1.406892,9.15117 0,4.7976 0.105833,8.82874 0.235186,8.95809 0.374414,0.37442 1.349693,0.27309 1.810925,-0.18814 z m 54.024026,-4.666 c 0.32529,-0.39195 0.17939,-2.15358 -0.65983,-7.96709 -0.59261,-4.10514 -1.16735,-7.60931 -1.27721,-7.78706 -0.10985,-0.17776 -0.57488,-0.32319 -1.03339,-0.32319 -0.71019,0 -1.36017,0.91999 -4.3889,6.21215 -1.95539,3.41668 -3.55525,6.40118 -3.55525,6.63222 0,0.23104 0.1905,0.61058 0.42333,0.84341 1.0126,1.0126 1.65181,0.41182 4.05055,-3.80698 1.32291,-2.32668 2.49698,-4.23168 2.60905,-4.23334 0.11207,-0.002 0.49906,2.23795 0.85998,4.9769 0.6361,4.8273 1.03284,5.9562 2.09326,5.9562 0.25342,0 0.64871,-0.22645 0.87841,-0.50322 z m -29.441047,-8.93313 c 0.77921,-2.76464 1.500207,-5.02683 1.602227,-5.02708 0.10202,-2.5e-4 0.94667,2.30141 1.87701,5.11482 1.52711,4.6181 1.77061,5.11527 2.50534,5.11527 1.77575,0 1.71606,-0.5708 -0.86845,-8.30458 -1.35383,-4.05111 -2.68182,-7.58598 -2.9511,-7.85526 -1.165997,-1.166 -1.757277,-0.0317 -3.857547,7.40025 -1.11476,3.94465 -2.02215,7.42345 -2.01642,7.73066 0.0152,0.81354 0.39816,1.07482 1.40268,0.95694 0.82614,-0.0969 0.99045,-0.46251 2.30626,-5.13102 z M 33.841465,100.32867 c -1.786597,-1.024614 -2.122766,-3.145614 -0.751272,-4.740074 2.188848,-2.54468 6.313268,0.10036 5.012153,3.21437 -0.760091,1.819154 -2.600261,2.478074 -4.260881,1.525704 z"
       id="path4546"
       inkscape:connector-curvature="0"
       sodipodi:nodetypes="cccscscccccccccsccsscccscccsccssccsccscssscccccccccccscccccsccccscsccccsccscsccsccscccsssssscscccsscsccssssccsscsssscccsssscccccsssssscccssccccsscssccccsccsssscccccscsssccscsscsccsccsccsc" />
    <g
       id="g4658"
       transform="translate(53.453905,204.19392)">
      <g
         transform="translate(43.297663,-13.898018)"
         id="g4649">
        <path
           style="opacity:1;fill:#ffffff;fill-opacity:1;fill-rule:nonzero;stroke:none;stroke-width:0;stroke-miterlimit:4;stroke-dasharray:none;stroke-opacity:1"
           id="path4595"
           sodipodi:type="arc"
           sodipodi:cx="9.0871639"
           sodipodi:cy="-64.081131"
           sodipodi:rx="44.366741"
           sodipodi:ry="37.685001"
           sodipodi:start="0"
           sodipodi:end="6.2597804"
           d="M 53.453905,-64.081131 A 44.366741,37.685001 0 0 1 9.3467623,-26.396775 44.366741,37.685001 0 0 1 -35.276539,-63.640134 44.366741,37.685001 0 0 1 8.3084043,-101.76033 44.366741,37.685001 0 0 1 53.441754,-64.963064 l -44.3545901,0.881933 z" />
        <path
           style="opacity:1;fill:#ea0911;fill-opacity:1;fill-rule:nonzero;stroke:none;stroke-width:0;stroke-miterlimit:4;stroke-dasharray:none;stroke-opacity:1"
           id="path4611"
           sodipodi:type="arc"
           sodipodi:cx="17.37252"
           sodipodi:cy="-63.546593"
           sodipodi:rx="37.952271"
           sodipodi:ry="32.606884"
           sodipodi:start="6.11888"
           sodipodi:end="6.1044636"
           d="m 54.813658,-68.880004 a 37.952271,32.606884 0 0 1 -31.098496,37.481722 37.952271,32.606884 0 0 1 -43.73806,-26.583168 37.952271,32.606884 0 0 1 30.783224,-37.673339 37.952271,32.606884 0 0 1 43.959951,26.311612 l -37.347757,5.796584 z" />
        <path
           sodipodi:type="star"
           style="opacity:1;fill:#fef9ff;fill-opacity:1;fill-rule:nonzero;stroke:none;stroke-width:0;stroke-miterlimit:4;stroke-dasharray:none;stroke-opacity:1"
           id="path4619"
           sodipodi:sides="5"
           sodipodi:cx="-20.847027"
           sodipodi:cy="42.55941"
           sodipodi:r1="19.161566"
           sodipodi:r2="9.8144588"
           sodipodi:arg1="1.1695675"
           sodipodi:arg2="1.7978861"
           inkscape:flatsided="false"
           inkscape:rounded="0"
           inkscape:randomized="0"
           d="m -13.36348,60.199198 -9.693203,-8.077308 -12.254236,3.005791 4.686612,-11.71481 -6.645444,-10.725631 12.589689,0.837158 8.147126,-9.634595 3.094243,12.232202 11.6806449,4.771123 -10.6773409,6.722759 z"
           inkscape:transform-center-x="-22.227135"
           inkscape:transform-center-y="5.7886827"
           transform="matrix(0.52698059,-0.66596633,0.67115506,0.52218351,45.152144,-101.50989)" />
      </g>
      <rect
         inkscape:transform-center-y="6.1206585"
         inkscape:transform-center-x="55.127516"
         transform="matrix(0.98755012,-0.15730466,0.19263289,0.98127089,0,0)"
         y="-67.423164"
         x="48.62944"
         height="1.1530361"
         width="63.597717"
         id="rect4651"
         style="opacity:1;fill:#ea0911;fill-opacity:1;fill-rule:nonzero;stroke:none;stroke-width:0;stroke-miterlimit:4;stroke-dasharray:none;stroke-opacity:1" />
    </g>
    <path
       sodipodi:type="star"
       style="opacity:1;fill:#ea0911;fill-opacity:1;fill-rule:nonzero;stroke:none;stroke-width:0;stroke-miterlimit:4;stroke-dasharray:none;stroke-opacity:1"
       id="path4674"
       sodipodi:sides="3"
       sodipodi:cx="101.56242"
       sodipodi:cy="191.6958"
       sodipodi:r1="40.17942"
       sodipodi:r2="18.884327"
       sodipodi:arg1="1.6373645"
       sodipodi:arg2="2.684562"
       inkscape:flatsided="false"
       inkscape:rounded="0"
       inkscape:randomized="0"
       d="m 98.889728,231.78623 -14.273472,-31.75705 -16.436815,-30.69322 34.639149,3.51734 34.79951,1.11191 -20.36567,28.23971 z"
       inkscape:transform-center-x="0.23381121"
       inkscape:transform-center-y="14.899771"
       transform="matrix(0.99877606,-0.04946089,0.07824918,1.5801053,-17.01389,-91.027874)" />
  </g>
</svg>
