<?xml version="1.0" encoding="UTF-8" standalone="no"?>
<svg
   xmlns:dc="http://purl.org/dc/elements/1.1/"
   xmlns:cc="http://creativecommons.org/ns#"
   xmlns:rdf="http://www.w3.org/1999/02/22-rdf-syntax-ns#"
   xmlns:svg="http://www.w3.org/2000/svg"
   xmlns="http://www.w3.org/2000/svg"
   id="svg8"
   version="1.1"
   viewBox="0 0 32.419716 31.366623"
   height="31.366623mm"
   width="32.419716mm">
  <defs
     id="defs2">
    <filter
       height="1.0264101"
       y="-0.013205065"
       width="1.021993"
       x="-0.010996485"
       id="filter890"
       style="color-interpolation-filters:sRGB">
      <feGaussianBlur
         id="feGaussianBlur892"
         stdDeviation="0.13816845" />
    </filter>
  </defs>
  <metadata
     id="metadata5">
    <rdf:RDF>
      <cc:Work
         rdf:about="">
        <dc:format>image/svg+xml</dc:format>
        <dc:type
           rdf:resource="http://purl.org/dc/dcmitype/StillImage" />
        <dc:title></dc:title>
      </cc:Work>
    </rdf:RDF>
  </metadata>
  <g
     transform="translate(-56.476781,-153.1991)"
     id="layer1">
    <g
       transform="matrix(1.0637707,0,0,0.98033385,-68.966007,-145.46272)"
       style="mix-blend-mode:soft-light;fill-rule:evenodd;stroke:none;stroke-width:0.0979539;stroke-linejoin:round;stroke-miterlimit:4;stroke-dasharray:none;filter:url(#filter890)"
       id="g30">
      <path
         points="148.21034,315.27159 148.21034,330.34281 135.67743,323.58624 135.67743,311.06828 "
         style="fill:#e9e9ff;fill-rule:evenodd;stroke:none;stroke-width:0.0979539;stroke-linejoin:round;stroke-miterlimit:4;stroke-dasharray:none"
         id="path42"
         d="m 135.67743,311.06828 12.53291,4.20331 v 15.07122 l -12.53291,-6.75657 z" />
      <path
         points="118.05486,327.51586 135.67743,323.58624 135.67743,311.06828 118.05486,313.51292 "
         style="fill:#353564;fill-rule:evenodd;stroke:none;stroke-width:0.0979539;stroke-linejoin:round;stroke-miterlimit:4;stroke-dasharray:none"
         id="path32"
         d="m 118.05486,313.51292 v 14.00294 l 17.62257,-3.92962 v -12.51796 z" />
      <path
         points="128.30164,336.18018 148.21034,330.34281 135.67743,323.58624 118.05486,327.51586 "
         style="fill:#afafde;fill-rule:evenodd;stroke:none;stroke-width:0.0979539;stroke-linejoin:round;stroke-miterlimit:4;stroke-dasharray:none"
         id="path40"
         d="m 118.05486,327.51586 10.24678,8.66432 19.9087,-5.83737 -12.53291,-6.75657 z" />
      <path
         points="128.30164,318.90307 148.21034,315.27159 135.67743,311.06828 118.05486,313.51292 "
         style="fill:#4d4d9f;fill-rule:evenodd;stroke:none;stroke-width:0.0979539;stroke-linejoin:round;stroke-miterlimit:4;stroke-dasharray:none"
         id="path34"
         d="m 118.05486,313.51292 10.24678,5.39015 19.9087,-3.63148 -12.53291,-4.20331 z" />
      <path
         points="128.30164,336.18018 148.21034,330.34281 148.21034,315.27159 128.30164,318.90307 "
         style="fill:#d7d7ff;fill-rule:evenodd;stroke:none;stroke-width:0.0979539;stroke-linejoin:round;stroke-miterlimit:4;stroke-dasharray:none"
         id="path38"
         d="m 128.30164,318.90307 v 17.27711 l 19.9087,-5.83737 v -15.07122 z" />
      <path
         points="128.30164,318.90307 128.30164,336.18018 118.05486,327.51586 118.05486,313.51292 "
         style="fill:#8686bf;fill-rule:evenodd;stroke:none;stroke-width:0.0979539;stroke-linejoin:round;stroke-miterlimit:4;stroke-dasharray:none"
         id="path36"
         d="m 118.05486,313.51292 10.24678,5.39015 v 17.27711 l -10.24678,-8.66432 z" />
    </g>
    <rect
       transform="matrix(0.99978963,-0.02051083,0.02005309,0.99979892,0,0)"
       y="173.26949"
       x="71.904198"
       height="9.2715368"
       width="5.5483346"
       id="rect65"
       style="fill:#28170b;fill-rule:evenodd;stroke-width:0.1;stroke-miterlimit:4;stroke-dasharray:none" />
    <g
       style="stroke-width:2.44765"
       transform="matrix(0.44196858,0,0,0.37766482,17.494301,86.244569)"
       id="g934">
      <path
         style="fill:#c83737;fill-opacity:1;stroke:#000000;stroke-width:0.647609px;stroke-linecap:butt;stroke-linejoin:miter;stroke-opacity:1"
         d="m 112.55473,177.68074 c -0.35394,26.89987 22.65253,4.60129 22.65253,4.60129 z"
         id="path904" />
      <path
         style="fill:#c83737;fill-opacity:1;stroke:#000000;stroke-width:2.85153;stroke-linecap:butt;stroke-linejoin:miter;stroke-miterlimit:4;stroke-dasharray:none;stroke-opacity:1"
         d="m 112.55473,177.68074 c 0.35395,36.81036 0.35395,36.81036 0.35395,36.81036"
         id="path906" />
    </g>
  </g>
</svg>
