<?xml version="1.0" encoding="UTF-8" standalone="no"?>
<!-- Generator: Adobe Illustrator 16.0.0, SVG Export Plug-In . SVG Version: 6.00 Build 0)  -->

<svg
   xmlns:dc="http://purl.org/dc/elements/1.1/"
   xmlns:cc="http://creativecommons.org/ns#"
   xmlns:rdf="http://www.w3.org/1999/02/22-rdf-syntax-ns#"
   xmlns:svg="http://www.w3.org/2000/svg"
   xmlns="http://www.w3.org/2000/svg"
   xmlns:sodipodi="http://sodipodi.sourceforge.net/DTD/sodipodi-0.dtd"
   xmlns:inkscape="http://www.inkscape.org/namespaces/inkscape"
   version="1.1"
   id="Capa_1"
   x="0px"
   y="0px"
   width="225.72188"
   height="225.72188"
   viewBox="0 0 225.72189 225.72189"
   xml:space="preserve"
   sodipodi:docname="chevaux.svg"
   inkscape:version="0.92.4 (5da689c313, 2019-01-14)"><metadata
   id="metadata4687"><rdf:RDF><cc:Work
       rdf:about=""><dc:format>image/svg+xml</dc:format><dc:type
         rdf:resource="http://purl.org/dc/dcmitype/StillImage" /></cc:Work></rdf:RDF></metadata><defs
   id="defs4685" /><sodipodi:namedview
   pagecolor="#ffffff"
   bordercolor="#666666"
   borderopacity="1"
   objecttolerance="10"
   gridtolerance="10"
   guidetolerance="10"
   inkscape:pageopacity="0"
   inkscape:pageshadow="2"
   inkscape:window-width="1920"
   inkscape:window-height="1017"
   id="namedview4683"
   showgrid="false"
   inkscape:zoom="1.2493251"
   inkscape:cx="110.45964"
   inkscape:cy="112.86094"
   inkscape:window-x="-8"
   inkscape:window-y="-8"
   inkscape:window-maximized="1"
   inkscape:current-layer="Capa_1" />
<circle
   style="opacity:1;fill:#ec9bc8;fill-opacity:1;stroke:none;stroke-width:8.56062984;stroke-linecap:square;stroke-linejoin:round;stroke-miterlimit:4;stroke-dasharray:none;stroke-dashoffset:0;stroke-opacity:0.97894736;paint-order:normal"
   id="path5232"
   cx="112.86094"
   cy="112.86094"
   r="112.86094" /><g
   id="g4650"
   transform="translate(16.008644,18.409943)">
	<path
   d="m 174.873,113.481 c -21.775,11.732 -23.855,-9.641 -23.855,-9.641 -18.011,-2.081 -31.398,-22.198 -31.398,-22.198 -24.32,12.563 -10.764,47.998 -0.283,61.604 13.464,17.438 3.605,45.655 3.605,45.655 0,0 -54.902,-4.438 -82.929,-39.649 C 18.968,122.818 24.412,97.828 30.396,81.334 37.604,61.513 47.348,50.634 61.555,39.063 82.674,21.842 121.694,19.688 121.694,19.688 c 0.255,-1.463 1.454,-3.171 2.985,-4.927 -4.699,0.127 -10.438,0.52 -16.976,1.375 -4.457,0.86 -9.383,1.351 -14.372,2.813 -5.107,1.103 -10.282,2.875 -15.578,4.903 -5.29,1.974 -10.491,4.776 -15.628,7.693 -4.879,3.401 -10.06,6.537 -14.159,11.015 -4.702,3.833 -8.127,8.813 -11.644,13.589 -3.673,4.685 -5.477,10.4 -8.225,15.321 -2.039,5.251 -3.177,10.663 -4.717,15.616 -1.386,4.992 -1.365,9.993 -2.068,14.485 -0.594,4.504 -1.046,8.635 -0.704,12.329 0.121,3.688 0.195,6.922 0.281,9.563 0.157,5.297 0.254,8.334 0.254,8.334 l -0.732,0.065 c 0,0 -0.63,-2.967 -1.454,-8.311 -0.394,-2.665 -0.884,-5.929 -1.41,-9.676 -0.804,-3.747 -0.827,-8.026 -0.479,-12.72 0.266,-3.381 0.316,-7.046 0.629,-10.802 L 8.898,90.16 17.909,79.118 8.449,77.764 21.964,67.396 12.043,64.24 26.025,56.58 15.433,53.427 33.688,47.56 21.068,43.955 41.575,38.313 30.315,33.138 51.047,30.431 40.907,24.574 66.214,21.923 c 0.121,-0.056 0.243,-0.115 0.358,-0.156 L 54.877,16.471 81.479,14.219 69.289,7.9 l 50.318,3.993 c 2.719,0.121 5.095,0.334 7.258,0.57 C 133.326,6.271 143.486,0 143.486,0 c -2.092,2.084 -2.926,13.406 -2.926,13.406 2.087,-3.783 8.79,-7.548 8.79,-7.548 -3.76,8.79 0,27.63 0,27.63 10.899,10.902 23.04,48.581 23.04,48.581 l 4.622,6.694 c 5.828,8.398 3.677,21.58 -2.139,24.718 z"
   id="path4648"
   inkscape:connector-curvature="0" />
</g>
<g
   id="g4652"
   transform="translate(16.008644,18.409943)">
</g>
<g
   id="g4654"
   transform="translate(16.008644,18.409943)">
</g>
<g
   id="g4656"
   transform="translate(16.008644,18.409943)">
</g>
<g
   id="g4658"
   transform="translate(16.008644,18.409943)">
</g>
<g
   id="g4660"
   transform="translate(16.008644,18.409943)">
</g>
<g
   id="g4662"
   transform="translate(16.008644,18.409943)">
</g>
<g
   id="g4664"
   transform="translate(16.008644,18.409943)">
</g>
<g
   id="g4666"
   transform="translate(16.008644,18.409943)">
</g>
<g
   id="g4668"
   transform="translate(16.008644,18.409943)">
</g>
<g
   id="g4670"
   transform="translate(16.008644,18.409943)">
</g>
<g
   id="g4672"
   transform="translate(16.008644,18.409943)">
</g>
<g
   id="g4674"
   transform="translate(16.008644,18.409943)">
</g>
<g
   id="g4676"
   transform="translate(16.008644,18.409943)">
</g>
<g
   id="g4678"
   transform="translate(16.008644,18.409943)">
</g>
<g
   id="g4680"
   transform="translate(16.008644,18.409943)">
</g>
</svg>