<?xml version="1.0" encoding="UTF-8" standalone="no"?>
<!-- Generator: Adobe Illustrator 16.0.0, SVG Export Plug-In . SVG Version: 6.00 Build 0)  -->

<svg
   xmlns:dc="http://purl.org/dc/elements/1.1/"
   xmlns:cc="http://creativecommons.org/ns#"
   xmlns:rdf="http://www.w3.org/1999/02/22-rdf-syntax-ns#"
   xmlns:svg="http://www.w3.org/2000/svg"
   xmlns="http://www.w3.org/2000/svg"
   xmlns:sodipodi="http://sodipodi.sourceforge.net/DTD/sodipodi-0.dtd"
   xmlns:inkscape="http://www.inkscape.org/namespaces/inkscape"
   version="1.1"
   id="Capa_1"
   x="0px"
   y="0px"
   width="637.11865"
   height="637.11865"
   viewBox="0 0 637.11865 637.11865"
   xml:space="preserve"
   sodipodi:docname="diplomatie.svg"
   inkscape:version="0.92.4 (5da689c313, 2019-01-14)"><metadata
   id="metadata5350"><rdf:RDF><cc:Work
       rdf:about=""><dc:format>image/svg+xml</dc:format><dc:type
         rdf:resource="http://purl.org/dc/dcmitype/StillImage" /></cc:Work></rdf:RDF></metadata><defs
   id="defs5348" /><sodipodi:namedview
   pagecolor="#ffffff"
   bordercolor="#666666"
   borderopacity="1"
   objecttolerance="10"
   gridtolerance="10"
   guidetolerance="10"
   inkscape:pageopacity="0"
   inkscape:pageshadow="2"
   inkscape:window-width="1920"
   inkscape:window-height="1017"
   id="namedview5346"
   showgrid="false"
   inkscape:zoom="0.56190476"
   inkscape:cx="313.22034"
   inkscape:cy="338.13559"
   inkscape:window-x="-8"
   inkscape:window-y="-8"
   inkscape:window-maximized="1"
   inkscape:current-layer="Capa_1" />
<circle
   style="opacity:1;fill:#d76373;fill-opacity:1;stroke:none;stroke-width:8.56062984;stroke-linecap:square;stroke-linejoin:round;stroke-miterlimit:4;stroke-dasharray:none;stroke-dashoffset:0;stroke-opacity:0.97894736;paint-order:normal"
   id="path5897"
   cx="318.55933"
   cy="318.55933"
   r="318.55933" /><g
   id="g5313"
   transform="translate(138.81356,97.881368)">
	<g
   id="g5311">
		<g
   id="g5309">
			<path
   d="m 252.877,92.823 h 53.791 l 0.005,62.757 27.271,-42.343 V 77.743 c 0,-2.168 -0.863,-4.247 -2.396,-5.787 L 261.984,2.395 C 260.451,0.863 258.371,0 256.199,0 H 41.113 C 27.579,0 16.566,11.008 16.566,24.543 v 370.914 c 0,13.534 11.012,24.543 24.547,24.543 h 268.283 c 13.533,0 24.545,-11.009 24.545,-24.543 V 290.15 l -27.264,41.721 0.004,60.854 H 43.84 V 27.274 h 198.906 v 55.417 c 0,5.599 4.535,10.132 10.131,10.132 z"
   id="path5293"
   inkscape:connector-curvature="0" />
			<path
   d="m 364.398,195.123 -11.271,-7.364 c -1.84,-1.201 -4.303,-0.686 -5.506,1.154 l -60.688,92.866 -11.67,-7.625 60.688,-92.867 c 1.203,-1.841 0.687,-4.304 -1.153,-5.506 l -11.271,-7.365 c -1.84,-1.202 -4.305,-0.686 -5.506,1.154 l -90.869,139.053 c -0.386,0.591 -0.607,1.274 -0.643,1.979 l -2.375,48.258 c -0.069,1.409 0.614,2.754 1.797,3.523 1.183,0.773 2.688,0.86 3.949,0.231 l 43.243,-21.553 c 0.634,-0.313 1.17,-0.793 1.558,-1.385 l 90.867,-139.052 c 1.206,-1.834 0.688,-4.298 -1.15,-5.501 z"
   id="path5295"
   inkscape:connector-curvature="0" />
			<path
   d="m 401.631,138.145 -40.869,-26.708 c -1.838,-1.201 -4.304,-0.685 -5.506,1.154 l -27.563,42.179 c -1.201,1.84 -0.686,4.306 1.154,5.508 l 40.869,26.706 c 1.838,1.202 4.305,0.686 5.506,-1.154 l 27.562,-42.178 c 1.204,-1.84 0.687,-4.305 -1.153,-5.507 z"
   id="path5297"
   inkscape:connector-curvature="0" />
			<path
   d="m 83.563,87.462 h 78 c 5.523,0 10,-4.478 10,-10 0,-5.522 -4.477,-10 -10,-10 h -78 c -5.523,0 -10,4.478 -10,10 0,5.522 4.479,10 10,10 z"
   id="path5299"
   inkscape:connector-curvature="0" />
			<path
   d="m 231.563,127.462 c 0,-5.522 -4.479,-10 -10,-10 h -138 c -5.523,0 -10,4.478 -10,10 0,5.522 4.477,10 10,10 h 138 c 5.523,0 10,-4.478 10,-10 z"
   id="path5301"
   inkscape:connector-curvature="0" />
			<path
   d="m 83.563,187.462 h 78 c 5.523,0 10,-4.478 10,-10 0,-5.522 -4.477,-10 -10,-10 h -78 c -5.523,0 -10,4.478 -10,10 0,5.522 4.479,10 10,10 z"
   id="path5303"
   inkscape:connector-curvature="0" />
			<path
   d="m 83.563,237.462 h 78 c 5.523,0 10,-4.478 10,-10 0,-5.521 -4.477,-10 -10,-10 h -78 c -5.523,0 -10,4.479 -10,10 0,5.522 4.479,10 10,10 z"
   id="path5305"
   inkscape:connector-curvature="0" />
			<path
   d="m 87.796,366.694 c -1.947,2.516 1.565,6.082 3.536,3.533 6.213,-8.026 11.344,-16.671 15.629,-25.795 2.674,1.679 6.185,1.343 9.065,0.205 4.151,-1.637 7.67,-4.796 11.021,-7.655 1.981,-1.69 4.287,-4.481 7.029,-4.748 2.094,-0.201 4.922,1.485 7.015,1.844 5.469,0.932 11.857,-0.651 17.137,-1.956 5.011,-1.237 10.879,-3.194 13.828,-7.731 1.763,-2.712 -2.568,-5.216 -4.317,-2.521 -2.361,3.632 -8.126,4.764 -12.022,5.726 -4.573,1.131 -9.879,2.246 -14.592,1.442 -3.552,-0.604 -6.425,-2.752 -10.077,-1.125 -4.892,2.18 -8.629,6.761 -12.949,9.854 -1.933,1.384 -4.142,2.714 -6.56,2.901 -0.995,0.077 -1.806,-0.288 -2.48,-0.896 0.532,-1.234 1.06,-2.474 1.563,-3.725 4.876,-12.104 7.081,-24.396 9.344,-37.146 1.15,-6.479 3.063,-16.688 -6.223,-17.311 -8.205,-0.548 -15.296,11.287 -17.918,17.524 -2.345,5.578 -2.606,12.058 -2.427,18.014 0.111,3.712 1.447,7.566 2.432,11.404 -7.874,1.263 -14.814,9.216 -13.598,17.1 1.197,7.758 10.898,3.752 14.521,0.881 3.667,-2.905 4.854,-6.534 4.893,-10.448 0.731,1.205 1.342,2.65 1.974,4.002 -4.225,9.477 -9.522,18.485 -15.824,26.627 z m 8.764,-28.301 c -0.74,3.298 -4.913,6.554 -8.199,6.858 -2.585,0.24 -1.008,-4.377 -0.497,-5.409 1.604,-3.242 5.578,-5.358 8.919,-6.27 0.156,1.627 0.131,3.239 -0.223,4.821 z m 4.176,-9.681 c -0.851,-3.976 -2.032,-7.969 -2.338,-11.583 -0.592,-6.975 0.647,-14.284 4.106,-20.384 2.161,-3.812 6.566,-9.654 11.239,-10.154 4.173,-0.444 1.628,9.705 1.267,11.744 -1.117,6.294 -1.914,12.541 -3.471,18.763 -1.446,5.778 -3.278,11.5 -5.469,17.095 -1.165,-2.899 -2.682,-4.755 -5.334,-5.481 z"
   id="path5307"
   inkscape:connector-curvature="0" />
		</g>
	</g>
</g>
<g
   id="g5315"
   transform="translate(103.22034,88.983063)">
</g>
<g
   id="g5317"
   transform="translate(103.22034,88.983063)">
</g>
<g
   id="g5319"
   transform="translate(103.22034,88.983063)">
</g>
<g
   id="g5321"
   transform="translate(103.22034,88.983063)">
</g>
<g
   id="g5323"
   transform="translate(103.22034,88.983063)">
</g>
<g
   id="g5325"
   transform="translate(103.22034,88.983063)">
</g>
<g
   id="g5327"
   transform="translate(103.22034,88.983063)">
</g>
<g
   id="g5329"
   transform="translate(103.22034,88.983063)">
</g>
<g
   id="g5331"
   transform="translate(103.22034,88.983063)">
</g>
<g
   id="g5333"
   transform="translate(103.22034,88.983063)">
</g>
<g
   id="g5335"
   transform="translate(103.22034,88.983063)">
</g>
<g
   id="g5337"
   transform="translate(103.22034,88.983063)">
</g>
<g
   id="g5339"
   transform="translate(103.22034,88.983063)">
</g>
<g
   id="g5341"
   transform="translate(103.22034,88.983063)">
</g>
<g
   id="g5343"
   transform="translate(103.22034,88.983063)">
</g>
</svg>