<?xml version="1.0" encoding="UTF-8" standalone="no"?>
<svg
   xmlns:dc="http://purl.org/dc/elements/1.1/"
   xmlns:cc="http://creativecommons.org/ns#"
   xmlns:rdf="http://www.w3.org/1999/02/22-rdf-syntax-ns#"
   xmlns:svg="http://www.w3.org/2000/svg"
   xmlns="http://www.w3.org/2000/svg"
   xmlns:sodipodi="http://sodipodi.sourceforge.net/DTD/sodipodi-0.dtd"
   xmlns:inkscape="http://www.inkscape.org/namespaces/inkscape"
   version="1.1"
   viewBox="0 0 794.03387 794.03387"
   enable-background="new 0 0 512 512"
   id="svg5931"
   sodipodi:docname="economie.svg"
   width="794.03387"
   height="794.03387"
   inkscape:version="0.92.4 (5da689c313, 2019-01-14)">
  <metadata
     id="metadata5937">
    <rdf:RDF>
      <cc:Work
         rdf:about="">
        <dc:format>image/svg+xml</dc:format>
        <dc:type
           rdf:resource="http://purl.org/dc/dcmitype/StillImage" />
      </cc:Work>
    </rdf:RDF>
  </metadata>
  <defs
     id="defs5935" />
  <sodipodi:namedview
     pagecolor="#ffffff"
     bordercolor="#666666"
     borderopacity="1"
     objecttolerance="10"
     gridtolerance="10"
     guidetolerance="10"
     inkscape:pageopacity="0"
     inkscape:pageshadow="2"
     inkscape:window-width="1920"
     inkscape:window-height="1017"
     id="namedview5933"
     showgrid="false"
     inkscape:zoom="0.4609375"
     inkscape:cx="394.84744"
     inkscape:cy="425.22034"
     inkscape:window-x="-8"
     inkscape:window-y="-8"
     inkscape:window-maximized="1"
     inkscape:current-layer="svg5931" />
  <circle
     style="opacity:1;fill:#fff079;fill-opacity:1;stroke:none;stroke-width:8.56062984;stroke-linecap:square;stroke-linejoin:round;stroke-miterlimit:4;stroke-dasharray:none;stroke-dashoffset:0;stroke-opacity:0.97894736;paint-order:normal"
     id="path6482"
     cx="397.01694"
     cy="397.01694"
     r="397.01694" />
  <g
     id="g5929"
     transform="translate(136.67795,130.16947)">
    <g
       id="g5927">
      <g
         id="g5925">
        <path
           d="M 473.6,256.6 C 473.6,157.3 406.5,70.7 310.3,46 c -9.2,-2.4 -18.6,3.2 -20.9,12.4 -2.4,9.2 3.2,18.6 12.4,20.9 80.9,20.7 137.4,93.7 137.4,177.3 0,73.7 -43.9,139 -109.6,167.7 l 15.9,-37 c 3.7,-8.7 -0.3,-18.8 -9,-22.6 -8.7,-3.7 -18.8,0.3 -22.6,9 l -31,72.2 c -3.7,8.7 0.3,18.8 9,22.6 l 72.2,31 c 10.8,3.8 19.8,-2.5 22.6,-9 3.7,-8.7 -0.3,-18.8 -9,-22.6 L 346.3,454.4 C 422.8,419.8 473.6,343 473.6,256.6 Z"
           id="path5919"
           inkscape:connector-curvature="0" />
        <path
           d="M 210.4,433.9 C 129.5,413.1 73,340.2 73,256.6 73,183.9 115.7,119.4 179.9,90.1 L 165,124.7 c -3.7,8.7 0.1,19.2 9,22.6 10.4,3.9 19.2,-0.8 22.6,-9 l 31,-72.3 c 3,-7 2.9,-17.5 -9,-22.6 l -72.2,-31 c -8.7,-3.7 -18.8,0.3 -22.6,9 -3.7,8.7 0.3,18.8 9,22.6 l 33.6,14.4 C 89.6,93.1 38.6,170 38.6,256.6 c 0,99.3 67.2,185.8 163.3,210.6 11.6,3 18.9,-4.6 20.9,-12.4 2.3,-9.2 -3.2,-18.5 -12.4,-20.9 z"
           id="path5921"
           inkscape:connector-curvature="0" />
        <path
           d="m 296.6,321.4 c 8.8,-9.2 13.2,-20.8 13.2,-34.6 0,-6.3 -1.1,-12.1 -3.2,-17.5 -2.1,-5.4 -5.1,-10 -9,-14 -3.9,-3.9 -9,-7.2 -15.2,-10 -3.3,-1.4 -9.9,-3.4 -20,-5.9 V 182 c 6.5,1.3 11.6,4.1 15.4,8.3 3.7,4.2 6.2,10.2 7.4,18 l 20.6,-3.1 c -1.8,-12.6 -7,-22.6 -15.7,-29.8 -6.8,-5.7 -16,-9.1 -27.6,-10.2 v -9.5 h -11.8 v 9.5 c -13.2,1.3 -23.2,5 -29.9,10.9 -10.1,8.8 -15.1,20.3 -15.1,34.5 0,8 1.7,15.1 5.2,21.4 3.4,6.3 8.3,11.2 14.7,14.7 8.6,4.8 17,8 25.2,9.5 v 63.5 c -7.8,-0.8 -14.6,-4.8 -20.2,-11.9 -3.9,-5 -6.7,-12.9 -8.2,-23.6 l -20.1,3.8 c 0.7,10.3 3.4,19.1 7.9,26.3 4.5,7.2 9.9,12.4 16.2,15.6 6.2,3.2 14.4,5.4 24.3,6.7 v 19.9 h 11.8 v -20.2 c 14,-0.7 25.4,-5.7 34.1,-14.9 z m -45.8,-84.5 c -9.1,-2.7 -15.5,-6.4 -19.3,-11 -3.8,-4.6 -5.7,-10.3 -5.7,-17.1 0,-6.9 2.2,-12.8 6.7,-17.8 4.5,-5 10.6,-8.1 18.3,-9.3 z m 30.9,72.6 c -5.1,5.8 -11.5,9.1 -19.2,10.1 v -60.7 c 10.7,3.5 17.9,7.4 21.5,11.8 3.6,4.4 5.4,10.2 5.4,17.5 -0.1,8.4 -2.6,15.6 -7.7,21.3 z"
           id="path5923"
           inkscape:connector-curvature="0" />
      </g>
    </g>
  </g>
</svg>
