<?xml version="1.0" encoding="UTF-8" standalone="no"?>
<!-- Generator: Adobe Illustrator 19.0.0, SVG Export Plug-In . SVG Version: 6.00 Build 0)  -->

<svg
   xmlns:dc="http://purl.org/dc/elements/1.1/"
   xmlns:cc="http://creativecommons.org/ns#"
   xmlns:rdf="http://www.w3.org/1999/02/22-rdf-syntax-ns#"
   xmlns:svg="http://www.w3.org/2000/svg"
   xmlns="http://www.w3.org/2000/svg"
   xmlns:sodipodi="http://sodipodi.sourceforge.net/DTD/sodipodi-0.dtd"
   xmlns:inkscape="http://www.inkscape.org/namespaces/inkscape"
   version="1.1"
   id="Layer_1"
   x="0px"
   y="0px"
   viewBox="0 0 781.01697 781.01697"
   xml:space="preserve"
   sodipodi:docname="espion.svg"
   inkscape:version="0.92.4 (5da689c313, 2019-01-14)"
   width="781.01697"
   height="781.01697"><metadata
   id="metadata6592"><rdf:RDF><cc:Work
       rdf:about=""><dc:format>image/svg+xml</dc:format><dc:type
         rdf:resource="http://purl.org/dc/dcmitype/StillImage" /></cc:Work></rdf:RDF></metadata><defs
   id="defs6590" /><sodipodi:namedview
   pagecolor="#ffffff"
   bordercolor="#666666"
   borderopacity="1"
   objecttolerance="10"
   gridtolerance="10"
   guidetolerance="10"
   inkscape:pageopacity="0"
   inkscape:pageshadow="2"
   inkscape:window-width="1920"
   inkscape:window-height="1017"
   id="namedview6588"
   showgrid="false"
   inkscape:zoom="0.4609375"
   inkscape:cx="390.50848"
   inkscape:cy="418.71185"
   inkscape:window-x="-8"
   inkscape:window-y="-8"
   inkscape:window-maximized="1"
   inkscape:current-layer="Layer_1" />
<circle
   style="opacity:1;fill:#7986ff;fill-opacity:1;stroke:none;stroke-width:8.56062984;stroke-linecap:square;stroke-linejoin:round;stroke-miterlimit:4;stroke-dasharray:none;stroke-dashoffset:0;stroke-opacity:0.97894736;paint-order:normal"
   id="path7139"
   cx="390.50848"
   cy="390.50848"
   r="390.50848" /><g
   id="g6555"
   transform="translate(134.50848,106.30511)"
   style="fill:#000000">
	<g
   id="g6553"
   style="fill:#000000">
		<g
   id="g6551"
   style="fill:#000000">
			<path
   d="M 481.53,335.288 C 450.427,238.601 360.298,171.002 256,171.002 c -104.242,0 -194.41,67.548 -225.53,164.286 -1.3,4.041 -1.3,8.387 0,12.427 C 61.573,444.401 151.703,512 256,512 c 104.175,0 194.392,-67.494 225.53,-164.285 1.3,-4.04 1.3,-8.386 0,-12.427 z M 256,471.419 C 170.347,471.419 98.21,416.803 71.214,341.502 98.215,266.182 170.365,211.584 256,211.584 c 85.653,0 157.79,54.617 184.785,129.917 -27,75.318 -99.151,129.918 -184.785,129.918 z"
   id="path6539"
   inkscape:connector-curvature="0"
   style="fill:#000000" />
			<path
   d="m 256,235.182 c -58.625,0 -106.321,47.694 -106.321,106.319 0,58.625 47.695,106.319 106.321,106.319 58.626,0 106.321,-47.694 106.321,-106.319 0,-58.625 -47.696,-106.319 -106.321,-106.319 z m 0,172.057 c -36.249,0 -65.739,-29.491 -65.739,-65.738 0,-36.247 29.491,-65.738 65.739,-65.738 36.248,0 65.739,29.491 65.739,65.738 0,36.247 -29.49,65.738 -65.739,65.738 z"
   id="path6541"
   inkscape:connector-curvature="0"
   style="fill:#000000" />
			<circle
   cx="256.00101"
   cy="341.50699"
   r="38.201"
   id="circle6543"
   style="fill:#000000" />
			<path
   d="m 256.001,122.16 c 11.206,0 20.291,-9.085 20.291,-20.291 V 20.291 C 276.292,9.085 267.207,0 256.001,0 244.795,0 235.71,9.085 235.71,20.291 v 81.578 c 0.001,11.207 9.085,20.291 20.291,20.291 z"
   id="path6545"
   inkscape:connector-curvature="0"
   style="fill:#000000" />
			<path
   d="m 119.458,166.832 c 7.923,7.924 20.771,7.924 28.695,0 7.924,-7.923 7.924,-20.771 0,-28.695 L 90.47,80.451 c -7.922,-7.924 -20.77,-7.924 -28.695,0 -7.924,7.924 -7.924,20.771 0,28.695 z"
   id="path6547"
   inkscape:connector-curvature="0"
   style="fill:#000000" />
			<path
   d="m 392.547,166.832 57.684,-57.685 c 7.924,-7.924 7.924,-20.771 0,-28.695 -7.923,-7.924 -20.771,-7.924 -28.695,0 l -57.684,57.685 c -7.924,7.924 -7.924,20.771 0,28.695 7.923,7.923 20.772,7.924 28.695,0 z"
   id="path6549"
   inkscape:connector-curvature="0"
   style="fill:#000000" />
		</g>
	</g>
</g>
<g
   id="g6557"
   transform="translate(134.50848,106.30511)">
</g>
<g
   id="g6559"
   transform="translate(134.50848,106.30511)">
</g>
<g
   id="g6561"
   transform="translate(134.50848,106.30511)">
</g>
<g
   id="g6563"
   transform="translate(134.50848,106.30511)">
</g>
<g
   id="g6565"
   transform="translate(134.50848,106.30511)">
</g>
<g
   id="g6567"
   transform="translate(134.50848,106.30511)">
</g>
<g
   id="g6569"
   transform="translate(134.50848,106.30511)">
</g>
<g
   id="g6571"
   transform="translate(134.50848,106.30511)">
</g>
<g
   id="g6573"
   transform="translate(134.50848,106.30511)">
</g>
<g
   id="g6575"
   transform="translate(134.50848,106.30511)">
</g>
<g
   id="g6577"
   transform="translate(134.50848,106.30511)">
</g>
<g
   id="g6579"
   transform="translate(134.50848,106.30511)">
</g>
<g
   id="g6581"
   transform="translate(134.50848,106.30511)">
</g>
<g
   id="g6583"
   transform="translate(134.50848,106.30511)">
</g>
<g
   id="g6585"
   transform="translate(134.50848,106.30511)">
</g>
</svg>