<?xml version="1.0" encoding="UTF-8" standalone="no"?>
<!-- Generator: Adobe Illustrator 18.0.0, SVG Export Plug-In . SVG Version: 6.00 Build 0)  -->

<svg
   xmlns:dc="http://purl.org/dc/elements/1.1/"
   xmlns:cc="http://creativecommons.org/ns#"
   xmlns:rdf="http://www.w3.org/1999/02/22-rdf-syntax-ns#"
   xmlns:svg="http://www.w3.org/2000/svg"
   xmlns="http://www.w3.org/2000/svg"
   xmlns:sodipodi="http://sodipodi.sourceforge.net/DTD/sodipodi-0.dtd"
   xmlns:inkscape="http://www.inkscape.org/namespaces/inkscape"
   version="1.1"
   id="Capa_1"
   x="0px"
   y="0px"
   viewBox="0 0 361.2892 361.2892"
   xml:space="preserve"
   sodipodi:docname="ethnographie.svg"
   width="361.28922"
   height="361.28922"
   inkscape:version="0.92.4 (5da689c313, 2019-01-14)"><metadata
   id="metadata7245"><rdf:RDF><cc:Work
       rdf:about=""><dc:format>image/svg+xml</dc:format><dc:type
         rdf:resource="http://purl.org/dc/dcmitype/StillImage" /></cc:Work></rdf:RDF></metadata><defs
   id="defs7243" /><sodipodi:namedview
   pagecolor="#ffffff"
   bordercolor="#666666"
   borderopacity="1"
   objecttolerance="10"
   gridtolerance="10"
   guidetolerance="10"
   inkscape:pageopacity="0"
   inkscape:pageshadow="2"
   inkscape:window-width="1920"
   inkscape:window-height="1017"
   id="namedview7241"
   showgrid="false"
   inkscape:zoom="0.89402062"
   inkscape:cx="178.9668"
   inkscape:cy="171.137"
   inkscape:window-x="-8"
   inkscape:window-y="-8"
   inkscape:window-maximized="1"
   inkscape:current-layer="Capa_1" />
<circle
   style="opacity:1;fill:#6dd7ba;fill-opacity:1;stroke:none;stroke-width:8.56062984;stroke-linecap:square;stroke-linejoin:round;stroke-miterlimit:4;stroke-dasharray:none;stroke-dashoffset:0;stroke-opacity:0.97894736;paint-order:normal"
   id="path7790"
   cx="180.64461"
   cy="180.64461"
   r="180.64461" /><g
   id="g7208"
   transform="translate(46.97879,58.164207)">
	<path
   d="m 149.763,36.21 c 3.01,-3.811 4.871,-8.616 4.871,-13.837 C 154.634,10.036 144.628,0 132.291,0 c -12.337,0 -22.358,10.036 -22.358,22.373 0,5.222 1.597,10.026 4.605,13.837 -9.211,5.839 -15.55,16.117 -15.55,27.807 v 27.22 c 0,4.143 3.785,7.739 7.928,7.739 h 50.811 c 4.143,0 7.262,-3.597 7.262,-7.739 V 64.017 C 164.988,52.327 158.976,42.048 149.763,36.21 Z"
   id="path7194"
   inkscape:connector-curvature="0" />
	<path
   d="m 81.988,124.539 v -27.22 c 0,-11.689 -5.754,-21.969 -14.967,-27.807 3.01,-3.811 5,-8.616 5,-13.837 0,-12.337 -9.942,-22.373 -22.279,-22.373 -12.337,0 -22.326,10.037 -22.326,22.374 0,5.222 1.855,10.026 4.863,13.837 C 23.067,75.352 16.987,85.63 16.987,97.32 v 27.22 c 0,4.143 3.301,7.437 7.443,7.437 h 50.811 c 4.143,-0.001 6.747,-3.295 6.747,-7.438 z"
   id="path7196"
   inkscape:connector-curvature="0" />
	<path
   d="m 232.034,69.513 c 3.008,-3.811 5.006,-8.616 5.006,-13.837 0,-12.337 -9.939,-22.373 -22.276,-22.373 -12.337,0 -22.325,10.036 -22.325,22.373 0,5.222 1.843,10.026 4.852,13.837 -9.212,5.839 -15.304,16.117 -15.304,27.807 v 27.22 c 0,4.143 3.326,7.437 7.469,7.437 h 50.811 c 4.143,0 6.721,-3.294 6.721,-7.437 V 97.32 c 0,-11.69 -5.743,-21.969 -14.954,-27.807 z"
   id="path7198"
   inkscape:connector-curvature="0" />
	<path
   d="m 149.763,201.464 c 3.01,-3.811 4.871,-8.615 4.871,-13.836 0,-12.337 -10.006,-22.373 -22.343,-22.373 -12.337,0 -22.358,10.036 -22.358,22.373 0,5.221 1.597,10.026 4.605,13.837 -9.211,5.839 -15.55,16.117 -15.55,27.807 v 27.22 c 0,4.143 3.785,7.484 7.928,7.484 h 50.811 c 4.143,0 7.262,-3.342 7.262,-7.484 v -27.22 c -0.001,-11.691 -6.013,-21.968 -15.226,-27.808 z m -17.442,-21.209 c 4.065,0 7.373,3.308 7.373,7.373 0,4.066 -3.308,7.373 -7.373,7.373 -4.065,0 -7.373,-3.308 -7.373,-7.373 0,-4.065 3.307,-7.373 7.373,-7.373 z m 17.667,68.721 h -36 v -19.704 c 0,-9.874 8.127,-17.906 18.001,-17.906 9.872,0 17.999,8.032 17.999,17.906 z"
   id="path7200"
   inkscape:connector-curvature="0" />
	<path
   d="m 138.988,138.555 v -24.854 c 0,-4.143 -3.357,-7.5 -7.5,-7.5 -4.143,0 -7.5,3.357 -7.5,7.5 v 24.854 c 0,4.143 3.357,7.5 7.5,7.5 4.142,0 7.5,-3.358 7.5,-7.5 z"
   id="path7202"
   inkscape:connector-curvature="0" />
	<path
   d="m 59.331,140.177 c -3.009,-2.847 -7.753,-2.718 -10.604,0.289 -2.848,3.008 -2.718,7.755 0.289,10.604 l 37.709,35.707 c 1.451,1.373 3.305,2.054 5.156,2.054 1.987,0 3.972,-0.786 5.447,-2.343 2.848,-3.008 2.718,-7.755 -0.289,-10.604 z"
   id="path7204"
   inkscape:connector-curvature="0" />
	<path
   d="m 205.241,140.071 -37.606,35.789 c -3.001,2.855 -3.118,7.603 -0.263,10.603 1.474,1.55 3.452,2.33 5.434,2.33 1.857,0 3.718,-0.686 5.169,-2.067 l 37.606,-35.789 c 3.001,-2.855 3.118,-7.602 0.263,-10.602 -2.855,-3.003 -7.603,-3.118 -10.603,-0.264 z"
   id="path7206"
   inkscape:connector-curvature="0" />
</g>
<g
   id="g7210"
   transform="translate(46.97879,58.164207)">
</g>
<g
   id="g7212"
   transform="translate(46.97879,58.164207)">
</g>
<g
   id="g7214"
   transform="translate(46.97879,58.164207)">
</g>
<g
   id="g7216"
   transform="translate(46.97879,58.164207)">
</g>
<g
   id="g7218"
   transform="translate(46.97879,58.164207)">
</g>
<g
   id="g7220"
   transform="translate(46.97879,58.164207)">
</g>
<g
   id="g7222"
   transform="translate(46.97879,58.164207)">
</g>
<g
   id="g7224"
   transform="translate(46.97879,58.164207)">
</g>
<g
   id="g7226"
   transform="translate(46.97879,58.164207)">
</g>
<g
   id="g7228"
   transform="translate(46.97879,58.164207)">
</g>
<g
   id="g7230"
   transform="translate(46.97879,58.164207)">
</g>
<g
   id="g7232"
   transform="translate(46.97879,58.164207)">
</g>
<g
   id="g7234"
   transform="translate(46.97879,58.164207)">
</g>
<g
   id="g7236"
   transform="translate(46.97879,58.164207)">
</g>
<g
   id="g7238"
   transform="translate(46.97879,58.164207)">
</g>
</svg>