<?xml version="1.0" encoding="UTF-8" standalone="no"?>
<svg
   xmlns:dc="http://purl.org/dc/elements/1.1/"
   xmlns:cc="http://creativecommons.org/ns#"
   xmlns:rdf="http://www.w3.org/1999/02/22-rdf-syntax-ns#"
   xmlns:svg="http://www.w3.org/2000/svg"
   xmlns="http://www.w3.org/2000/svg"
   xmlns:xlink="http://www.w3.org/1999/xlink"
   xmlns:sodipodi="http://sodipodi.sourceforge.net/DTD/sodipodi-0.dtd"
   xmlns:inkscape="http://www.inkscape.org/namespaces/inkscape"
   viewBox="0 0 119.09936 119.09936"
   version="1.1"
   id="svg34428"
   sodipodi:docname="fort.svg"
   width="119.09937"
   height="119.09937"
   inkscape:version="0.92.4 (5da689c313, 2019-01-14)">
  <metadata
     id="metadata34432">
    <rdf:RDF>
      <cc:Work
         rdf:about="">
        <dc:format>image/svg+xml</dc:format>
        <dc:type
           rdf:resource="http://purl.org/dc/dcmitype/StillImage" />
        <dc:title>Fichier 1</dc:title>
      </cc:Work>
    </rdf:RDF>
  </metadata>
  <sodipodi:namedview
     pagecolor="#ffffff"
     bordercolor="#666666"
     borderopacity="1"
     objecttolerance="10"
     gridtolerance="10"
     guidetolerance="10"
     inkscape:pageopacity="0"
     inkscape:pageshadow="2"
     inkscape:window-width="1920"
     inkscape:window-height="1017"
     id="namedview34430"
     showgrid="false"
     inkscape:zoom="2.6448503"
     inkscape:cx="-2.866721"
     inkscape:cy="64.275848"
     inkscape:window-x="-8"
     inkscape:window-y="-8"
     inkscape:window-maximized="1"
     inkscape:current-layer="svg34428" />
  <defs
     id="defs34420">
    <symbol
       id="Nouveau_symbole"
       data-name="Nouveau symbole"
       viewBox="0 0 64.97 89.23">
      <path
         d="m 61.06,36.7 -0.32,-4.2 -0.33,-4.32 h -7.19 a 0.75,0.75 0 0 0 -0.75,0.79 l 0.15,2.74 A 0.75,0.75 0 0 1 51.87,32.5 H 45.3 a 0.76,0.76 0 0 1 -0.75,-0.72 l -0.07,-2.87 a 0.74,0.74 0 0 0 -0.75,-0.72 h -6.51 a 0.75,0.75 0 0 0 -0.75,0.75 v 2.81 a 0.75,0.75 0 0 1 -0.75,0.76 h -6.53 a 0.75,0.75 0 0 1 -0.75,-0.76 v -2.81 a 0.74,0.74 0 0 0 -0.75,-0.75 h -6.47 a 0.76,0.76 0 0 0 -0.75,0.72 l -0.09,2.87 A 0.74,0.74 0 0 1 19.63,32.5 H 13.06 A 0.75,0.75 0 0 1 12.31,31.71 L 12.48,29 A 0.75,0.75 0 0 0 11.73,28.21 H 5.24 A 0.74,0.74 0 0 0 4.5,28.9 L 4.22,32.5 3.9,36.7 0,87.75 a 1.37,1.37 0 0 0 1.37,1.48 h 19 a 1.38,1.38 0 0 0 1.38,-1.34 l 0.44,-17.53 a 9.26,9.26 0 0 1 0.9,-3.79 9.74,9.74 0 0 1 2.25,-3 10.23,10.23 0 0 1 3.24,-2 10.84,10.84 0 0 1 3.92,-0.74 10.59,10.59 0 0 1 7.16,2.76 9.9,9.9 0 0 1 2.25,3 9.3,9.3 0 0 1 0.9,3.79 l 0.44,17.53 a 1.37,1.37 0 0 0 1.38,1.34 h 19 A 1.37,1.37 0 0 0 65,87.75 Z"
         id="path34413"
         inkscape:connector-curvature="0" />
      <path
         d="m 31.69,31.4 h 1.59 a 0.35,0.35 0 0 0 0.35,-0.35 V 0.71 A 0.71,0.71 0 0 0 32.92,0 H 32 A 0.71,0.71 0 0 0 31.29,0.71 V 31 a 0.36,0.36 0 0 0 0.4,0.4 z"
         id="path34415"
         inkscape:connector-curvature="0" />
      <path
         d="m 40.58,10.6 a 9.86,9.86 0 0 0 6,-2.48 20.22,20.22 0 0 0 2.79,-2.91 0.6,0.6 0 0 0 -0.66,-1 A 10.05,10.05 0 0 1 41.48,4 C 40.38,3.51 39.37,2.81 38.23,2.4 a 3.78,3.78 0 0 0 -3.47,0.24 v 7.77 c 1.52,-0.25 4.29,0.2 5.82,0.19 z"
         id="path34417"
         inkscape:connector-curvature="0" />
    </symbol>
  </defs>
  <title
     id="title34422">Fichier 1</title>
  <circle
     style="opacity:1;fill:#da805d;fill-opacity:1;stroke:none;stroke-width:8.56062984;stroke-linecap:square;stroke-linejoin:round;stroke-miterlimit:4;stroke-dasharray:none;stroke-dashoffset:0;stroke-opacity:0.97894736;paint-order:normal"
     id="path34977"
     cx="59.549683"
     cy="59.549683"
     r="59.549683" />
  <g
     id="Calque_2"
     data-name="Calque 2"
     transform="translate(26.088428,10.208515)">
    <g
       id="Calque_1-2"
       data-name="Calque 1">
      <use
         width="64.970001"
         height="89.230003"
         xlink:href="#Nouveau_symbole"
         id="use34424"
         x="0"
         y="0" />
    </g>
  </g>
</svg>
