<?xml version="1.0" encoding="UTF-8" standalone="no"?>
<!-- Generator: Adobe Illustrator 19.0.0, SVG Export Plug-In . SVG Version: 6.00 Build 0)  -->

<svg
   xmlns:dc="http://purl.org/dc/elements/1.1/"
   xmlns:cc="http://creativecommons.org/ns#"
   xmlns:rdf="http://www.w3.org/1999/02/22-rdf-syntax-ns#"
   xmlns:svg="http://www.w3.org/2000/svg"
   xmlns="http://www.w3.org/2000/svg"
   xmlns:sodipodi="http://sodipodi.sourceforge.net/DTD/sodipodi-0.dtd"
   xmlns:inkscape="http://www.inkscape.org/namespaces/inkscape"
   version="1.1"
   id="Layer_1"
   x="0px"
   y="0px"
   viewBox="0 0 696.38094 696.38094"
   xml:space="preserve"
   sodipodi:docname="geopol.svg"
   width="696.38092"
   height="696.38092"
   inkscape:version="0.92.4 (5da689c313, 2019-01-14)"><metadata
   id="metadata11065"><rdf:RDF><cc:Work
       rdf:about=""><dc:format>image/svg+xml</dc:format><dc:type
         rdf:resource="http://purl.org/dc/dcmitype/StillImage" /></cc:Work></rdf:RDF></metadata><defs
   id="defs11063" /><sodipodi:namedview
   pagecolor="#ffffff"
   bordercolor="#666666"
   borderopacity="1"
   objecttolerance="10"
   gridtolerance="10"
   guidetolerance="10"
   inkscape:pageopacity="0"
   inkscape:pageshadow="2"
   inkscape:window-width="1920"
   inkscape:window-height="1017"
   id="namedview11061"
   showgrid="false"
   inkscape:zoom="0.46095462"
   inkscape:cx="399.17161"
   inkscape:cy="342.76695"
   inkscape:window-x="-8"
   inkscape:window-y="-8"
   inkscape:window-maximized="1"
   inkscape:current-layer="Layer_1" />
<circle
   style="opacity:1;fill:#c7e07e;fill-opacity:1;stroke:none;stroke-width:8.56062984;stroke-linecap:square;stroke-linejoin:round;stroke-miterlimit:4;stroke-dasharray:none;stroke-dashoffset:0;stroke-opacity:0.97894736;paint-order:normal"
   id="path11610"
   cx="348.19046"
   cy="348.19046"
   r="348.19046" /><g
   id="g11028"
   transform="translate(99.792892,97.623474)">
	<g
   id="g11026">
		<g
   id="g11024">
			<path
   d="m 83.663,340.156 c -3.769,4.037 -3.552,10.364 0.484,14.134 1.928,1.8 4.378,2.691 6.823,2.691 2.674,0 5.342,-1.066 7.311,-3.175 l 0.654,-0.7 c 35.554,32.214 81.112,50.719 129.291,52.322 2.285,0.076 4.559,0.114 6.836,0.114 48.563,-0.002 95.229,-17.241 132.059,-48.935 1.554,-1.338 3.21,-2.817 5.063,-4.522 2.291,-2.106 4.321,-4.048 6.208,-5.934 8.054,-8.054 15.487,-16.854 22.093,-26.157 6.265,-8.822 11.841,-18.18 16.574,-27.814 13.104,-26.675 20.262,-56.563 20.697,-86.433 0.435,-29.819 -5.823,-59.865 -18.098,-86.89 -8.711,-19.179 -20.292,-36.752 -34.482,-52.365 l 1.703,-1.824 c 3.769,-4.037 3.552,-10.364 -0.484,-14.134 -4.036,-3.77 -10.364,-3.553 -14.134,0.484 L 371,52.368 C 349.262,32.719 323.378,17.864 295.549,9.186 265.508,-0.182 233.177,-2.438 202.053,2.661 160.01,9.55 121.819,29.159 91.61,59.367 83.753,67.224 76.479,75.803 69.99,84.863 c -10e-4,0.001 -10e-4,0.002 -0.002,0.002 -4.952,6.916 -9.506,14.209 -13.535,21.678 -0.001,0.002 -0.002,0.004 -0.003,0.006 -15.912,29.504 -24.29,62.898 -24.23,96.572 0.091,50.713 18.679,98.574 52.55,135.85 z m 301.936,-41.872 c -5.388,-3.365 -1.167,-0.729 0,0 z m 3.801,2.363 c -0.368,0.057 -3.919,-2.438 -3.284,-2.041 -0.074,-0.046 -0.113,-0.071 -0.14,-0.087 0.007,0.004 -0.013,-0.008 -0.138,-0.086 -0.014,-0.009 -0.026,-0.016 -0.04,-0.025 -6.872,-4.292 -13.648,-8.682 -20.307,-13.296 -7.037,-4.875 -14.17,-9.684 -21.685,-13.8 -2.93,-1.604 -5.933,-3.105 -9.037,-4.343 4.189,-0.129 8.41,-1.177 12.167,-3.033 8.407,-4.153 13.483,-11.869 13.926,-21.168 0.054,-1.127 0.117,-2.193 0.189,-3.202 0.501,-7.063 1.411,-11.316 2.286,-13.869 2.916,5.541 6.537,16.943 6.167,34.102 -0.277,12.848 3.43,22.827 11.02,29.661 3.33,2.998 7.335,5.235 11.581,6.643 -0.312,-0.105 -2.068,4.445 -2.705,4.544 z M 68.89,126.43 c 0.713,-1.5 1.254,-2.656 1.236,-2.664 1.887,0.859 3.753,1.835 5.51,2.94 13.164,8.278 15.366,12.446 20.189,21.578 2.261,4.28 5.075,9.607 9.489,16.337 3.685,5.617 4.697,11.122 3.009,16.362 -0.491,1.525 -1.17,2.927 -1.945,4.185 -2.328,3.774 -5.534,6.254 -7.198,6.895 -0.261,0.1 -0.564,0.176 -0.898,0.233 -0.012,0.002 -0.023,0.005 -0.036,0.007 -2.447,0.398 -6.68,-0.285 -10.79,-0.949 -11.926,-1.927 -22.906,-1.167 -34.896,0.269 1.38,-22.556 6.944,-44.734 16.33,-65.193 z m -16.451,85.357 c 5.334,-0.672 10.685,-1.206 16.028,-1.82 5.152,-0.59 10.564,0.283 15.798,1.129 0.457,0.074 0.916,0.148 1.375,0.221 6.614,1.055 13.399,1.928 19.913,-0.306 0.269,-0.092 0.539,-0.179 0.807,-0.282 7.364,-2.832 17.077,-11.43 21.001,-23.615 2.498,-7.756 3.602,-19.856 -5.323,-33.463 -3.896,-5.939 -6.357,-10.599 -8.529,-14.709 -6.084,-11.52 -10.349,-18.554 -27.226,-29.167 -0.909,-0.571 -1.852,-1.119 -2.812,-1.654 -0.223,-0.125 -0.446,-0.249 -0.672,-0.371 -0.954,-0.518 -1.927,-1.023 -2.927,-1.506 -0.034,-0.016 -0.065,-0.034 -0.098,-0.051 0.578,-0.927 1.165,-1.85 1.759,-2.767 9.316,4.383 18.835,8.782 28.762,11.618 3.568,1.019 7.771,2.174 11.526,1.406 4.387,-0.897 7.703,-4.676 7.939,-9.277 0.008,-0.164 0.023,-0.327 0.023,-0.493 0.004,-1.378 -0.273,-2.692 -0.776,-3.888 -0.252,-0.598 -0.56,-1.167 -0.919,-1.699 -0.179,-0.266 -0.371,-0.523 -0.574,-0.771 -1.83,-2.226 -4.602,-3.653 -7.702,-3.67 -1.82,0 -3.792,-0.764 -5.495,-1.292 -7.115,-2.206 -13.989,-5.296 -20.747,-8.397 3.844,-4.689 7.856,-9.254 12.183,-13.454 12.053,-11.695 27.664,-24.153 43.219,-32.529 23.833,-12.833 43,-17 43,-17 0,0 -0.44,6.309 -1,9 -1.667,8 -3.368,14.608 -3.368,14.608 -2.079,4.978 0.175,10.672 5.03,12.918 0.115,0.053 0.225,0.115 0.343,0.164 5.097,2.128 10.953,-0.277 13.082,-5.373 4.445,-10.642 5.89,-22.604 6.952,-33.996 55.536,-6.675 111.569,12.536 151.24,52.208 11.093,11.092 20.62,23.405 28.458,36.762 -6.61,-0.965 -14.105,-1.49 -20.356,-4.025 -20.549,-8.33 -33.767,-9.103 -41.595,-2.435 -4.357,3.711 -6.698,9.237 -6.593,15.561 0.104,6.283 2.531,12.784 6.773,18.589 -11.166,-7.458 -24.035,-16.892 -26.622,-20.307 -3.335,-4.403 -9.607,-5.268 -14.009,-1.932 -2.175,1.647 -3.482,4.013 -3.851,6.514 -0.377,2.562 0.231,5.268 1.919,7.495 7.552,9.969 40.555,31.129 47.618,34.846 9.804,5.16 24.453,4.645 34.238,-0.286 6.808,-3.432 8.518,-8.448 8.931,-11.132 0.847,-5.508 -1.674,-10.554 -6.746,-13.5 -2.427,-1.41 -5.173,-2.224 -8.081,-3.086 -1.03,-0.305 -2.094,-0.621 -3.171,-0.971 -3.233,-1.05 -6.59,-2.411 -9.515,-4.738 -3.727,-2.966 -5.796,-6.212 -6.779,-8.698 -0.447,-1.13 -0.669,-2.102 -0.721,-2.82 2.658,-0.092 9.136,0.752 20.689,5.435 11.864,4.811 26.076,5.609 38.687,7.089 19.779,46.985 19.112,99.585 -1.826,145.993 -9.401,-1.327 -12.388,-8.933 -12.2,-17.634 0.556,-25.764 -6.72,-47.917 -18.105,-55.124 -4.444,-2.814 -9.452,-3.33 -13.888,-1.471 -0.296,0.124 -0.589,0.258 -0.879,0.404 -12.585,6.292 -15.019,22.628 -15.741,37.777 -0.084,1.772 -0.683,2.864 -2.065,3.767 -2.193,1.433 -5.197,1.574 -6.353,1.255 -3.255,-2.598 -10.27,-14.438 -9.775,-24.503 0.67,-13.624 -6.179,-33.086 -16.013,-37.759 -4.649,-2.209 -9.866,-1.484 -13.615,1.889 -5.848,5.264 -8.723,16.831 -12.929,35.268 -0.574,2.516 -1.138,4.991 -1.697,7.337 -0.159,0.668 -0.305,1.225 -0.437,1.687 -0.37,-0.033 -0.744,-0.068 -1.095,-0.101 -3.165,-0.296 -7.502,-0.701 -13.136,-0.395 -0.125,0.007 -0.243,0.011 -0.355,0.014 8.627,-3.208 12.073,-14.001 15.15,-23.643 1.056,-3.308 2.053,-6.433 3.042,-8.631 0.187,-0.415 0.362,-0.837 0.527,-1.265 2.474,-6.431 2.505,-14.387 0.049,-22.07 -2.776,-8.688 -8.292,-15.436 -15.135,-18.515 -3.229,-1.453 -6.145,-1.813 -8.745,-1.515 -0.52,0.06 -1.027,0.146 -1.522,0.255 -0.495,0.109 -0.977,0.241 -1.446,0.392 -4.224,1.362 -7.422,4.297 -9.575,6.274 -2.018,1.852 -4.074,3.74 -6.916,5.304 -2.21,1.216 -4.896,2.237 -8.407,2.893 -2.541,0.476 -4.321,0.308 -5.291,-0.498 -2.656,-2.206 -4.002,-9.05 -4.002,-20.344 0,-3.769 -2.086,-7.047 -5.165,-8.752 -1.433,-0.794 -3.08,-1.248 -4.835,-1.248 -5.523,0 -10,4.477 -10,10 0,8.572 0,26.408 11.225,35.73 0.248,0.206 0.507,0.412 0.778,0.618 4.071,3.088 10.845,6.043 20.963,4.154 13.658,-2.552 20.867,-9.169 25.175,-13.123 0.287,-0.263 0.609,-0.558 0.927,-0.846 0.646,0.681 1.324,1.642 1.93,2.855 0.364,0.728 0.701,1.548 0.99,2.453 1.235,3.863 1.008,7.324 0.236,9.041 -1.457,3.238 -2.677,7.06 -3.857,10.757 -1.09,3.416 -2.83,8.866 -4.189,11.171 -8.534,2.539 -13.332,12.619 -12.513,21.373 0.849,9.077 7.997,17.892 22.039,17.138 4.166,-0.225 7.371,0.074 10.198,0.338 4.608,0.429 9.374,0.875 14.049,-1.981 5.402,-3.3 7.42,-9.105 8.797,-14.887 0.573,-2.405 1.151,-4.942 1.74,-7.521 0.727,-3.184 1.64,-7.187 2.613,-11.089 0.376,2.078 0.57,4.213 0.469,6.26 -0.819,16.657 9.15,35.562 18.61,42.111 0.406,0.281 0.827,0.545 1.262,0.792 -0.014,0 -0.027,0.002 -0.04,0.002 -0.5,0.006 -0.99,0.036 -1.475,0.08 -0.116,0.01 -0.232,0.023 -0.347,0.036 -0.488,0.054 -0.971,0.12 -1.443,0.213 -2.334,0.462 -4.445,1.43 -6.23,2.801 -1.255,0.964 -2.354,2.12 -3.235,3.465 -1.002,1.092 -4.914,3.113 -7.264,4.328 -7.2,3.721 -16.161,8.352 -17.42,17.845 -0.504,3.8 0.381,7.537 2.635,11.166 -12.165,1.367 -16.548,1.229 -18.112,0.91 -1.588,-0.557 -3.227,-0.688 -4.79,-0.451 -2.642,0.4 -5.057,1.859 -6.644,4.088 -0.479,0.672 -0.89,1.407 -1.2,2.213 -1.982,5.155 0.589,10.941 5.744,12.923 5.902,2.27 13.026,1.475 19.163,0.996 10.091,-0.788 20.133,-2.26 30.141,-3.739 4.104,-0.607 7.408,-3.685 8.302,-7.736 0.894,-4.051 -0.805,-8.234 -4.272,-10.513 -0.471,-0.309 -0.931,-0.616 -1.38,-0.922 -3.149,-2.139 -5.801,-4.194 -8.068,-6.251 1.202,-0.721 2.646,-1.492 3.904,-2.149 0.419,-0.219 0.818,-0.425 1.18,-0.612 4.587,-2.371 9.302,-4.807 12.713,-8.458 3.682,0.91 12.205,4.851 31.872,18.604 6.957,4.887 14.194,9.371 21.416,13.853 -4.222,5.268 -8.734,10.308 -13.486,15.06 -1.688,1.688 -3.521,3.44 -5.605,5.357 -1.69,1.555 -3.185,2.89 -4.569,4.082 -69.634,59.921 -174.311,57.956 -241.877,-3.311 4.926,-7.958 9.942,-16.79 11.365,-26.186 3.939,-25.999 11.508,-42.54 16.874,-46.907 10.142,-8.255 19.611,-18.159 20.009,-18.576 0.686,-0.719 1.361,-1.7 1.789,-2.596 2.009,-4.211 3.198,-6.055 3.844,-6.86 1.292,0.369 4.31,1.662 10.845,6.073 4.41,2.975 10.328,1.957 13.52,-2.211 0.122,-0.16 0.249,-0.314 0.363,-0.483 3.09,-4.578 1.884,-10.793 -2.694,-13.883 -10.75,-7.256 -19.098,-11.296 -27.478,-9.01 -7.913,2.156 -12.19,9.058 -15.725,16.261 -2.002,2.041 -6.632,6.671 -11.962,11.397 -1.683,1.492 -3.392,2.958 -5.136,4.377 -15.462,12.584 -21.951,45.748 -24.023,59.422 -0.774,5.109 -3.596,10.051 -6.106,14.46 C 70.27,292.295 54.446,253.304 52.439,211.787 Z"
   id="path11004"
   inkscape:connector-curvature="0" />
			<path
   d="m 385.839,298.433 c -0.007,-0.004 -0.014,-0.009 -0.021,-0.013 0.069,0.043 0.084,0.052 0.021,0.013 z"
   id="path11006"
   inkscape:connector-curvature="0" />
			<path
   d="m 147.548,117.14 c 0.41,0 0.824,-0.025 1.241,-0.077 10.55,-1.305 18.899,-5.314 24.817,-11.915 3.687,-4.112 3.342,-10.434 -0.771,-14.121 -0.059,-0.053 -0.123,-0.097 -0.184,-0.149 -4.114,-3.519 -10.304,-3.134 -13.938,0.919 -2.672,2.981 -6.607,4.702 -12.381,5.417 -5.209,0.645 -8.976,5.188 -8.755,10.343 0.012,0.269 0.025,0.538 0.059,0.81 0.627,5.065 4.937,8.773 9.912,8.773 z"
   id="path11008"
   inkscape:connector-curvature="0" />
			<path
   d="m 270.871,129.519 c -2.766,-4.689 -8.787,-6.317 -13.542,-3.618 -7.566,4.295 -11.315,3.453 -14.241,1.904 -4.881,-2.584 -10.933,-0.721 -13.517,4.159 -0.586,1.106 -0.932,2.273 -1.077,3.446 -0.496,4.001 1.462,8.073 5.236,10.071 4.553,2.41 9.229,3.617 14.083,3.617 6.142,0 12.568,-1.932 19.388,-5.803 4.803,-2.726 6.487,-8.83 3.761,-13.633 -0.028,-0.049 -0.062,-0.094 -0.091,-0.143 z"
   id="path11010"
   inkscape:connector-curvature="0" />
			<path
   d="m 219.229,284.193 c 1.841,1.467 4.04,2.179 6.224,2.179 2.76,0 5.486,-1.152 7.444,-3.341 0.128,-0.143 0.263,-0.277 0.384,-0.429 3.441,-4.32 2.729,-10.612 -1.591,-14.052 -3.936,-3.135 -7.853,-7.229 -12.523,-12.413 -3.693,-4.098 -10.004,-4.431 -14.108,-0.747 -0.005,0.004 -0.01,0.008 -0.015,0.012 -4.103,3.697 -4.432,10.02 -0.735,14.123 5.333,5.919 9.912,10.679 14.92,14.668 z"
   id="path11012"
   inkscape:connector-curvature="0" />
			<path
   d="m 236.199,51.987 c 16.08,0.126 31.935,2.775 47.123,7.873 1.055,0.354 2.128,0.522 3.183,0.522 4.179,0 8.076,-2.641 9.479,-6.821 1.757,-5.236 -1.063,-10.905 -6.299,-12.662 -17.192,-5.77 -35.134,-8.768 -53.329,-8.911 -0.027,0 -0.053,0 -0.08,0 -5.486,0 -9.955,4.426 -9.998,9.921 -0.043,5.523 4.399,10.035 9.921,10.078 z"
   id="path11014"
   inkscape:connector-curvature="0" />
			<path
   d="m 314.634,74.563 c 5.175,3.204 10.215,6.766 14.98,10.588 1.846,1.48 4.055,2.2 6.25,2.2 2.929,0 5.832,-1.281 7.807,-3.744 3.456,-4.308 2.764,-10.602 -1.544,-14.058 -5.396,-4.328 -11.105,-8.363 -16.967,-11.992 -4.696,-2.908 -10.86,-1.458 -13.766,3.239 -2.906,4.697 -1.456,10.861 3.24,13.767 z"
   id="path11016"
   inkscape:connector-curvature="0" />
			<path
   d="m 458.346,101.89 c -2.26,-5.04 -8.176,-7.293 -13.216,-5.034 -5.04,2.26 -7.293,8.177 -5.033,13.216 37.905,84.54 19.342,185.37 -46.191,250.902 -87.616,87.617 -230.181,87.617 -317.797,0 -3.905,-3.905 -10.237,-3.905 -14.143,0 -3.905,3.905 -3.905,10.237 0,14.143 46.221,46.221 107.675,71.676 173.041,71.676 65.366,0 126.82,-25.455 173.041,-71.676 35.771,-35.772 59.281,-80.927 67.985,-130.584 8.508,-48.535 2.392,-97.86 -17.687,-142.643 z"
   id="path11018"
   inkscape:connector-curvature="0" />
			<path
   d="m 418.144,71.786 c 1.952,2.736 5.027,4.194 8.149,4.194 2.009,0 4.039,-0.604 5.799,-1.86 4.496,-3.207 5.541,-9.452 2.334,-13.948 -7.858,-11.016 -16.732,-21.492 -26.377,-31.137 -3.905,-3.905 -10.237,-3.905 -14.143,0 -3.905,3.905 -3.905,10.237 0,14.143 8.865,8.865 17.02,18.49 24.238,28.608 z"
   id="path11020"
   inkscape:connector-curvature="0" />
			<path
   d="m 294.307,491.981 h -40.438 v -17.104 c 0,-5.523 -4.477,-10 -10,-10 -5.523,0 -10,4.477 -10,10 v 17.104 H 193.43 c -5.523,0 -10,4.477 -10,10 0,5.523 4.477,10 10,10 h 100.877 c 5.523,0 10,-4.477 10,-10 0,-5.523 -4.477,-10 -10,-10 z"
   id="path11022"
   inkscape:connector-curvature="0" />
		</g>
	</g>
</g>
<g
   id="g11030"
   transform="translate(99.792892,97.623474)">
</g>
<g
   id="g11032"
   transform="translate(99.792892,97.623474)">
</g>
<g
   id="g11034"
   transform="translate(99.792892,97.623474)">
</g>
<g
   id="g11036"
   transform="translate(99.792892,97.623474)">
</g>
<g
   id="g11038"
   transform="translate(99.792892,97.623474)">
</g>
<g
   id="g11040"
   transform="translate(99.792892,97.623474)">
</g>
<g
   id="g11042"
   transform="translate(99.792892,97.623474)">
</g>
<g
   id="g11044"
   transform="translate(99.792892,97.623474)">
</g>
<g
   id="g11046"
   transform="translate(99.792892,97.623474)">
</g>
<g
   id="g11048"
   transform="translate(99.792892,97.623474)">
</g>
<g
   id="g11050"
   transform="translate(99.792892,97.623474)">
</g>
<g
   id="g11052"
   transform="translate(99.792892,97.623474)">
</g>
<g
   id="g11054"
   transform="translate(99.792892,97.623474)">
</g>
<g
   id="g11056"
   transform="translate(99.792892,97.623474)">
</g>
<g
   id="g11058"
   transform="translate(99.792892,97.623474)">
</g>
</svg>