<?xml version="1.0" encoding="UTF-8" standalone="no"?>
<!-- Generator: Adobe Illustrator 19.0.0, SVG Export Plug-In . SVG Version: 6.00 Build 0)  -->

<svg
   xmlns:dc="http://purl.org/dc/elements/1.1/"
   xmlns:cc="http://creativecommons.org/ns#"
   xmlns:rdf="http://www.w3.org/1999/02/22-rdf-syntax-ns#"
   xmlns:svg="http://www.w3.org/2000/svg"
   xmlns="http://www.w3.org/2000/svg"
   xmlns:sodipodi="http://sodipodi.sourceforge.net/DTD/sodipodi-0.dtd"
   xmlns:inkscape="http://www.inkscape.org/namespaces/inkscape"
   version="1.1"
   id="Capa_1"
   x="0px"
   y="0px"
   viewBox="0 0 819.95973 819.95973"
   xml:space="preserve"
   sodipodi:docname="livre.svg"
   width="819.95972"
   height="819.95972"
   inkscape:version="0.92.4 (5da689c313, 2019-01-14)"><metadata
   id="metadata33290"><rdf:RDF><cc:Work
       rdf:about=""><dc:format>image/svg+xml</dc:format><dc:type
         rdf:resource="http://purl.org/dc/dcmitype/StillImage" /></cc:Work></rdf:RDF></metadata><defs
   id="defs33288" /><sodipodi:namedview
   pagecolor="#ffffff"
   bordercolor="#666666"
   borderopacity="1"
   objecttolerance="10"
   gridtolerance="10"
   guidetolerance="10"
   inkscape:pageopacity="0"
   inkscape:pageshadow="2"
   inkscape:window-width="1920"
   inkscape:window-height="1017"
   id="namedview33286"
   showgrid="false"
   inkscape:zoom="0.48173097"
   inkscape:cx="421.39702"
   inkscape:cy="417.24532"
   inkscape:window-x="-8"
   inkscape:window-y="-8"
   inkscape:window-maximized="1"
   inkscape:current-layer="Capa_1" />
<circle
   style="opacity:1;fill:#97d4fb;fill-opacity:1;stroke:none;stroke-width:8.56062984;stroke-linecap:square;stroke-linejoin:round;stroke-miterlimit:4;stroke-dasharray:none;stroke-dashoffset:0;stroke-opacity:0.97894736;paint-order:normal"
   id="path33835"
   cx="409.97986"
   cy="409.97986"
   r="409.97986" /><g
   id="g33253"
   transform="translate(176.44702,157.7644)">
	<g
   id="g33251">
		<g
   id="g33249">
			<path
   d="m 131.75,409.1 c -28.8,0 -52.1,18.3 -52.1,40.4 0,22.6 23.3,40.4 52.1,40.4 h 278.4 c -22.6,-24.1 -22.6,-56.8 0,-80.9 h -278.4 z"
   id="path33243"
   inkscape:connector-curvature="0" />
			<path
   d="m 120.15,1.9 c -23.3,7 -40.4,32.7 -40.4,63.8 v 342.2 c 10.5,-9.3 24.9,-15.9 40.4,-17.9 z"
   id="path33245"
   inkscape:connector-curvature="0" />
			<polygon
   points="204.85,73.9 164.85,99.2 164.85,0 139.95,0 139.95,388.9 410.25,388.9 410.25,0 244.95,0 244.95,99.2 "
   id="polygon33247" />
		</g>
	</g>
</g>
<g
   id="g33255"
   transform="translate(176.44702,157.7644)">
</g>
<g
   id="g33257"
   transform="translate(176.44702,157.7644)">
</g>
<g
   id="g33259"
   transform="translate(176.44702,157.7644)">
</g>
<g
   id="g33261"
   transform="translate(176.44702,157.7644)">
</g>
<g
   id="g33263"
   transform="translate(176.44702,157.7644)">
</g>
<g
   id="g33265"
   transform="translate(176.44702,157.7644)">
</g>
<g
   id="g33267"
   transform="translate(176.44702,157.7644)">
</g>
<g
   id="g33269"
   transform="translate(176.44702,157.7644)">
</g>
<g
   id="g33271"
   transform="translate(176.44702,157.7644)">
</g>
<g
   id="g33273"
   transform="translate(176.44702,157.7644)">
</g>
<g
   id="g33275"
   transform="translate(176.44702,157.7644)">
</g>
<g
   id="g33277"
   transform="translate(176.44702,157.7644)">
</g>
<g
   id="g33279"
   transform="translate(176.44702,157.7644)">
</g>
<g
   id="g33281"
   transform="translate(176.44702,157.7644)">
</g>
<g
   id="g33283"
   transform="translate(176.44702,157.7644)">
</g>
</svg>