<svg xmlns="http://www.w3.org/2000/svg" viewBox="0 0 83.72 95.64"><title>Fichier 1</title><g id="Calque_2" data-name="Calque 2"><g id="Calque_1-2" data-name="Calque 1"><path d="M83.3,87.1c-.9-1.2-1.9-2.8-3.1-4.3-3.4-4-7.7-8.1-9.2-9.6a.66.66,0,0,0-.7-.2,1.32,1.32,0,0,1-1.5-.5,6.27,6.27,0,0,1-1.2-1.8,9.47,9.47,0,0,1-.7-2.9,12,12,0,0,0-2.3-6.2.66.66,0,0,0,.4-.5c.3-1,.5-3.5,1.8-3.7,0,0-1.5-1.2-2,.8,0,0,.2.8-.6.1s-1.4-1.2-2.7-.1l-1-1a3.75,3.75,0,0,1,.8-.1,9.2,9.2,0,0,1,.9-4.7c.2-.4-.4,0-.4,0a9,9,0,0,0-1,4.4l-.7.2L45.4,42.3l.2-.2a4.24,4.24,0,0,0,.7-1l3-3a.48.48,0,0,0,0-.7L60.1,26.5l.2.2h.1l2.8-2.8v-.1l-.3-.2,9.7-9.8.1.1h.1l2.8-2.8V11l-.1-.1,5.1-5.1.1.1h.1L83.6,3V2.9L83,2.3h-.1l-1.1,1v.1L80,5.2h0l.1.1L75,10.4l-.1.2.4.4v.1l-2.5,2.5h-.1l-.4-.4-.2.2-9.7,9.7-.2.2.5.5v.1l-2.5,2.5h-.1l-.5-.5V26L47.8,37.8c.9-1.1,2.5-2.8,5.2-5.6,0-.1.1-.1.2-.2l.5-.5c0-.1.1-.1.2-.2l.6-.6c.1-.1.2-.3.4-.4.6-.5,1.1-1.1,1.8-1.8L80.1,5.2h0l1.8-1.9a2.07,2.07,0,0,0,0-2.3s-.2-.1-.3,0V.7L80.9,0,77.1,3.8,75.8,4l-.3.3-.2,1.3L41.8,38.7,8.3,5.5,8.1,4.2l-.3-.3L6.5,3.7,2.7,0,2,.7V1c-.1-.1-.2,0-.3,0a2.07,2.07,0,0,0,0,2.3L3.5,5.1h0L26.9,28.5l1.8,1.8c.1.1.2.3.4.4l.6.6.2.2.5.5.2.2c2.8,2.8,4.3,4.6,5.2,5.6L24.1,26l-.2-.2-.5.5h-.1l-2.5-2.5v-.1l.5-.5-.2-.2-9.7-9.7-.2-.2-.3.5h-.1L8.3,11.1V11l.4-.4-.2-.2L3.4,5.3l.1-.1h0L1.8,3.4l-.1-.1-1-1H.6L0,2.9V3L2.8,5.8h.1L3,5.7l5.1,5.1-.2.2v.1l2.9,2.8h.1l.1-.1,9.7,9.8-.2.2v.1l2.8,2.8h.1l.2-.2L34.4,37.4a.48.48,0,0,0,0,.7l3,3a2.57,2.57,0,0,0,.7,1l.2.2L23.5,56.9l-.6-.2a7.76,7.76,0,0,0-1-4.4s-.6-.4-.4,0a9.58,9.58,0,0,1,.9,4.7,2.77,2.77,0,0,0,.8.1l-1,1a1.78,1.78,0,0,0-2.7.1c-.8.7-.6-.1-.6-.1-.6-2-2-.8-2-.8,1.3.2,1.5,2.7,1.8,3.7a1,1,0,0,0,.4.5,12.4,12.4,0,0,0-2.3,6.2,9.47,9.47,0,0,1-.7,2.9A7.84,7.84,0,0,1,15,72.4a1.32,1.32,0,0,1-1.5.5.62.62,0,0,0-.7.2c-1.4,1.5-5.8,5.6-9.2,9.6C2.4,84.2,1.4,85.7.5,87a1.86,1.86,0,0,0,1.1,2.9,41.41,41.41,0,0,1,7.6,5.5.73.73,0,0,0,.6.2h0c.1,0,.2-.1.3-.2a.35.35,0,0,0,.1-.2c.4-.7,6.4-16,6.4-16s3.3-9.3,4.7-10.6h0a2.61,2.61,0,0,0,3,.2,2.9,2.9,0,0,0,1.5-3.2,4.07,4.07,0,0,0-1.2-1.8h0c3.6-4,8-8.4,8-8.4l9.5-9.5,9.5,9.5s4.3,4.5,8,8.4h0a4.74,4.74,0,0,0-1.2,1.8,3.1,3.1,0,0,0,1.5,3.2,2.63,2.63,0,0,0,3-.2h0c1.5,1.3,4.7,10.6,4.7,10.6s6,15.3,6.4,16a.35.35,0,0,0,.1.2c.1.1.2.1.3.2h0a.48.48,0,0,0,.6-.2,37.72,37.72,0,0,1,7.6-5.5C84.6,89.3,83.3,87.1,83.3,87.1Zm-2.9-82,2.5-2.5H83l.3.3V3L80.8,5.5h-.1l-.3-.3ZM3.2,5.2l-.3.3H2.8L.3,3V2.9l.3-.3H.7L3.2,5.1ZM9.3,95.6a42.31,42.31,0,0,0-7.7-5.7A1.86,1.86,0,0,1,.5,87a44,44,0,0,1,3.1-4,5.35,5.35,0,0,1-1,2.2c-1.4,2.2-1.5,3.1,0,4.5a87.52,87.52,0,0,1,6.9,5.9ZM63.5,59.5a.74.74,0,0,1,.4.8.37.37,0,0,1-.1.3c-.3-.3-.5-.6-.7-.8l-.6-.6A2.65,2.65,0,0,1,63.5,59.5Zm-3.3-2.2,1.1,1.1c-.1.1-.2.1-.2.2s-.2.1.6.8h-.4a2.58,2.58,0,0,1-.8-.5l-.1-.1-1.1-1.1C59.3,57.5,59.8,57.4,60.2,57.3ZM48.8,37.2l.3.3a.45.45,0,0,1,0,.5l-2.6,2.6a3.55,3.55,0,0,0,.2-1s-.1,0,.2-.4ZM75.7,5.5l.1-1.2L77.2,4,80.8.3l.7.7L42.7,39.6l-.7-.7ZM34.6,38a.45.45,0,0,1,0-.5l.3-.3,1.9,1.9c.3.4.2.4.2.4a3,3,0,0,0,.2,1Zm-12,20.6-.2-.2,1.1-1.1c.4.1.9.2,1.2.3l-1.1,1.1-.1.1a6.13,6.13,0,0,1-.8.5h-.4C22.7,58.7,22.6,58.6,22.6,58.6Zm-2.5.9a2.24,2.24,0,0,1,1-.3,3.29,3.29,0,0,0-.6.6,5.72,5.72,0,0,0-.7.8.37.37,0,0,1-.1-.3A1.23,1.23,0,0,1,20.1,59.5Zm4.7,5.7a1.75,1.75,0,0,1,0,2.5,3.82,3.82,0,0,1-1.4,1.1,1.67,1.67,0,0,1-1.6-.5,1.14,1.14,0,0,1-.3-.8c.2-.3.4-.6.7-1a15.3,15.3,0,0,1,1.3,1.3c.1.3-.2.2-.2.2h-.1l.1.1c.6.1.4-.5.4-.5l-1.4-1.4c.2-.3.5-.7.8-1.1A1.51,1.51,0,0,1,24.8,65.2Zm4.8-8.5a25.89,25.89,0,0,1-3.2,3,20.29,20.29,0,0,0-3.3,3.6,5.88,5.88,0,0,1-1.8,2.8L19,68.4c-1.1-2.2.6-5.4.6-5.4l1.1-1.2h.1s.3-.1-.7,1a1,1,0,0,0-.2,1.1,1.68,1.68,0,0,0,2.8,0,6.89,6.89,0,0,1,.3-.8,1.41,1.41,0,0,0-.1-.9,3.37,3.37,0,0,0-1-1.5l.8-.8v-.3a2,2,0,0,0,1-.5l1.4-1.4a.35.35,0,0,1,.2.1v.1c-.1.2,0,.4.2.6a.59.59,0,0,0,1-.1.51.51,0,0,0-.1-.8.85.85,0,0,0-.6-.2l-.4-.1.1-.1a3,3,0,0,0,1,.2,7.38,7.38,0,0,1,2.1-1.7C29.8,55,29.6,56.7,29.6,56.7Zm-4.5.4-.2.2L23.8,57,38.4,42.5l.7.7ZM44.5,43.2l-2.7-2.7-.7-.7-.2-.2L2.1,1.1,2.8.4,6.4,4l1.4.3.1,1.2L41.6,38.9l.2.2.7.7,2.7,2.6L59.8,57l-1.2.3-.2-.2ZM61.9,68.3a1.52,1.52,0,0,1-1.6.5,3.82,3.82,0,0,1-1.4-1.1,1.75,1.75,0,0,1,0-2.5,1.36,1.36,0,0,1,1.6-.1,7.63,7.63,0,0,1,.8,1.1l-1.4,1.4s-.2.6.4.5l.1-.1-.1-.1s-.3.1-.2-.2a15.3,15.3,0,0,1,1.3-1.3c.3.4.5.8.7,1A1.49,1.49,0,0,1,61.9,68.3Zm2.7.2-2.3-2.3a5.88,5.88,0,0,1-1.8-2.8,20.29,20.29,0,0,0-3.3-3.6,25.89,25.89,0,0,1-3.2-3s-.2-1.7,1.1-1.1a7.38,7.38,0,0,1,2.1,1.7,1.53,1.53,0,0,0,1-.2l.1.1-.4.1a.73.73,0,0,0-.6.2.51.51,0,0,0-.1.8s.5.7,1,.1a.85.85,0,0,0,.2-.6v-.1a.35.35,0,0,1,.2-.1L60,59.1a1.42,1.42,0,0,0,1,.5v.3l.8.8a3.37,3.37,0,0,0-1,1.5,1.41,1.41,0,0,0-.1.9,1.71,1.71,0,0,0,3.1.8.82.82,0,0,0-.2-1.1c-1-1.1-.7-1-.7-1H63L64.1,63C64,63,65.8,66.2,64.6,68.5ZM82.1,89.9a42.31,42.31,0,0,0-7.7,5.7h-.2a69.49,69.49,0,0,1,6.9-5.9c1.5-1.3,1.4-2.2,0-4.5a4.86,4.86,0,0,1-1-2.2,44,44,0,0,1,3.1,4C83.1,87,84.5,89.1,82.1,89.9Z"/></g></g></svg>