<?xml version="1.0" encoding="UTF-8" standalone="no"?>
<!-- Generator: Adobe Illustrator 18.0.0, SVG Export Plug-In . SVG Version: 6.00 Build 0)  -->

<svg
   xmlns:dc="http://purl.org/dc/elements/1.1/"
   xmlns:cc="http://creativecommons.org/ns#"
   xmlns:rdf="http://www.w3.org/1999/02/22-rdf-syntax-ns#"
   xmlns:svg="http://www.w3.org/2000/svg"
   xmlns="http://www.w3.org/2000/svg"
   xmlns:sodipodi="http://sodipodi.sourceforge.net/DTD/sodipodi-0.dtd"
   xmlns:inkscape="http://www.inkscape.org/namespaces/inkscape"
   version="1.1"
   id="Capa_1"
   x="0px"
   y="0px"
   viewBox="0 0 378.12133 378.12133"
   xml:space="preserve"
   sodipodi:docname="presse.svg"
   inkscape:version="0.92.4 (5da689c313, 2019-01-14)"
   width="378.12134"
   height="378.12134"><metadata
   id="metadata10394"><rdf:RDF><cc:Work
       rdf:about=""><dc:format>image/svg+xml</dc:format><dc:type
         rdf:resource="http://purl.org/dc/dcmitype/StillImage" /></cc:Work></rdf:RDF></metadata><defs
   id="defs10392" /><sodipodi:namedview
   pagecolor="#ffffff"
   bordercolor="#666666"
   borderopacity="1"
   objecttolerance="10"
   gridtolerance="10"
   guidetolerance="10"
   inkscape:pageopacity="0"
   inkscape:pageshadow="2"
   inkscape:window-width="1920"
   inkscape:window-height="1017"
   id="namedview10390"
   showgrid="false"
   inkscape:zoom="0.94943072"
   inkscape:cx="216.97214"
   inkscape:cy="192.74709"
   inkscape:window-x="-8"
   inkscape:window-y="-8"
   inkscape:window-maximized="1"
   inkscape:current-layer="Capa_1" />
<circle
   style="opacity:1;fill:#e37d55;fill-opacity:1;stroke:none;stroke-width:8.56062984;stroke-linecap:square;stroke-linejoin:round;stroke-miterlimit:4;stroke-dasharray:none;stroke-dashoffset:0;stroke-opacity:0.97894736;paint-order:normal"
   id="path10939"
   cx="189.06067"
   cy="189.06067"
   r="189.06067" /><g
   id="g10357"
   transform="translate(71.62188,61.089241)">
	<path
   d="M 241.07,42.767 H 214.361 V 17.745 c 0,-4.142 -3.358,-7.5 -7.5,-7.5 H 7.5 c -4.142,0 -7.5,3.358 -7.5,7.5 V 213.72 c 0,13.567 11.038,24.605 24.605,24.605 h 199.359 c 13.567,0 24.605,-11.038 24.605,-24.605 V 50.267 c 0.001,-4.142 -3.357,-7.5 -7.499,-7.5 z M 15,25.245 H 199.361 V 50.266 213.72 c 0,3.406 0.696,6.653 1.953,9.605 H 24.605 C 19.309,223.325 15,219.016 15,213.72 Z m 208.965,198.08 c -5.295,0 -9.604,-4.309 -9.604,-9.605 V 57.767 H 233.57 V 213.72 c 0,5.296 -4.309,9.605 -9.605,9.605 z"
   id="path10345"
   inkscape:connector-curvature="0" />
	<path
   d="m 32.422,107.085 h 149.52 c 4.142,0 7.5,-3.358 7.5,-7.5 V 49.461 c 0,-4.142 -3.358,-7.5 -7.5,-7.5 H 32.422 c -4.142,0 -7.5,3.358 -7.5,7.5 v 50.124 c 0,4.142 3.358,7.5 7.5,7.5 z m 7.5,-50.124 h 134.52 V 92.085 H 39.922 Z"
   id="path10347"
   inkscape:connector-curvature="0" />
	<path
   d="M 32.422,205.672 H 97.73 c 4.142,0 7.5,-3.358 7.5,-7.5 v -65.313 c 0,-4.142 -3.358,-7.5 -7.5,-7.5 H 32.422 c -4.142,0 -7.5,3.358 -7.5,7.5 v 65.313 c 0,4.142 3.358,7.5 7.5,7.5 z m 7.5,-65.314 H 90.23 v 50.313 H 39.922 Z"
   id="path10349"
   inkscape:connector-curvature="0" />
	<path
   d="m 181.941,125.358 h -63.16 c -4.142,0 -7.5,3.358 -7.5,7.5 0,4.142 3.358,7.5 7.5,7.5 h 63.16 c 4.142,0 7.5,-3.358 7.5,-7.5 0,-4.142 -3.358,-7.5 -7.5,-7.5 z"
   id="path10351"
   inkscape:connector-curvature="0" />
	<path
   d="m 181.941,190.672 h -63.16 c -4.142,0 -7.5,3.358 -7.5,7.5 0,4.142 3.358,7.5 7.5,7.5 h 63.16 c 4.142,0 7.5,-3.358 7.5,-7.5 0,-4.142 -3.358,-7.5 -7.5,-7.5 z"
   id="path10353"
   inkscape:connector-curvature="0" />
	<path
   d="m 181.941,158.011 h -63.16 c -4.142,0 -7.5,3.358 -7.5,7.5 0,4.142 3.358,7.5 7.5,7.5 h 63.16 c 4.142,0 7.5,-3.358 7.5,-7.5 0,-4.142 -3.358,-7.5 -7.5,-7.5 z"
   id="path10355"
   inkscape:connector-curvature="0" />
</g>
<g
   id="g10359"
   transform="translate(71.62188,61.089241)">
</g>
<g
   id="g10361"
   transform="translate(71.62188,61.089241)">
</g>
<g
   id="g10363"
   transform="translate(71.62188,61.089241)">
</g>
<g
   id="g10365"
   transform="translate(71.62188,61.089241)">
</g>
<g
   id="g10367"
   transform="translate(71.62188,61.089241)">
</g>
<g
   id="g10369"
   transform="translate(71.62188,61.089241)">
</g>
<g
   id="g10371"
   transform="translate(71.62188,61.089241)">
</g>
<g
   id="g10373"
   transform="translate(71.62188,61.089241)">
</g>
<g
   id="g10375"
   transform="translate(71.62188,61.089241)">
</g>
<g
   id="g10377"
   transform="translate(71.62188,61.089241)">
</g>
<g
   id="g10379"
   transform="translate(71.62188,61.089241)">
</g>
<g
   id="g10381"
   transform="translate(71.62188,61.089241)">
</g>
<g
   id="g10383"
   transform="translate(71.62188,61.089241)">
</g>
<g
   id="g10385"
   transform="translate(71.62188,61.089241)">
</g>
<g
   id="g10387"
   transform="translate(71.62188,61.089241)">
</g>
</svg>