<?xml version="1.0" encoding="UTF-8" standalone="no"?>
<!-- Generator: Adobe Illustrator 19.0.0, SVG Export Plug-In . SVG Version: 6.00 Build 0)  -->

<svg
   xmlns:dc="http://purl.org/dc/elements/1.1/"
   xmlns:cc="http://creativecommons.org/ns#"
   xmlns:rdf="http://www.w3.org/1999/02/22-rdf-syntax-ns#"
   xmlns:svg="http://www.w3.org/2000/svg"
   xmlns="http://www.w3.org/2000/svg"
   xmlns:sodipodi="http://sodipodi.sourceforge.net/DTD/sodipodi-0.dtd"
   xmlns:inkscape="http://www.inkscape.org/namespaces/inkscape"
   version="1.1"
   id="Layer_1"
   x="0px"
   y="0px"
   viewBox="0 0 759.32499 759.32499"
   xml:space="preserve"
   sodipodi:docname="religion.svg"
   inkscape:version="0.92.4 (5da689c313, 2019-01-14)"
   width="759.32501"
   height="759.32501"><metadata
   id="metadata9745"><rdf:RDF><cc:Work
       rdf:about=""><dc:format>image/svg+xml</dc:format><dc:type
         rdf:resource="http://purl.org/dc/dcmitype/StillImage" /></cc:Work></rdf:RDF></metadata><defs
   id="defs9743" /><sodipodi:namedview
   pagecolor="#ffffff"
   bordercolor="#666666"
   borderopacity="1"
   objecttolerance="10"
   gridtolerance="10"
   guidetolerance="10"
   inkscape:pageopacity="0"
   inkscape:pageshadow="2"
   inkscape:window-width="1920"
   inkscape:window-height="1017"
   id="namedview9741"
   showgrid="false"
   inkscape:zoom="0.46093569"
   inkscape:cx="384.0015"
   inkscape:cy="401.35748"
   inkscape:window-x="-8"
   inkscape:window-y="-8"
   inkscape:window-maximized="1"
   inkscape:current-layer="Layer_1" />
<circle
   style="opacity:1;fill:#7ec86c;fill-opacity:1;stroke:none;stroke-width:8.56062984;stroke-linecap:square;stroke-linejoin:round;stroke-miterlimit:4;stroke-dasharray:none;stroke-dashoffset:0;stroke-opacity:0.97894736;paint-order:normal"
   id="path10290"
   cx="379.66251"
   cy="379.66251"
   r="379.66251" /><g
   id="g9708"
   transform="translate(128.00049,101.96652)">
	<g
   id="g9706">
		<path
   d="m 483.197,425.03 -27.412,-24.095 c 2.417,-4.505 3.699,-9.565 3.699,-14.821 0,-8.395 -3.27,-16.287 -9.205,-22.221 -5.935,-5.937 -13.827,-9.205 -22.221,-9.205 -0.355,0 -0.707,0.014 -1.06,0.026 0.011,-0.354 0.026,-0.706 0.026,-1.061 0,-8.394 -3.27,-16.285 -9.205,-22.222 -5.936,-5.936 -13.828,-9.204 -22.222,-9.204 -7.651,0 -14.879,2.723 -20.594,7.698 L 354.19,311.629 c -13.591,-11.947 -20.479,-29.813 -18.425,-47.79 l 6.649,-58.213 c 3.075,-26.922 -1.106,-54.245 -12.092,-79.015 L 278.454,9.661 c -3.141,-7.079 -10.625,-10.903 -18.2,-9.297 -1.566,0.331 -3.027,0.883 -4.371,1.603 -1.342,-0.722 -2.801,-1.276 -4.365,-1.608 -7.528,-1.595 -14.976,2.231 -18.115,9.31 l -51.721,116.939 c -10.986,24.77 -15.167,52.092 -12.093,79.015 l 6.649,58.213 c 2.054,17.977 -4.834,35.843 -18.425,47.79 l -23.689,20.823 -1.02,-1.02 c -5.936,-5.936 -13.828,-9.204 -22.222,-9.204 -8.394,0 -16.287,3.27 -22.221,9.204 -5.936,5.937 -9.205,13.828 -9.205,22.222 0,0.355 0.015,0.707 0.026,1.061 -0.352,-0.011 -0.705,-0.026 -1.06,-0.026 -8.394,0 -16.287,3.269 -22.221,9.204 -5.936,5.936 -9.205,13.827 -9.205,22.222 0,6.52 1.982,12.733 5.644,17.966 l -23.833,20.95 c -3.515,3.089 -3.859,8.444 -0.771,11.957 1.675,1.907 4.015,2.88 6.367,2.88 1.986,0 3.981,-0.695 5.591,-2.109 l 24.283,-21.346 56.587,56.587 -20.88,25.111 c -2.992,3.598 -2.5,8.94 1.097,11.932 1.583,1.316 3.503,1.958 5.414,1.958 2.43,0 4.844,-1.04 6.52,-3.056 l 20.595,-24.769 c 4.692,2.685 10.02,4.124 15.57,4.124 8.394,0 16.286,-3.27 22.222,-9.205 6.399,-6.4 9.449,-14.895 9.163,-23.297 0.358,0.012 0.716,0.026 1.074,0.026 8.048,0 16.096,-3.063 22.222,-9.189 5.936,-5.937 9.205,-13.828 9.205,-22.222 0,-8.395 -3.269,-16.287 -9.205,-22.222 l -1.144,-1.144 c 0.242,-0.229 0.473,-0.473 0.691,-0.735 l 36.097,-43.43 c 6.815,-8.184 12.312,-17.33 16.395,-27.079 4.103,9.725 9.619,18.871 16.454,27.079 l 34.338,41.234 -4.077,4.077 c -5.936,5.936 -9.204,13.827 -9.204,22.222 0,8.394 3.27,16.285 9.204,22.222 6.127,6.127 14.174,9.189 22.222,9.189 0.358,0 0.716,-0.014 1.074,-0.026 -0.285,8.403 2.764,16.898 9.165,23.298 6.127,6.127 14.174,9.189 22.222,9.189 6.728,0 13.452,-2.149 19.058,-6.432 l 22.319,27.067 c 1.675,2.032 4.099,3.083 6.542,3.083 1.898,0 3.807,-0.635 5.385,-1.936 3.611,-2.977 4.124,-8.317 1.147,-11.928 l -23.172,-28.1 56.208,-56.208 27.223,23.929 c 1.61,1.416 3.604,2.109 5.591,2.109 2.352,0 4.692,-0.974 6.367,-2.88 3.09,-3.515 2.746,-8.869 -0.769,-11.958 z m -323.778,42.08 c -2.735,2.735 -6.372,4.242 -10.239,4.242 -3.867,0 -7.504,-1.506 -10.239,-4.241 V 467.11 L 68.182,396.351 c -2.735,-2.735 -4.241,-6.372 -4.241,-10.239 0,-3.868 1.506,-7.505 4.241,-10.239 2.735,-2.735 6.372,-4.242 10.239,-4.242 3.867,0 7.504,1.506 10.239,4.242 l 42.455,42.454 28.304,28.304 c 0.002,0.002 0.005,0.005 0.007,0.007 5.638,5.648 5.636,14.829 -0.007,20.472 z m 32.461,-32.462 c -5.645,5.647 -14.83,5.648 -20.478,0 l -70.759,-70.759 c -2.734,-2.734 -4.241,-6.371 -4.241,-10.239 0,-3.867 1.506,-7.504 4.242,-10.239 2.734,-2.735 6.371,-4.241 10.239,-4.241 3.868,0 7.505,1.507 10.239,4.242 l 70.759,70.759 c 2.734,2.734 4.241,6.371 4.241,10.239 0,3.867 -1.507,7.503 -4.242,10.238 z M 247.387,88.003 c -21.561,23.786 -34.568,51.107 -37.632,79.255 -0.609,5.592 -0.837,11.303 -0.679,16.97 0.128,4.597 3.895,8.237 8.465,8.237 0.079,0 0.16,-0.001 0.241,-0.003 4.678,-0.13 8.365,-4.028 8.234,-8.706 -0.137,-4.901 0.061,-9.835 0.586,-14.664 2.339,-21.484 11.015,-39.663 20.784,-53.891 v 172.677 c 0,21.315 -7.424,41.969 -20.907,58.162 l -35.75,43.014 -44.596,-44.596 22.87,-20.103 c 17.756,-15.609 26.756,-38.953 24.074,-62.442 l -6.649,-58.212 c -2.733,-23.927 0.984,-48.209 10.75,-70.23 l 50.21,-113.517 v 68.049 z m 37.99,258.03 c -13.571,-16.298 -21.044,-36.951 -21.044,-58.157 l 10e-4,-173.086 c 9.884,14.288 18.706,32.609 21.068,54.299 0.526,4.833 0.724,9.768 0.586,14.663 -0.131,4.678 3.554,8.576 8.232,8.707 0.081,0.002 0.162,0.003 0.242,0.003 4.569,0 8.336,-3.64 8.465,-8.236 0.159,-5.665 -0.07,-11.373 -0.679,-16.971 -3.077,-28.27 -16.185,-55.705 -37.914,-79.564 V 19.62 l 50.495,113.858 c 9.763,22.013 13.479,46.296 10.746,70.221 l -6.649,58.212 c -2.683,23.49 6.316,46.832 24.074,62.441 l 19.93,17.519 -44.205,44.205 z m 29.221,88.616 c -2.734,-2.735 -4.241,-6.373 -4.241,-10.239 0,-3.868 1.506,-7.505 4.241,-10.239 l 70.759,-70.76 c 2.734,-2.735 6.371,-4.241 10.239,-4.241 3.868,0 7.505,1.507 10.239,4.242 2.734,2.735 4.241,6.372 4.241,10.239 0,3.868 -1.506,7.505 -4.241,10.239 l -70.758,70.759 c -5.645,5.644 -14.832,5.646 -20.479,0 z m 123.698,-38.297 c 0.001,0 -69.412,69.277 -70.937,70.92 -5.262,5.671 -14.711,5.426 -20.298,-0.163 -5.646,-5.645 -5.646,-14.833 0,-20.478 l 70.758,-70.758 c 2.823,-2.823 6.531,-4.235 10.239,-4.235 3.708,0 7.416,1.412 10.239,4.235 2.735,2.734 4.241,6.371 4.241,10.239 -0.001,3.868 -1.507,7.506 -4.242,10.24 z"
   id="path9704"
   inkscape:connector-curvature="0" />
	</g>
</g>
<g
   id="g9710"
   transform="translate(128.00049,101.96652)">
</g>
<g
   id="g9712"
   transform="translate(128.00049,101.96652)">
</g>
<g
   id="g9714"
   transform="translate(128.00049,101.96652)">
</g>
<g
   id="g9716"
   transform="translate(128.00049,101.96652)">
</g>
<g
   id="g9718"
   transform="translate(128.00049,101.96652)">
</g>
<g
   id="g9720"
   transform="translate(128.00049,101.96652)">
</g>
<g
   id="g9722"
   transform="translate(128.00049,101.96652)">
</g>
<g
   id="g9724"
   transform="translate(128.00049,101.96652)">
</g>
<g
   id="g9726"
   transform="translate(128.00049,101.96652)">
</g>
<g
   id="g9728"
   transform="translate(128.00049,101.96652)">
</g>
<g
   id="g9730"
   transform="translate(128.00049,101.96652)">
</g>
<g
   id="g9732"
   transform="translate(128.00049,101.96652)">
</g>
<g
   id="g9734"
   transform="translate(128.00049,101.96652)">
</g>
<g
   id="g9736"
   transform="translate(128.00049,101.96652)">
</g>
<g
   id="g9738"
   transform="translate(128.00049,101.96652)">
</g>
</svg>