<?xml version="1.0" encoding="UTF-8" standalone="no"?>
<svg
   xmlns:dc="http://purl.org/dc/elements/1.1/"
   xmlns:cc="http://creativecommons.org/ns#"
   xmlns:rdf="http://www.w3.org/1999/02/22-rdf-syntax-ns#"
   xmlns:svg="http://www.w3.org/2000/svg"
   xmlns="http://www.w3.org/2000/svg"
   xmlns:sodipodi="http://sodipodi.sourceforge.net/DTD/sodipodi-0.dtd"
   xmlns:inkscape="http://www.inkscape.org/namespaces/inkscape"
   viewBox="0 0 131.25 129.75"
   version="1.1"
   id="svg34999"
   sodipodi:docname="resistance.svg"
   inkscape:version="0.92.4 (5da689c313, 2019-01-14)"
   width="131.25"
   height="129.75">
  <metadata
     id="metadata35005">
    <rdf:RDF>
      <cc:Work
         rdf:about="">
        <dc:format>image/svg+xml</dc:format>
        <dc:type
           rdf:resource="http://purl.org/dc/dcmitype/StillImage" />
        <dc:title>Fichier 1</dc:title>
      </cc:Work>
    </rdf:RDF>
  </metadata>
  <defs
     id="defs35003" />
  <sodipodi:namedview
     pagecolor="#ffffff"
     bordercolor="#666666"
     borderopacity="1"
     objecttolerance="10"
     gridtolerance="10"
     guidetolerance="10"
     inkscape:pageopacity="0"
     inkscape:pageshadow="2"
     inkscape:window-width="1920"
     inkscape:window-height="1017"
     id="namedview35001"
     showgrid="false"
     inkscape:zoom="4"
     inkscape:cx="34.901805"
     inkscape:cy="76.791616"
     inkscape:window-x="-8"
     inkscape:window-y="-8"
     inkscape:window-maximized="1"
     inkscape:current-layer="svg34999" />
  <title
     id="title34993">Fichier 1</title>
  <ellipse
     style="opacity:1;fill:#c2363f;fill-opacity:1;stroke:none;stroke-width:9.02742386;stroke-linecap:square;stroke-linejoin:round;stroke-miterlimit:4;stroke-dasharray:none;stroke-dashoffset:0;stroke-opacity:0.97894736;paint-order:normal"
     id="path35556"
     cx="65.625"
     cy="64.875"
     rx="65.625"
     ry="64.875" />
  <g
     id="Calque_2"
     data-name="Calque 2"
     transform="translate(23.25,18.610001)">
    <g
       id="Calque_1-2"
       data-name="Calque 1">
      <path
         d="M 83.3,87.1 C 82.4,85.9 81.4,84.3 80.2,82.8 76.8,78.8 72.5,74.7 71,73.2 A 0.66,0.66 0 0 0 70.3,73 1.32,1.32 0 0 1 68.8,72.5 6.27,6.27 0 0 1 67.6,70.7 9.47,9.47 0 0 1 66.9,67.8 12,12 0 0 0 64.6,61.6 0.66,0.66 0 0 0 65,61.1 c 0.3,-1 0.5,-3.5 1.8,-3.7 0,0 -1.5,-1.2 -2,0.8 0,0 0.2,0.8 -0.6,0.1 -0.8,-0.7 -1.4,-1.2 -2.7,-0.1 l -1,-1 a 3.75,3.75 0 0 1 0.8,-0.1 9.2,9.2 0 0 1 0.9,-4.7 c 0.2,-0.4 -0.4,0 -0.4,0 a 9,9 0 0 0 -1,4.4 L 60.1,57 45.4,42.3 45.6,42.1 a 4.24,4.24 0 0 0 0.7,-1 l 3,-3 a 0.48,0.48 0 0 0 0,-0.7 l 10.8,-10.9 0.2,0.2 h 0.1 l 2.8,-2.8 v -0.1 l -0.3,-0.2 9.7,-9.8 0.1,0.1 h 0.1 l 2.8,-2.8 V 11 l -0.1,-0.1 5.1,-5.1 0.1,0.1 h 0.1 L 83.6,3 V 2.9 L 83,2.3 h -0.1 l -1.1,1 V 3.4 L 80,5.2 v 0 l 0.1,0.1 -5.1,5.1 -0.1,0.2 0.4,0.4 v 0.1 l -2.5,2.5 h -0.1 l -0.4,-0.4 -0.2,0.2 -9.7,9.7 -0.2,0.2 0.5,0.5 v 0.1 l -2.5,2.5 H 60.1 L 59.6,25.9 V 26 L 47.8,37.8 c 0.9,-1.1 2.5,-2.8 5.2,-5.6 0,-0.1 0.1,-0.1 0.2,-0.2 l 0.5,-0.5 c 0,-0.1 0.1,-0.1 0.2,-0.2 l 0.6,-0.6 c 0.1,-0.1 0.2,-0.3 0.4,-0.4 0.6,-0.5 1.1,-1.1 1.8,-1.8 L 80.1,5.2 v 0 l 1.8,-1.9 a 2.07,2.07 0 0 0 0,-2.3 c 0,0 -0.2,-0.1 -0.3,0 V 0.7 L 80.9,0 77.1,3.8 75.8,4 75.5,4.3 75.3,5.6 41.8,38.7 8.3,5.5 8.1,4.2 7.8,3.9 6.5,3.7 2.7,0 2,0.7 V 1 C 1.9,0.9 1.8,1 1.7,1 a 2.07,2.07 0 0 0 0,2.3 l 1.8,1.8 v 0 l 23.4,23.4 1.8,1.8 c 0.1,0.1 0.2,0.3 0.4,0.4 l 0.6,0.6 0.2,0.2 0.5,0.5 0.2,0.2 c 2.8,2.8 4.3,4.6 5.2,5.6 L 24.1,26 23.9,25.8 23.4,26.3 H 23.3 L 20.8,23.8 V 23.7 L 21.3,23.2 21.1,23 11.4,13.3 11.2,13.1 10.9,13.6 H 10.8 L 8.3,11.1 V 11 L 8.7,10.6 8.5,10.4 3.4,5.3 3.5,5.2 v 0 L 1.8,3.4 1.7,3.3 0.7,2.3 H 0.6 L 0,2.9 V 3 L 2.8,5.8 H 2.9 L 3,5.7 8.1,10.8 7.9,11 v 0.1 l 2.9,2.8 h 0.1 l 0.1,-0.1 9.7,9.8 -0.2,0.2 v 0.1 l 2.8,2.8 h 0.1 l 0.2,-0.2 10.8,10.9 a 0.48,0.48 0 0 0 0,0.7 l 3,3 a 2.57,2.57 0 0 0 0.7,1 l 0.2,0.2 -14.8,14.6 -0.6,-0.2 a 7.76,7.76 0 0 0 -1,-4.4 c 0,0 -0.6,-0.4 -0.4,0 a 9.58,9.58 0 0 1 0.9,4.7 2.77,2.77 0 0 0 0.8,0.1 l -1,1 a 1.78,1.78 0 0 0 -2.7,0.1 c -0.8,0.7 -0.6,-0.1 -0.6,-0.1 -0.6,-2 -2,-0.8 -2,-0.8 1.3,0.2 1.5,2.7 1.8,3.7 a 1,1 0 0 0 0.4,0.5 12.4,12.4 0 0 0 -2.3,6.2 9.47,9.47 0 0 1 -0.7,2.9 7.84,7.84 0 0 1 -1.1,1.8 1.32,1.32 0 0 1 -1.5,0.5 0.62,0.62 0 0 0 -0.7,0.2 C 11.4,74.6 7,78.7 3.6,82.7 2.4,84.2 1.4,85.7 0.5,87 a 1.86,1.86 0 0 0 1.1,2.9 41.41,41.41 0 0 1 7.6,5.5 0.73,0.73 0 0 0 0.6,0.2 v 0 c 0.1,0 0.2,-0.1 0.3,-0.2 a 0.35,0.35 0 0 0 0.1,-0.2 c 0.4,-0.7 6.4,-16 6.4,-16 0,0 3.3,-9.3 4.7,-10.6 v 0 a 2.61,2.61 0 0 0 3,0.2 2.9,2.9 0 0 0 1.5,-3.2 4.07,4.07 0 0 0 -1.2,-1.8 v 0 c 3.6,-4 8,-8.4 8,-8.4 l 9.5,-9.5 9.5,9.5 c 0,0 4.3,4.5 8,8.4 v 0 a 4.74,4.74 0 0 0 -1.2,1.8 3.1,3.1 0 0 0 1.5,3.2 2.63,2.63 0 0 0 3,-0.2 v 0 c 1.5,1.3 4.7,10.6 4.7,10.6 0,0 6,15.3 6.4,16 a 0.35,0.35 0 0 0 0.1,0.2 c 0.1,0.1 0.2,0.1 0.3,0.2 v 0 a 0.48,0.48 0 0 0 0.6,-0.2 37.72,37.72 0 0 1 7.6,-5.5 c 2,-0.6 0.7,-2.8 0.7,-2.8 z M 80.4,5.1 82.9,2.6 H 83 l 0.3,0.3 V 3 L 80.8,5.5 H 80.7 L 80.4,5.2 Z M 3.2,5.2 2.9,5.5 H 2.8 L 0.3,3 V 2.9 L 0.6,2.6 H 0.7 L 3.2,5.1 Z M 9.3,95.6 A 42.31,42.31 0 0 0 1.6,89.9 1.86,1.86 0 0 1 0.5,87 a 44,44 0 0 1 3.1,-4 5.35,5.35 0 0 1 -1,2.2 c -1.4,2.2 -1.5,3.1 0,4.5 a 87.52,87.52 0 0 1 6.9,5.9 z M 63.5,59.5 a 0.74,0.74 0 0 1 0.4,0.8 0.37,0.37 0 0 1 -0.1,0.3 C 63.5,60.3 63.3,60 63.1,59.8 l -0.6,-0.6 a 2.65,2.65 0 0 1 1,0.3 z m -3.3,-2.2 1.1,1.1 c -0.1,0.1 -0.2,0.1 -0.2,0.2 0,0.1 -0.2,0.1 0.6,0.8 h -0.4 a 2.58,2.58 0 0 1 -0.8,-0.5 l -0.1,-0.1 -1.1,-1.1 c 0,-0.2 0.5,-0.3 0.9,-0.4 z m -11.4,-20.1 0.3,0.3 a 0.45,0.45 0 0 1 0,0.5 l -2.6,2.6 a 3.55,3.55 0 0 0 0.2,-1 c 0,0 -0.1,0 0.2,-0.4 z M 75.7,5.5 75.8,4.3 77.2,4 80.8,0.3 81.5,1 42.7,39.6 42,38.9 Z M 34.6,38 a 0.45,0.45 0 0 1 0,-0.5 l 0.3,-0.3 1.9,1.9 c 0.3,0.4 0.2,0.4 0.2,0.4 a 3,3 0 0 0 0.2,1 z m -12,20.6 -0.2,-0.2 1.1,-1.1 c 0.4,0.1 0.9,0.2 1.2,0.3 l -1.1,1.1 -0.1,0.1 a 6.13,6.13 0 0 1 -0.8,0.5 h -0.4 c 0.4,-0.6 0.3,-0.7 0.3,-0.7 z m -2.5,0.9 a 2.24,2.24 0 0 1 1,-0.3 3.29,3.29 0 0 0 -0.6,0.6 5.72,5.72 0 0 0 -0.7,0.8 0.37,0.37 0 0 1 -0.1,-0.3 1.23,1.23 0 0 1 0.4,-0.8 z m 4.7,5.7 a 1.75,1.75 0 0 1 0,2.5 3.82,3.82 0 0 1 -1.4,1.1 1.67,1.67 0 0 1 -1.6,-0.5 1.14,1.14 0 0 1 -0.3,-0.8 c 0.2,-0.3 0.4,-0.6 0.7,-1 a 15.3,15.3 0 0 1 1.3,1.3 c 0.1,0.3 -0.2,0.2 -0.2,0.2 h -0.1 l 0.1,0.1 c 0.6,0.1 0.4,-0.5 0.4,-0.5 l -1.4,-1.4 c 0.2,-0.3 0.5,-0.7 0.8,-1.1 a 1.51,1.51 0 0 1 1.7,0.1 z m 4.8,-8.5 a 25.89,25.89 0 0 1 -3.2,3 20.29,20.29 0 0 0 -3.3,3.6 5.88,5.88 0 0 1 -1.8,2.8 L 19,68.4 C 17.9,66.2 19.6,63 19.6,63 l 1.1,-1.2 h 0.1 c 0,0 0.3,-0.1 -0.7,1 a 1,1 0 0 0 -0.2,1.1 1.68,1.68 0 0 0 2.8,0 6.89,6.89 0 0 1 0.3,-0.8 1.41,1.41 0 0 0 -0.1,-0.9 3.37,3.37 0 0 0 -1,-1.5 l 0.8,-0.8 v -0.3 a 2,2 0 0 0 1,-0.5 l 1.4,-1.4 a 0.35,0.35 0 0 1 0.2,0.1 v 0.1 c -0.1,0.2 0,0.4 0.2,0.6 a 0.59,0.59 0 0 0 1,-0.1 0.51,0.51 0 0 0 -0.1,-0.8 0.85,0.85 0 0 0 -0.6,-0.2 l -0.4,-0.1 0.1,-0.1 a 3,3 0 0 0 1,0.2 7.38,7.38 0 0 1 2.1,-1.7 c 1.2,-0.7 1,1 1,1 z m -4.5,0.4 -0.2,0.2 -1.1,-0.3 14.6,-14.5 0.7,0.7 z M 44.5,43.2 41.8,40.5 41.1,39.8 40.9,39.6 2.1,1.1 2.8,0.4 6.4,4 l 1.4,0.3 0.1,1.2 33.7,33.4 0.2,0.2 0.7,0.7 2.7,2.6 14.6,14.6 -1.2,0.3 -0.2,-0.2 z m 17.4,25.1 a 1.52,1.52 0 0 1 -1.6,0.5 3.82,3.82 0 0 1 -1.4,-1.1 1.75,1.75 0 0 1 0,-2.5 1.36,1.36 0 0 1 1.6,-0.1 7.63,7.63 0 0 1 0.8,1.1 l -1.4,1.4 c 0,0 -0.2,0.6 0.4,0.5 L 60.4,68 60.3,67.9 c 0,0 -0.3,0.1 -0.2,-0.2 a 15.3,15.3 0 0 1 1.3,-1.3 c 0.3,0.4 0.5,0.8 0.7,1 a 1.49,1.49 0 0 1 -0.2,0.9 z m 2.7,0.2 -2.3,-2.3 a 5.88,5.88 0 0 1 -1.8,-2.8 20.29,20.29 0 0 0 -3.3,-3.6 25.89,25.89 0 0 1 -3.2,-3 c 0,0 -0.2,-1.7 1.1,-1.1 a 7.38,7.38 0 0 1 2.1,1.7 1.53,1.53 0 0 0 1,-0.2 l 0.1,0.1 -0.4,0.1 a 0.73,0.73 0 0 0 -0.6,0.2 0.51,0.51 0 0 0 -0.1,0.8 c 0,0 0.5,0.7 1,0.1 a 0.85,0.85 0 0 0 0.2,-0.6 v -0.1 a 0.35,0.35 0 0 1 0.2,-0.1 l 1.4,1.4 a 1.42,1.42 0 0 0 1,0.5 v 0.3 l 0.8,0.8 a 3.37,3.37 0 0 0 -1,1.5 1.41,1.41 0 0 0 -0.1,0.9 1.71,1.71 0 0 0 3.1,0.8 0.82,0.82 0 0 0 -0.2,-1.1 c -1,-1.1 -0.7,-1 -0.7,-1 H 63 l 1.1,1.2 c -0.1,0 1.7,3.2 0.5,5.5 z m 17.5,21.4 a 42.31,42.31 0 0 0 -7.7,5.7 h -0.2 a 69.49,69.49 0 0 1 6.9,-5.9 c 1.5,-1.3 1.4,-2.2 0,-4.5 a 4.86,4.86 0 0 1 -1,-2.2 44,44 0 0 1 3.1,4 c -0.1,0 1.3,2.1 -1.1,2.9 z"
         id="path34995"
         inkscape:connector-curvature="0" />
    </g>
  </g>
</svg>
