<?xml version="1.0" encoding="UTF-8" standalone="no"?>
<!-- Generator: Adobe Illustrator 19.0.0, SVG Export Plug-In . SVG Version: 6.00 Build 0)  -->

<svg
   xmlns:dc="http://purl.org/dc/elements/1.1/"
   xmlns:cc="http://creativecommons.org/ns#"
   xmlns:rdf="http://www.w3.org/1999/02/22-rdf-syntax-ns#"
   xmlns:svg="http://www.w3.org/2000/svg"
   xmlns="http://www.w3.org/2000/svg"
   xmlns:sodipodi="http://sodipodi.sourceforge.net/DTD/sodipodi-0.dtd"
   xmlns:inkscape="http://www.inkscape.org/namespaces/inkscape"
   version="1.1"
   id="Capa_1"
   x="0px"
   y="0px"
   viewBox="0 0 88.720337 88.720337"
   xml:space="preserve"
   sodipodi:docname="strategie.svg"
   width="88.720337"
   height="88.720337"
   inkscape:version="0.92.4 (5da689c313, 2019-01-14)"><metadata
   id="metadata37483"><rdf:RDF><cc:Work
       rdf:about=""><dc:format>image/svg+xml</dc:format><dc:type
         rdf:resource="http://purl.org/dc/dcmitype/StillImage" /></cc:Work></rdf:RDF></metadata><defs
   id="defs37481" /><sodipodi:namedview
   pagecolor="#ffffff"
   bordercolor="#666666"
   borderopacity="1"
   objecttolerance="10"
   gridtolerance="10"
   guidetolerance="10"
   inkscape:pageopacity="0"
   inkscape:pageshadow="2"
   inkscape:window-width="1920"
   inkscape:window-height="1017"
   id="namedview37479"
   showgrid="false"
   inkscape:zoom="4.0689655"
   inkscape:cx="-0.61440711"
   inkscape:cy="45.220337"
   inkscape:window-x="-8"
   inkscape:window-y="-8"
   inkscape:window-maximized="1"
   inkscape:current-layer="Capa_1" />
<circle
   style="opacity:1;fill:#78f4fc;fill-opacity:1;stroke:none;stroke-width:8.56062984;stroke-linecap:square;stroke-linejoin:round;stroke-miterlimit:4;stroke-dasharray:none;stroke-dashoffset:0;stroke-opacity:0.97894736;paint-order:normal"
   id="path38030"
   cx="44.360168"
   cy="44.360168"
   r="44.360168" /><g
   id="g37446"
   transform="translate(15.237288,14.5)">
	<path
   d="m 51,1.5 c -3.519,0 -6.432,2.613 -6.92,6 H 13.92 C 13.432,4.113 10.519,1.5 7,1.5 3.141,1.5 0,4.64 0,8.5 v 41 c 0,3.86 3.141,7 7,7 h 44 c 3.859,0 7,-3.14 7,-7 v -41 c 0,-3.86 -3.141,-7 -7,-7 z m -49,7 c 0,-2.757 2.243,-5 5,-5 2.757,0 5,2.243 5,5 V 44.605 C 10.729,43.307 8.957,42.5 7,42.5 c -1.957,0 -3.729,0.807 -5,2.105 z m 49,46 H 23 v -1 c 0,-0.552 -0.447,-1 -1,-1 -0.553,0 -1,0.448 -1,1 v 1 h -2 v -4 c 0,-0.552 -0.447,-1 -1,-1 -0.553,0 -1,0.448 -1,1 v 4 H 7 c -2.757,0 -5,-2.243 -5,-5 0,-2.757 2.243,-5 5,-5 2.757,0 5,2.243 5,5 h 2 v -40 h 20 v 4 c 0,0.552 0.447,1 1,1 0.553,0 1,-0.448 1,-1 v -4 h 2 v 2 c 0,0.552 0.447,1 1,1 0.553,0 1,-0.448 1,-1 v -2 h 4 v 40 h 2 c 0,-2.757 2.243,-5 5,-5 2.757,0 5,2.243 5,5 0,2.757 -2.243,5 -5,5 z m 5,-9.895 C 54.729,43.307 52.957,42.5 51,42.5 c -1.957,0 -3.729,0.807 -5,2.105 V 8.5 c 0,-2.757 2.243,-5 5,-5 2.757,0 5,2.243 5,5 z"
   id="path37432"
   inkscape:connector-curvature="0" />
	<path
   d="M 22.332,28.661 C 22.111,27.961 22,27.234 22,26.5 c 0,-0.552 -0.447,-1 -1,-1 -0.553,0 -1,0.448 -1,1 0,0.938 0.143,1.867 0.424,2.761 0.135,0.427 0.528,0.7 0.954,0.7 0.099,0 0.2,-0.015 0.3,-0.046 0.527,-0.166 0.82,-0.727 0.654,-1.254 z"
   id="path37434"
   inkscape:connector-curvature="0" />
	<path
   d="m 25.972,33.137 c -0.87,-0.521 -1.624,-1.168 -2.243,-1.921 -0.349,-0.426 -0.978,-0.489 -1.407,-0.138 -0.427,0.351 -0.488,0.981 -0.138,1.408 0.764,0.931 1.692,1.727 2.759,2.366 0.161,0.097 0.339,0.143 0.514,0.143 0.34,0 0.671,-0.173 0.858,-0.486 0.284,-0.474 0.13,-1.089 -0.343,-1.372 z"
   id="path37436"
   inkscape:connector-curvature="0" />
	<path
   d="M 33.761,34.924 C 32.867,34.643 31.938,34.5 31,34.5 c -0.766,0 -1.526,-0.085 -2.262,-0.254 -0.54,-0.128 -1.074,0.212 -1.198,0.751 -0.123,0.538 0.213,1.075 0.751,1.198 0.883,0.202 1.794,0.305 2.709,0.305 0.734,0 1.461,0.112 2.161,0.332 0.1,0.031 0.2,0.046 0.3,0.046 0.426,0 0.819,-0.273 0.954,-0.7 0.166,-0.527 -0.127,-1.088 -0.654,-1.254 z"
   id="path37438"
   inkscape:connector-curvature="0" />
	<path
   d="m 39.352,39.442 c -0.639,-1.065 -1.435,-1.993 -2.366,-2.759 -0.427,-0.351 -1.057,-0.288 -1.407,0.137 -0.351,0.427 -0.289,1.057 0.138,1.408 0.753,0.62 1.399,1.375 1.921,2.243 0.188,0.313 0.519,0.485 0.858,0.485 0.175,0 0.353,-0.046 0.514,-0.143 0.472,-0.283 0.626,-0.897 0.342,-1.371 z"
   id="path37440"
   inkscape:connector-curvature="0" />
	<path
   d="m 39.497,42.04 c -0.539,0.124 -0.875,0.66 -0.751,1.199 0.169,0.733 0.254,1.493 0.254,2.261 0,0.552 0.447,1 1,1 0.553,0 1,-0.448 1,-1 0,-0.918 -0.103,-1.83 -0.305,-2.709 -0.124,-0.539 -0.66,-0.873 -1.198,-0.751 z"
   id="path37442"
   inkscape:connector-curvature="0" />
	<polygon
   points="22.414,21.5 24.707,19.207 23.293,17.793 21,20.086 18.707,17.793 17.293,19.207 19.586,21.5 17.293,23.793 18.707,25.207 21,22.914 23.293,25.207 24.707,23.793 "
   id="polygon37444" />
</g>
<g
   id="g37448"
   transform="translate(15.237288,14.5)">
</g>
<g
   id="g37450"
   transform="translate(15.237288,14.5)">
</g>
<g
   id="g37452"
   transform="translate(15.237288,14.5)">
</g>
<g
   id="g37454"
   transform="translate(15.237288,14.5)">
</g>
<g
   id="g37456"
   transform="translate(15.237288,14.5)">
</g>
<g
   id="g37458"
   transform="translate(15.237288,14.5)">
</g>
<g
   id="g37460"
   transform="translate(15.237288,14.5)">
</g>
<g
   id="g37462"
   transform="translate(15.237288,14.5)">
</g>
<g
   id="g37464"
   transform="translate(15.237288,14.5)">
</g>
<g
   id="g37466"
   transform="translate(15.237288,14.5)">
</g>
<g
   id="g37468"
   transform="translate(15.237288,14.5)">
</g>
<g
   id="g37470"
   transform="translate(15.237288,14.5)">
</g>
<g
   id="g37472"
   transform="translate(15.237288,14.5)">
</g>
<g
   id="g37474"
   transform="translate(15.237288,14.5)">
</g>
<g
   id="g37476"
   transform="translate(15.237288,14.5)">
</g>
</svg>