<?xml version="1.0" encoding="UTF-8" standalone="no"?>
<!-- Generator: Adobe Illustrator 19.0.0, SVG Export Plug-In . SVG Version: 6.00 Build 0)  -->

<svg
   xmlns:dc="http://purl.org/dc/elements/1.1/"
   xmlns:cc="http://creativecommons.org/ns#"
   xmlns:rdf="http://www.w3.org/1999/02/22-rdf-syntax-ns#"
   xmlns:svg="http://www.w3.org/2000/svg"
   xmlns="http://www.w3.org/2000/svg"
   xmlns:sodipodi="http://sodipodi.sourceforge.net/DTD/sodipodi-0.dtd"
   xmlns:inkscape="http://www.inkscape.org/namespaces/inkscape"
   version="1.1"
   id="Layer_1"
   x="0px"
   y="0px"
   viewBox="0 0 804.88135 804.88135"
   xml:space="preserve"
   sodipodi:docname="technologie.svg"
   width="804.88135"
   height="804.88135"
   inkscape:version="0.92.4 (5da689c313, 2019-01-14)"><metadata
   id="metadata9114"><rdf:RDF><cc:Work
       rdf:about=""><dc:format>image/svg+xml</dc:format><dc:type
         rdf:resource="http://purl.org/dc/dcmitype/StillImage" /></cc:Work></rdf:RDF></metadata><defs
   id="defs9112" /><sodipodi:namedview
   pagecolor="#ffffff"
   bordercolor="#666666"
   borderopacity="1"
   objecttolerance="10"
   gridtolerance="10"
   guidetolerance="10"
   inkscape:pageopacity="0"
   inkscape:pageshadow="2"
   inkscape:window-width="1920"
   inkscape:window-height="1017"
   id="namedview9110"
   showgrid="false"
   inkscape:zoom="0.4609375"
   inkscape:cx="27.118637"
   inkscape:cy="433.89828"
   inkscape:window-x="-8"
   inkscape:window-y="-8"
   inkscape:window-maximized="1"
   inkscape:current-layer="Layer_1" />
<circle
   style="opacity:1;fill:#747389;fill-opacity:1;stroke:none;stroke-width:8.56062984;stroke-linecap:square;stroke-linejoin:round;stroke-miterlimit:4;stroke-dasharray:none;stroke-dashoffset:0;stroke-opacity:0.97894736;paint-order:normal"
   id="path9659"
   cx="402.44067"
   cy="402.44067"
   r="402.44067" /><g
   id="g9077"
   transform="translate(167.05084,114.98306)">
	<g
   id="g9075">
		<g
   id="g9073">
			<path
   d="m 196.791,384.287 c 1.397,-5.216 0.648,-10.654 -2.109,-15.315 l -6.196,-10.473 c -5.638,-9.533 -18.136,-12.834 -27.856,-7.354 l -8.008,4.512 c -6.527,-5.262 -13.922,-9.442 -21.82,-12.334 v -8.73 c 0,-11.127 -9.187,-20.179 -20.478,-20.179 H 97.931 c -11.292,0 -20.478,9.053 -20.478,20.179 v 8.73 c -7.899,2.891 -15.293,7.071 -21.82,12.334 l -8.008,-4.512 c -9.72,-5.477 -22.218,-2.178 -27.855,7.353 l -6.197,10.475 c -2.756,4.66 -3.505,10.098 -2.108,15.314 1.412,5.271 4.834,9.662 9.635,12.368 l 7.795,4.391 c -0.675,4.014 -1.015,8.084 -1.015,12.161 0,4.077 0.341,8.146 1.015,12.161 l -7.796,4.391 c -4.801,2.706 -8.222,7.097 -9.634,12.368 -1.397,5.216 -0.649,10.654 2.108,15.315 l 6.197,10.473 c 5.637,9.533 18.135,12.833 27.856,7.354 l 8.008,-4.512 c 6.526,5.261 13.922,9.442 21.82,12.335 v 8.729 c 0,11.127 9.187,20.179 20.478,20.179 h 12.392 c 11.292,0 20.478,-9.053 20.478,-20.179 v -8.729 c 7.898,-2.892 15.294,-7.073 21.82,-12.335 l 8.008,4.512 c 9.722,5.478 22.216,2.178 27.856,-7.353 l 6.197,-10.475 c 2.756,-4.66 3.505,-10.098 2.108,-15.314 -1.412,-5.271 -4.833,-9.662 -9.633,-12.368 l -7.795,-4.391 c 0.675,-4.014 1.015,-8.085 1.015,-12.161 0,-4.076 -0.341,-8.145 -1.015,-12.161 l 7.795,-4.391 c 4.799,-2.706 8.221,-7.097 9.633,-12.368 z m -15.619,-4.181 c -0.277,1.036 -0.971,1.91 -1.953,2.464 l -12.963,7.303 c -3.191,1.798 -4.775,5.516 -3.86,9.062 1.202,4.659 1.811,9.461 1.811,14.273 0,4.812 -0.609,9.615 -1.811,14.273 -0.915,3.546 0.669,7.264 3.86,9.062 l 12.963,7.303 c 0.982,0.554 1.676,1.428 1.953,2.464 0.187,0.694 0.267,1.76 -0.409,2.897 l -6.197,10.475 c -1.175,1.985 -3.926,2.672 -6.004,1.5 l -12.985,-7.317 c -3.091,-1.741 -6.956,-1.263 -9.531,1.177 -7.135,6.765 -15.946,11.734 -25.484,14.367 -3.504,0.968 -5.932,4.156 -5.932,7.792 v 14.619 c 0,2.212 -1.933,4.011 -4.309,4.011 H 97.928 c -2.377,0 -4.309,-1.799 -4.309,-4.011 v -14.619 c 0,-3.636 -2.427,-6.824 -5.932,-7.792 -9.536,-2.633 -18.349,-7.602 -25.484,-14.367 -1.54,-1.462 -3.542,-2.218 -5.564,-2.218 -1.358,0 -2.725,0.342 -3.967,1.041 l -12.985,7.317 c -2.079,1.171 -4.829,0.485 -6.004,-1.502 l -6.196,-10.473 c -0.673,-1.137 -0.592,-2.203 -0.406,-2.898 0.277,-1.036 0.971,-1.91 1.953,-2.464 l 12.964,-7.303 c 3.192,-1.798 4.775,-5.517 3.86,-9.063 -1.202,-4.655 -1.811,-9.457 -1.811,-14.272 0,-4.815 0.609,-9.617 1.811,-14.272 0.915,-3.546 -0.668,-7.265 -3.86,-9.063 l -12.963,-7.303 c -0.982,-0.554 -1.676,-1.428 -1.953,-2.464 -0.186,-0.694 -0.266,-1.76 0.406,-2.897 l 6.197,-10.475 c 1.175,-1.985 3.925,-2.671 6.004,-1.5 l 12.985,7.317 c 3.092,1.743 6.957,1.264 9.531,-1.177 7.136,-6.765 15.947,-11.734 25.484,-14.366 3.505,-0.967 5.933,-4.156 5.933,-7.792 v -14.619 c 0,-2.212 1.933,-4.011 4.309,-4.011 h 12.393 c 2.377,0 4.309,1.799 4.309,4.011 v 14.619 c 0,3.636 2.427,6.825 5.933,7.792 9.535,2.632 18.347,7.601 25.482,14.366 2.575,2.443 6.439,2.919 9.531,1.177 l 12.985,-7.317 c 2.08,-1.171 4.83,-0.485 6.004,1.502 l 6.197,10.473 c 0.673,1.136 0.592,2.202 0.407,2.898 z"
   id="path9057"
   inkscape:connector-curvature="0" />
			<path
   d="m 279.047,120.818 c -3.697,2.503 -4.664,7.529 -2.16,11.226 7.552,11.152 11.543,24.197 11.543,37.724 0,37.147 -30.221,67.368 -67.366,67.368 -37.145,0 -67.366,-30.221 -67.366,-67.368 0,-13.398 3.921,-26.338 11.339,-37.421 12.551,-18.751 33.496,-29.947 56.026,-29.947 13.076,0 25.752,3.749 36.661,10.839 3.742,2.434 8.751,1.371 11.183,-2.371 2.434,-3.745 1.371,-8.75 -2.372,-11.184 -13.536,-8.801 -29.26,-13.452 -45.472,-13.452 -27.937,0 -53.903,13.878 -69.463,37.122 -9.206,13.753 -14.072,29.803 -14.072,46.415 0,46.062 37.473,83.537 83.535,83.537 46.062,0 83.535,-37.475 83.535,-83.537 0,-16.773 -4.953,-32.951 -14.324,-46.789 -2.503,-3.698 -7.53,-4.665 -11.227,-2.162 z"
   id="path9059"
   inkscape:connector-curvature="0" />
			<path
   d="m 136.574,405.122 c -4.465,0 -8.084,3.618 -8.084,8.084 0,13.434 -10.929,24.364 -24.362,24.364 -13.433,0 -24.363,-10.93 -24.363,-24.364 0,-13.434 10.929,-24.364 24.363,-24.364 4.077,0 8.107,1.024 11.655,2.962 3.918,2.142 8.83,0.698 10.97,-3.22 2.14,-3.919 0.697,-8.829 -3.221,-10.97 -5.919,-3.233 -12.629,-4.941 -19.404,-4.941 -22.348,0 -40.53,18.182 -40.53,40.532 0,22.35 18.182,40.532 40.53,40.532 22.348,0 40.53,-18.182 40.53,-40.532 0,-4.464 -3.619,-8.083 -8.084,-8.083 z"
   id="path9061"
   inkscape:connector-curvature="0" />
			<path
   d="m 322.202,274.833 c 6.858,3.959 14.845,5.012 22.493,2.962 7.648,-2.049 14.04,-6.955 17.998,-13.811 l 10.779,-18.669 c 3.958,-6.857 5.01,-14.845 2.961,-22.494 -2.05,-7.647 -6.955,-14.039 -13.811,-17.998 l -17.389,-10.039 c 1.646,-8.21 2.478,-16.6 2.478,-25.018 0,-8.418 -0.832,-16.808 -2.478,-25.018 l 17.389,-10.04 c 6.858,-3.959 11.762,-10.35 13.811,-17.998 2.049,-7.649 0.998,-15.637 -2.961,-22.493 L 362.694,75.548 c -3.959,-6.857 -10.351,-11.762 -17.999,-13.811 -7.649,-2.049 -15.636,-0.998 -22.492,2.962 L 304.792,74.751 C 292.152,63.613 277.367,55.064 261.483,49.708 V 29.642 C 261.483,13.298 248.186,0 231.842,0 h -21.557 c -16.344,0 -29.641,13.298 -29.641,29.642 v 20.072 c -15.884,5.355 -30.669,13.905 -43.309,25.043 l -17.41,-10.052 c -6.857,-3.958 -14.844,-5.01 -22.494,-2.962 -7.648,2.049 -14.04,6.955 -17.999,13.811 L 68.654,94.222 c -8.172,14.155 -3.304,32.32 10.85,40.491 l 17.389,10.04 c -1.646,8.211 -2.478,16.601 -2.478,25.018 0,8.417 0.832,16.807 2.478,25.018 L 79.504,204.828 C 65.35,213 60.482,231.163 68.654,245.319 l 10.779,18.669 c 3.959,6.857 10.351,11.762 17.999,13.811 7.648,2.048 15.635,0.997 22.492,-2.962 l 17.411,-10.052 c 12.641,11.138 27.425,19.687 43.309,25.043 v 20.067 c 0,16.344 13.297,29.642 29.641,29.642 h 21.557 c 16.344,0 29.641,-13.298 29.641,-29.642 v -20.068 c 15.884,-5.355 30.668,-13.905 43.309,-25.043 z m -24.159,-25.826 c -13.14,12.769 -29.338,22.133 -46.843,27.085 -3.482,0.984 -5.884,4.162 -5.884,7.779 v 26.024 c 0,7.43 -6.045,13.474 -13.474,13.474 h -21.557 c -7.43,0 -13.474,-6.044 -13.474,-13.474 v -26.026 c 0,-3.618 -2.404,-6.795 -5.884,-7.779 -17.505,-4.952 -33.704,-14.317 -46.843,-27.085 -1.549,-1.505 -3.582,-2.286 -5.636,-2.286 -1.384,0 -2.778,0.355 -4.039,1.083 l -22.569,13.031 c -3.116,1.8 -6.748,2.28 -10.224,1.346 -3.476,-0.931 -6.382,-3.16 -8.181,-6.278 L 82.657,237.232 c -3.714,-6.434 -1.503,-14.691 4.931,-18.405 l 22.541,-13.015 c 3.129,-1.807 4.68,-5.47 3.797,-8.975 -2.219,-8.813 -3.345,-17.922 -3.345,-27.07 0,-9.148 1.125,-18.256 3.345,-27.07 0.883,-3.504 -0.668,-7.168 -3.797,-8.975 L 87.588,120.708 c -6.435,-3.714 -8.647,-11.971 -4.932,-18.405 L 93.435,83.634 c 1.799,-3.116 4.705,-5.346 8.181,-6.278 3.475,-0.932 7.108,-0.454 10.224,1.346 l 22.569,13.031 c 3.132,1.81 7.082,1.317 9.675,-1.203 13.14,-12.769 29.338,-22.133 46.843,-27.085 3.482,-0.984 5.884,-4.162 5.884,-7.779 V 29.642 c 0,-7.43 6.045,-13.474 13.474,-13.474 h 21.557 c 7.43,0 13.474,6.044 13.474,13.474 v 26.024 c 0,3.619 2.404,6.795 5.884,7.779 17.505,4.952 33.704,14.317 46.843,27.085 2.592,2.52 6.543,3.013 9.675,1.203 l 22.568,-13.029 c 3.116,-1.799 6.748,-2.278 10.224,-1.346 3.476,0.931 6.382,3.16 8.181,6.278 l 10.779,18.669 c 1.799,3.116 2.278,6.748 1.346,10.224 -0.931,3.476 -3.16,6.381 -6.278,8.181 l -22.542,13.014 c -3.129,1.807 -4.68,5.47 -3.797,8.975 2.218,8.813 3.344,17.92 3.344,27.07 0,9.15 -1.124,18.257 -3.344,27.07 -0.883,3.504 0.668,7.168 3.797,8.975 l 22.542,13.015 c 3.116,1.8 5.346,4.705 6.278,8.181 0.931,3.475 0.453,7.107 -1.346,10.224 l -10.779,18.669 c -1.799,3.116 -4.704,5.346 -8.18,6.278 -3.475,0.933 -7.107,0.454 -10.224,-1.346 l -22.569,-13.031 c -3.132,-1.809 -7.082,-1.316 -9.675,1.203 z"
   id="path9063"
   inkscape:connector-curvature="0" />
			<path
   d="m 261.483,158.989 c 0,-4.466 -3.62,-8.084 -8.084,-8.084 h -64.672 c -4.465,0 -8.084,3.618 -8.084,8.084 0,4.466 3.62,8.084 8.084,8.084 h 64.672 c 4.464,0.001 8.084,-3.618 8.084,-8.084 z"
   id="path9065"
   inkscape:connector-curvature="0" />
			<path
   d="m 424.561,370.496 c -4.054,1.87 -5.825,6.672 -3.955,10.727 1.992,4.319 3.002,8.944 3.002,13.749 0,18.127 -14.748,32.876 -32.875,32.876 -18.127,0 -32.875,-14.749 -32.875,-32.876 0,-18.127 14.748,-32.876 32.875,-32.876 4.461,0 8.782,0.874 12.841,2.6 4.111,1.748 8.856,-0.168 10.602,-4.278 1.746,-4.11 -0.169,-8.856 -4.278,-10.602 -6.07,-2.579 -12.519,-3.888 -19.165,-3.888 -27.042,0 -49.043,22.001 -49.043,49.044 0,27.043 22.001,49.044 49.043,49.044 27.042,0 49.043,-22.001 49.043,-49.044 0,-7.159 -1.51,-14.063 -4.488,-20.521 -1.87,-4.053 -6.671,-5.824 -10.727,-3.955 z"
   id="path9067"
   inkscape:connector-curvature="0" />
			<path
   d="m 489.654,416.268 -10.363,-5.839 c 0.926,-5.096 1.394,-10.272 1.394,-15.457 0,-5.186 -0.468,-10.362 -1.394,-15.457 l 10.363,-5.84 c 5.382,-3.031 9.218,-7.952 10.799,-13.855 1.564,-5.839 0.725,-11.928 -2.362,-17.147 l -7.442,-12.578 c -6.325,-10.693 -20.347,-14.391 -31.259,-8.244 l -10.584,5.963 c -8.194,-6.777 -17.596,-12.09 -27.662,-15.633 v -11.627 c 0,-12.468 -10.304,-22.611 -22.969,-22.611 H 383.29 c -12.665,0 -22.969,10.144 -22.969,22.611 v 11.627 c -10.065,3.543 -19.467,8.856 -27.662,15.633 l -10.584,-5.963 c -10.913,-6.149 -24.934,-2.451 -31.258,8.243 l -7.443,12.58 c -3.086,5.218 -3.925,11.307 -2.361,17.146 1.581,5.903 5.416,10.823 10.798,13.855 l 10.364,5.84 c -0.926,5.095 -1.394,10.271 -1.394,15.457 0,5.185 0.468,10.361 1.394,15.457 l -10.364,5.839 c -5.383,3.032 -9.218,7.954 -10.799,13.858 -1.564,5.838 -0.724,11.926 2.362,17.144 l 7.443,12.579 c 6.326,10.692 20.35,14.393 31.259,8.244 l 10.584,-5.963 c 8.194,6.777 17.594,12.089 27.662,15.633 v 11.626 c 0,12.468 10.304,22.611 22.969,22.611 h 14.885 c 12.665,0 22.969,-10.144 22.969,-22.611 v -11.626 c 10.068,-3.544 19.467,-8.856 27.662,-15.633 l 10.584,5.963 c 10.913,6.148 24.933,2.449 31.258,-8.243 l 7.442,-12.58 c 3.086,-5.218 3.926,-11.306 2.362,-17.144 -1.581,-5.904 -5.416,-10.826 -10.799,-13.858 z m -5.479,22.769 -7.443,12.581 c -1.881,3.179 -6.101,4.252 -9.407,2.39 l -15.596,-8.787 c -3.09,-1.743 -6.957,-1.263 -9.531,1.177 -8.762,8.307 -19.582,14.408 -31.292,17.642 -3.504,0.968 -5.932,4.156 -5.932,7.792 v 17.558 c 0,3.553 -3.05,6.443 -6.8,6.443 h -14.885 c -3.75,0 -6.8,-2.89 -6.8,-6.443 v -17.558 c 0,-3.636 -2.427,-6.824 -5.932,-7.792 -11.71,-3.234 -22.53,-9.335 -31.292,-17.642 -1.54,-1.462 -3.542,-2.218 -5.564,-2.218 -1.358,0 -2.725,0.342 -3.967,1.041 l -15.595,8.787 c -3.306,1.862 -7.525,0.791 -9.407,-2.391 l -7.443,-12.58 c -0.855,-1.444 -1.088,-3.124 -0.659,-4.728 0.447,-1.67 1.554,-3.075 3.117,-3.956 l 15.569,-8.772 c 3.191,-1.798 4.775,-5.516 3.86,-9.062 -1.478,-5.728 -2.227,-11.633 -2.227,-17.548 0,-5.917 0.749,-11.82 2.227,-17.547 0.915,-3.546 -0.668,-7.265 -3.859,-9.063 l -15.569,-8.773 c -1.563,-0.881 -2.67,-2.285 -3.117,-3.955 -0.43,-1.605 -0.196,-3.284 0.659,-4.729 l 7.443,-12.58 c 1.882,-3.18 6.101,-4.253 9.407,-2.39 l 15.596,8.787 c 3.09,1.742 6.957,1.263 9.531,-1.177 8.762,-8.308 19.583,-14.409 31.291,-17.642 3.505,-0.967 5.933,-4.156 5.933,-7.792 v -17.559 c 0,-3.553 3.05,-6.443 6.8,-6.443 h 14.885 c 3.75,0 6.8,2.89 6.8,6.443 v 17.559 c 0,3.636 2.427,6.825 5.933,7.792 11.708,3.233 22.528,9.333 31.291,17.642 2.575,2.443 6.44,2.919 9.531,1.177 l 15.596,-8.787 c 3.307,-1.862 7.525,-0.79 9.407,2.391 l 7.442,12.578 c 0.856,1.445 1.09,3.126 0.66,4.73 -0.447,1.67 -1.554,3.074 -3.118,3.955 l -15.569,8.773 c -3.191,1.798 -4.774,5.517 -3.859,9.063 1.478,5.726 2.227,11.63 2.227,17.547 0,5.916 -0.749,11.82 -2.227,17.548 -0.915,3.546 0.669,7.264 3.86,9.062 l 15.569,8.772 c 1.563,0.881 2.67,2.286 3.117,3.956 0.428,1.605 0.196,3.284 -0.661,4.728 z"
   id="path9069"
   inkscape:connector-curvature="0" />
			<path
   d="m 210.284,183.242 c -4.465,0 -8.084,3.618 -8.084,8.084 0,4.466 3.62,8.084 8.084,8.084 h 21.557 c 4.465,0 8.084,-3.618 8.084,-8.084 0,-4.466 -3.62,-8.084 -8.084,-8.084 z"
   id="path9071"
   inkscape:connector-curvature="0" />
		</g>
	</g>
</g>
<g
   id="g9079"
   transform="translate(167.05084,114.98306)">
</g>
<g
   id="g9081"
   transform="translate(167.05084,114.98306)">
</g>
<g
   id="g9083"
   transform="translate(167.05084,114.98306)">
</g>
<g
   id="g9085"
   transform="translate(167.05084,114.98306)">
</g>
<g
   id="g9087"
   transform="translate(167.05084,114.98306)">
</g>
<g
   id="g9089"
   transform="translate(167.05084,114.98306)">
</g>
<g
   id="g9091"
   transform="translate(167.05084,114.98306)">
</g>
<g
   id="g9093"
   transform="translate(167.05084,114.98306)">
</g>
<g
   id="g9095"
   transform="translate(167.05084,114.98306)">
</g>
<g
   id="g9097"
   transform="translate(167.05084,114.98306)">
</g>
<g
   id="g9099"
   transform="translate(167.05084,114.98306)">
</g>
<g
   id="g9101"
   transform="translate(167.05084,114.98306)">
</g>
<g
   id="g9103"
   transform="translate(167.05084,114.98306)">
</g>
<g
   id="g9105"
   transform="translate(167.05084,114.98306)">
</g>
<g
   id="g9107"
   transform="translate(167.05084,114.98306)">
</g>
</svg>