<?xml version="1.0" encoding="UTF-8" standalone="no"?>
<!-- Generator: Adobe Illustrator 18.0.0, SVG Export Plug-In . SVG Version: 6.00 Build 0)  -->

<svg
   xmlns:dc="http://purl.org/dc/elements/1.1/"
   xmlns:cc="http://creativecommons.org/ns#"
   xmlns:rdf="http://www.w3.org/1999/02/22-rdf-syntax-ns#"
   xmlns:svg="http://www.w3.org/2000/svg"
   xmlns="http://www.w3.org/2000/svg"
   xmlns:sodipodi="http://sodipodi.sourceforge.net/DTD/sodipodi-0.dtd"
   xmlns:inkscape="http://www.inkscape.org/namespaces/inkscape"
   version="1.1"
   id="Capa_1"
   x="0px"
   y="0px"
   viewBox="0 0 508.48772 504.59129"
   xml:space="preserve"
   sodipodi:docname="topographie.svg"
   width="508.48773"
   height="504.59131"
   inkscape:version="0.92.4 (5da689c313, 2019-01-14)"><metadata
   id="metadata991"><rdf:RDF><cc:Work
       rdf:about=""><dc:format>image/svg+xml</dc:format><dc:type
         rdf:resource="http://purl.org/dc/dcmitype/StillImage" /></cc:Work></rdf:RDF></metadata><defs
   id="defs989" /><sodipodi:namedview
   pagecolor="#ffffff"
   bordercolor="#666666"
   borderopacity="1"
   objecttolerance="10"
   gridtolerance="10"
   guidetolerance="10"
   inkscape:pageopacity="0"
   inkscape:pageshadow="2"
   inkscape:window-width="1920"
   inkscape:window-height="1017"
   id="namedview987"
   showgrid="false"
   inkscape:zoom="0.51328672"
   inkscape:cx="-96.437326"
   inkscape:cy="255.218"
   inkscape:window-x="-8"
   inkscape:window-y="-8"
   inkscape:window-maximized="1"
   inkscape:current-layer="Capa_1" />
<ellipse
   style="opacity:1;fill:#7e4ca5;fill-opacity:1;stroke:none;stroke-width:83.4720459;stroke-linecap:square;stroke-linejoin:round;stroke-miterlimit:4;stroke-dasharray:none;stroke-dashoffset:0;stroke-opacity:0.97894736;paint-order:normal"
   id="path1536"
   cx="254.24387"
   cy="252.29565"
   rx="254.24387"
   ry="252.29565" /><g
   id="g954"
   transform="translate(29.223434,19.4823)">
	<path
   d="m 116.176,116.085 c 0.165,2.635 2.35,4.688 4.99,4.688 h 57.788 c 2.318,0 4.332,-1.593 4.866,-3.849 0.326,-1.376 0.491,-2.757 0.491,-4.104 0,-9.813 -7.984,-17.797 -17.797,-17.797 -2.17,0 -4.283,0.388 -6.269,1.141 -3.813,-4.022 -9.165,-6.391 -14.831,-6.391 -7.375,0 -14.19,4.07 -17.776,10.377 -6.652,1.769 -11.505,7.835 -11.505,14.966 0,0.287 0.016,0.568 0.035,0.849 z m 15.136,-6.447 c 1.959,-0.112 3.671,-1.361 4.377,-3.192 1.541,-3.992 5.449,-6.674 9.725,-6.674 3.744,0 7.22,2.028 9.071,5.293 0.709,1.251 1.924,2.136 3.332,2.429 1.407,0.291 2.874,-0.035 4.024,-0.9 1.367,-1.029 2.983,-1.572 4.673,-1.572 3.591,0 6.623,2.44 7.524,5.75 h -45.766 c 0.849,-0.655 1.895,-1.068 3.04,-1.134 z"
   id="path948"
   inkscape:connector-curvature="0" />
	<path
   d="m 299.203,99.768 c 0.164,2.636 2.35,4.689 4.99,4.689 h 70.682 c 2.318,0 4.333,-1.594 4.866,-3.85 0.378,-1.599 0.569,-3.201 0.569,-4.762 0,-11.388 -9.265,-20.652 -20.652,-20.652 -2.771,0 -5.464,0.546 -7.968,1.602 -4.48,-5.037 -10.962,-8.023 -17.839,-8.023 -8.778,0 -16.879,4.935 -21.002,12.541 -7.89,1.877 -13.697,8.972 -13.697,17.342 0,0.322 0.019,0.639 0.04,0.956 z m 17.335,-8.927 c 1.959,-0.113 3.671,-1.361 4.378,-3.192 2.049,-5.31 7.247,-8.877 12.936,-8.877 4.979,0 9.603,2.698 12.065,7.041 0.71,1.251 1.925,2.136 3.333,2.429 1.405,0.293 2.874,-0.036 4.023,-0.901 1.866,-1.405 4.074,-2.147 6.385,-2.147 5.403,0 9.88,4.044 10.563,9.264 h -59.845 c 1.312,-2.056 3.56,-3.467 6.162,-3.617 z"
   id="path950"
   inkscape:connector-curvature="0" />
	<path
   d="m 455.076,273.169 c -15.02,-2.193 -30.481,-3.915 -46.171,-5.178 l 34.781,-59.818 v 14.599 c 0,3.038 2.463,5.5 5.5,5.5 3.037,0 5.5,-2.462 5.5,-5.5 v -35 c 0,-1.885 -0.966,-3.639 -2.559,-4.647 -1.595,-1.009 -3.593,-1.13 -5.296,-0.323 l -23.816,11.282 6.299,-12.898 c 8.531,-6.174 16.521,-12.656 23.656,-19.422 2.204,-2.09 2.297,-5.571 0.207,-7.775 -2.092,-2.204 -5.571,-2.297 -7.775,-0.206 -14.949,14.176 -34.109,27.188 -54.218,38.663 -19.412,-8.016 -29.989,-17.175 -39.359,-25.294 -3.145,-2.725 -6.114,-5.298 -9.285,-7.737 -1.847,-1.42 -4.386,-1.524 -6.342,-0.258 -13.321,8.62 -40.44,14.68 -49.043,16.448 -23.231,-21.843 -40.901,-41.24 -53.461,-55.031 -3.739,-4.111 -9.901,-6.358 -16.923,-6.152 -7.134,0.205 -13.402,2.807 -16.769,6.962 -16.654,20.569 -45.848,46.213 -73.38,68.525 -7.908,-1.555 -34.319,-7.666 -58.385,-23.71 -2.439,-1.627 -5.729,-1.053 -7.474,1.307 -16.347,22.113 -55.553,52.613 -55.947,52.919 -2.401,1.861 -2.839,5.316 -0.978,7.716 1.084,1.399 2.709,2.131 4.351,2.131 1.177,0 2.363,-0.376 3.365,-1.153 0.953,-0.738 14.292,-11.117 28.738,-24.239 l 1.721,4.761 c 0.593,1.64 1.928,2.901 3.599,3.4 0.517,0.154 1.046,0.23 1.573,0.23 1.176,0 2.337,-0.377 3.3,-1.1 L 64.18,201.9 l 12.266,4.089 c 2.557,0.853 5.353,-0.273 6.606,-2.657 l 6.949,-13.208 c 9.956,4.149 18.961,6.873 25.639,8.58 -27.264,21.609 -50.823,38.596 -55.795,42.157 -19.073,3.563 -37.808,8.149 -55.978,13.805 -2.9,0.903 -4.52,3.985 -3.617,6.886 0.902,2.9 3.983,4.52 6.886,3.617 51.534,-16.039 108.992,-23.692 166.167,-22.127 48.292,1.321 95.815,9.256 139.083,23.079 -13.322,0.55 -26.52,1.418 -39.456,2.65 -70.07,6.675 -131.585,23.348 -178.042,48.229 -30.01,-0.166 -60.055,1.363 -89.977,4.592 -3.02,0.326 -5.204,3.038 -4.878,6.058 0.326,3.021 3.044,5.203 6.058,4.878 67.558,-7.289 135.753,-5.798 202.695,4.43 65.895,10.068 127.318,28.083 182.566,53.545 0.745,0.344 1.528,0.506 2.298,0.506 2.081,0 4.071,-1.187 4.999,-3.199 1.271,-2.759 0.065,-6.026 -2.693,-7.297 -56.183,-25.893 -118.597,-44.205 -185.508,-54.429 -30.369,-4.64 -60.992,-7.493 -91.697,-8.583 101.18,-45.696 241.188,-47.11 334.735,-33.448 3.009,0.438 5.799,-1.642 6.237,-4.647 0.439,-3.005 -1.641,-5.798 -4.647,-6.237 z M 75.493,194.077 64.925,190.554 c -1.713,-0.571 -3.596,-0.265 -5.039,0.818 l -10.054,7.541 -0.799,-2.21 c 6.344,-6.129 12.468,-12.518 17.409,-18.59 4.525,2.796 9.069,5.271 13.524,7.464 z m 331.03,8.707 -23.707,28.976 -6.997,-3.817 c -1.631,-0.889 -3.602,-0.895 -5.238,-0.016 l -52.684,28.323 c -8.198,-2.682 -16.519,-5.143 -24.945,-7.383 26.142,-9.347 75.733,-28.814 118.134,-55.426 z m -144.811,38.873 -8.187,-33.202 c -0.356,-1.445 -1.283,-2.684 -2.568,-3.434 l -10.327,-6.024 -8.791,-22.971 29.51,24.706 24.734,27.703 c 1.39,1.556 3.54,2.19 5.55,1.643 l 6.86,-1.871 3.172,5.641 c -14.294,5.436 -24.765,8.94 -28.567,10.182 -3.778,-0.836 -7.575,-1.623 -11.386,-2.373 z m 77.014,-71.217 c 1.937,1.593 3.879,3.276 5.896,5.023 2.799,2.425 5.701,4.938 8.885,7.488 l -11.983,8.23 -6.861,-9.606 c -1.258,-1.762 -3.43,-2.622 -5.555,-2.196 l -8.377,1.675 0.019,-3.007 c 6.411,-2.179 12.735,-4.727 17.976,-7.607 z m -29,11.011 -0.041,6.286 c -0.011,1.654 0.724,3.225 1.999,4.278 1.275,1.053 2.959,1.475 4.58,1.151 l 11.513,-2.302 7.933,11.106 c 1.072,1.501 2.763,2.304 4.48,2.304 1.073,0 2.158,-0.314 3.109,-0.967 l 19.578,-13.446 c 4.642,3.117 9.942,6.226 16.223,9.242 -13.962,7.441 -28.064,14.129 -41.257,19.935 -15.015,-11.681 -28.612,-23.25 -40.828,-34.326 3.677,-0.857 8.057,-1.95 12.711,-3.261 z m 16.604,42.533 c -4.982,2.092 -9.776,4.044 -14.307,5.841 l -6.043,-10.749 c -1.235,-2.197 -3.8,-3.276 -6.241,-2.611 l -7.717,2.104 -21.549,-24.135 -2.258,-21.756 c 16.175,15.843 35.483,33.385 58.115,51.306 z m -117.78,-95.68 c 1.09,-1.346 4.372,-2.771 8.536,-2.89 3.68,-0.115 6.939,0.875 8.474,2.561 8.01,8.795 18.076,19.847 30.315,32.354 l 2.44,23.518 -32.598,-27.292 c -2.185,-1.829 -5.405,-1.687 -7.42,0.328 l -12.388,12.388 -1.716,-3.775 c -0.667,-1.469 -1.946,-2.57 -3.497,-3.013 -1.552,-0.443 -3.22,-0.183 -4.561,0.712 l -21.272,14.181 4.49,-18.446 c 11.341,-10.657 21.49,-21.108 29.197,-30.626 z m -58.282,103.554 c -8.315,0.13 -16.625,0.447 -24.918,0.954 l 44.186,-38.663 27.319,-18.212 1.238,2.723 -9.307,18.613 h -8.601 c -1.685,0 -3.277,0.772 -4.32,2.096 z m 14.542,-59.695 -3.557,14.617 -54.243,47.463 c -7.74,0.736 -15.449,1.641 -23.121,2.708 19.896,-14.743 52.316,-39.512 80.921,-64.788 z m -0.495,59.64 18.539,-23.531 h 9.332 c 2.083,0 3.988,-1.177 4.919,-3.041 l 11.601,-23.201 9.874,-9.874 12.469,32.581 c 0.448,1.171 1.282,2.153 2.365,2.785 l 9.989,5.827 6.442,26.125 c -28.006,-4.823 -56.732,-7.385 -85.53,-7.671 z m 179.004,33.643 c -3.733,-1.484 -7.502,-2.913 -11.297,-4.299 l 41.146,-22.12 8.385,4.574 c 2.322,1.266 5.216,0.701 6.891,-1.346 l 26.216,-32.042 20.862,-9.883 -38.828,66.778 c -17.666,-1.142 -35.549,-1.699 -53.375,-1.662 z"
   id="path952"
   inkscape:connector-curvature="0" />
</g>
<g
   id="g956"
   transform="translate(29.223434,19.4823)">
</g>
<g
   id="g958"
   transform="translate(29.223434,19.4823)">
</g>
<g
   id="g960"
   transform="translate(29.223434,19.4823)">
</g>
<g
   id="g962"
   transform="translate(29.223434,19.4823)">
</g>
<g
   id="g964"
   transform="translate(29.223434,19.4823)">
</g>
<g
   id="g966"
   transform="translate(29.223434,19.4823)">
</g>
<g
   id="g968"
   transform="translate(29.223434,19.4823)">
</g>
<g
   id="g970"
   transform="translate(29.223434,19.4823)">
</g>
<g
   id="g972"
   transform="translate(29.223434,19.4823)">
</g>
<g
   id="g974"
   transform="translate(29.223434,19.4823)">
</g>
<g
   id="g976"
   transform="translate(29.223434,19.4823)">
</g>
<g
   id="g978"
   transform="translate(29.223434,19.4823)">
</g>
<g
   id="g980"
   transform="translate(29.223434,19.4823)">
</g>
<g
   id="g982"
   transform="translate(29.223434,19.4823)">
</g>
<g
   id="g984"
   transform="translate(29.223434,19.4823)">
</g>
</svg>