<?xml version="1.0" encoding="UTF-8" standalone="no"?>
<!-- Created with Inkscape (http://www.inkscape.org/) -->

<svg
   xmlns:dc="http://purl.org/dc/elements/1.1/"
   xmlns:cc="http://creativecommons.org/ns#"
   xmlns:rdf="http://www.w3.org/1999/02/22-rdf-syntax-ns#"
   xmlns:svg="http://www.w3.org/2000/svg"
   xmlns="http://www.w3.org/2000/svg"
   xmlns:sodipodi="http://sodipodi.sourceforge.net/DTD/sodipodi-0.dtd"
   xmlns:inkscape="http://www.inkscape.org/namespaces/inkscape"
   version="1.1"
   id="svg3713"
   width="1300"
   height="1300"
   viewBox="0 0 1300 1300"
   sodipodi:docname="chemindefercan.svg"
   inkscape:version="0.92.4 (5da689c313, 2019-01-14)">
  <metadata
     id="metadata3719">
    <rdf:RDF>
      <cc:Work
         rdf:about="">
        <dc:format>image/svg+xml</dc:format>
        <dc:type
           rdf:resource="http://purl.org/dc/dcmitype/StillImage" />
        <dc:title />
      </cc:Work>
    </rdf:RDF>
  </metadata>
  <defs
     id="defs3717">
    <clipPath
       clipPathUnits="userSpaceOnUse"
       id="clipPath3736">
      <ellipse
         style="fill:#f9f9f9"
         id="ellipse3738"
         cx="-407.89474"
         cy="268.42105"
         rx="134.21053"
         ry="157.89473" />
    </clipPath>
  </defs>
  <sodipodi:namedview
     pagecolor="#ffffff"
     bordercolor="#666666"
     borderopacity="1"
     objecttolerance="10"
     gridtolerance="10"
     guidetolerance="10"
     inkscape:pageopacity="0"
     inkscape:pageshadow="2"
     inkscape:window-width="1920"
     inkscape:window-height="986"
     id="namedview3715"
     showgrid="false"
     inkscape:zoom="0.285"
     inkscape:cx="-962.43948"
     inkscape:cy="567.55676"
     inkscape:window-x="-11"
     inkscape:window-y="-11"
     inkscape:window-maximized="1"
     inkscape:current-layer="svg3713" />
  <g
     inkscape:groupmode="layer"
     id="layer1"
     inkscape:label="Calque 1"
     style="display:inline" />
  <path
     style="fill:#784421;stroke-width:15.11688519"
     d="m 448.14946,1120.5637 c 0,-19.5661 -9.61463,-44.0782 -21.36584,-54.4715 -21.64058,-19.14 -14.83263,-76.20901 9.09127,-76.20901 6.751,0 12.27457,-26.1852 12.27457,-58.1893 0,-32.004 -5.52357,-58.18923 -12.27457,-58.18923 -23.65567,0 -29.42118,-54.9559 -8.67458,-82.68456 26.83254,-35.86277 26.83254,-98.02709 0,-133.88985 -20.7466,-27.72868 -14.98109,-82.68458 8.67458,-82.68458 21.52976,0 13.89006,-112.07121 -8.34319,-122.39073 -26.64684,-12.36811 -26.64684,-58.73495 0,-71.10305 22.23325,-10.31953 29.87295,-122.39073 8.34319,-122.39073 -23.65567,0 -29.42118,-54.9559 -8.67458,-82.68459 11.52203,-15.39964 20.94915,-40.50285 20.94915,-55.78491 0,-19.78912 11.86713,-27.785516 41.23547,-27.785516 32.07208,0 41.23551,7.389138 41.23551,33.251016 0,30.48006 9.16344,33.251 109.96132,33.251 100.79785,0 109.96129,-2.77094 109.96129,-33.251 0,-26.917472 9.16345,-33.251016 48.10807,-33.251016 37.16285,0 48.10807,6.808555 48.10807,29.925906 0,16.45927 7.25461,38.70074 16.12134,49.42553 12.33169,14.91582 12.33169,29.55997 0,62.29661 -20.79259,55.19774 -20.51469,116.30205 0.71587,157.42159 13.28624,25.73282 13.28624,36.90561 0,52.97602 -21.74442,26.30104 -21.74442,117.50818 0,143.80922 13.28624,16.07046 13.28624,27.24318 0,52.97602 -21.72043,42.06813 -21.55381,123.60357 0.34434,168.4634 13.74515,28.15807 13.74515,36.70282 0,42.72364 -21.47469,9.40656 -22.71054,124.42119 -1.61117,149.94192 17.01799,20.5843 5.40663,78.3132 -12.9861,64.5637 -6.24536,-4.6686 -8.67964,13.5607 -5.40961,40.5101 5.31712,43.8187 2.06237,48.9983 -30.78854,48.9983 -24.54653,0 -33.43677,-6.4533 -26.79557,-19.4507 6.6826,-13.0785 2.4453,-15.9728 -12.93398,-8.8347 -16.55987,7.6864 -22.87255,1.5833 -22.87255,-22.1128 0,-29.8279 -9.74781,-32.7292 -109.9613,-32.7292 -108.12866,0 -109.96132,0.6928 -109.96132,41.5639 0,35.098 -6.41442,41.5635 -41.23551,41.5635 -32.96976,0 -41.23547,-7.1308 -41.23547,-35.5744 z M 750.54305,931.69389 V 873.50466 H 640.58176 530.62044 v 47.10556 c 0,25.90813 4.12354,52.09321 9.16344,58.18934 5.03989,6.09589 54.52249,11.08363 109.96132,11.08363 h 100.79785 z m 8.66338,-195.34961 c -4.55841,-20.57403 -8.37247,-46.75921 -8.47569,-58.18925 -0.13439,-14.87474 -31.44349,-20.78185 -110.14898,-20.78185 H 530.62044 v 58.18925 58.18924 h 118.43699 c 116.11583,0 118.27457,-0.73321 110.149,-37.40739 z M 750.54305,516.05643 V 457.86715 H 640.58176 530.62044 v 58.18928 58.18924 h 109.96132 109.96129 z m 0,-199.50603 V 258.36116 H 640.58176 530.62044 v 58.18924 58.18923 h 109.96132 109.96129 z"
     id="path3761"
     inkscape:connector-curvature="0" />
</svg>
