<?xml version="1.0" encoding="UTF-8" standalone="no"?>
<!-- Created with Inkscape (http://www.inkscape.org/) -->

<svg
   xmlns:dc="http://purl.org/dc/elements/1.1/"
   xmlns:cc="http://creativecommons.org/ns#"
   xmlns:rdf="http://www.w3.org/1999/02/22-rdf-syntax-ns#"
   xmlns:svg="http://www.w3.org/2000/svg"
   xmlns="http://www.w3.org/2000/svg"
   xmlns:sodipodi="http://sodipodi.sourceforge.net/DTD/sodipodi-0.dtd"
   xmlns:inkscape="http://www.inkscape.org/namespaces/inkscape"
   width="210mm"
   height="297mm"
   viewBox="0 0 210 297"
   version="1.1"
   id="svg8"
   inkscape:version="0.92.4 (5da689c313, 2019-01-14)"
   sodipodi:docname="EtudeOttomanStj.svg">
  <defs
     id="defs2" />
  <sodipodi:namedview
     id="base"
     pagecolor="#ffffff"
     bordercolor="#666666"
     borderopacity="1.0"
     inkscape:pageopacity="0.0"
     inkscape:pageshadow="2"
     inkscape:zoom="0.7"
     inkscape:cx="320.3976"
     inkscape:cy="782.41556"
     inkscape:document-units="mm"
     inkscape:current-layer="g835"
     showgrid="false"
     inkscape:window-width="1920"
     inkscape:window-height="1017"
     inkscape:window-x="-8"
     inkscape:window-y="-8"
     inkscape:window-maximized="1" />
  <metadata
     id="metadata5">
    <rdf:RDF>
      <cc:Work
         rdf:about="">
        <dc:format>image/svg+xml</dc:format>
        <dc:type
           rdf:resource="http://purl.org/dc/dcmitype/StillImage" />
        <dc:title></dc:title>
      </cc:Work>
    </rdf:RDF>
  </metadata>
  <g
     inkscape:label="Calque 1"
     inkscape:groupmode="layer"
     id="layer1">
    <g
       id="g835"
       transform="matrix(1.186562,0,0,1.2450238,76.199418,82.926272)">
      <g
         id="g934">
        <g
           style="fill:#ff0000;fill-opacity:1"
           id="g873">
          <g
             style="fill:#ff0000;fill-opacity:1"
             id="g859">
            <g
               style="fill:#ff0000;fill-opacity:1"
               id="g850">
              <path
                 id="path815"
                 d="M 8.431,8.148"
                 inkscape:connector-curvature="0"
                 style="fill:#ff0000;fill-opacity:1" />
              <path
                 id="path817"
                 d="M 71.862,0 H 22.39 15.245 9.725 C -0.2195142,0.16969741 -0.35156978,0.87160097 0,8.995 v 2.727 0.593 84.113 C 0,98.392 1.608,100 3.572,100 h 62.132 c 1.967,0 3.572,-1.608 3.572,-3.572 V 11.722 C 69.276,9.757 67.671,8.15 65.704,8.15 39.112272,8.4562739 7.126962,8.4706586 3.572,8.148 3.546,8.148 3.523,8.154 3.497,8.156 L 7.34,3.755 H 18.815 71.803 V 93.04 h 0.057 c 1.963,0 3.573,-1.608 3.573,-3.572 V 3.573 C 75.434,1.607 73.826,0 71.862,0 Z"
                 inkscape:connector-curvature="0"
                 style="fill:#ff0000;fill-opacity:1"
                 sodipodi:nodetypes="sccccccssssscccccccsscs" />
              <rect
                 style="opacity:1;fill:#ff0000;fill-opacity:1;fill-rule:nonzero;stroke:none;stroke-width:0;stroke-miterlimit:4;stroke-dasharray:none;stroke-opacity:1"
                 id="rect843"
                 width="3.3223932"
                 height="4.8837476"
                 x="-0.023260191"
                 y="95.091545" />
            </g>
            <rect
               y="0.014867408"
               x="-0.032923836"
               height="3.7401302"
               width="16.720675"
               id="rect852"
               style="opacity:1;fill:#ff0000;fill-opacity:1;fill-rule:nonzero;stroke:none;stroke-width:0;stroke-miterlimit:4;stroke-dasharray:none;stroke-opacity:1" />
          </g>
          <rect
             style="opacity:1;fill:#ff0000;fill-opacity:1;fill-rule:nonzero;stroke:none;stroke-width:0;stroke-miterlimit:4;stroke-dasharray:none;stroke-opacity:1"
             id="rect861"
             width="4.9573932"
             height="3.6999977"
             x="70.487053"
             y="-0.0020353249" />
          <rect
             style="opacity:1;fill:#ff0000;fill-opacity:1;fill-rule:nonzero;stroke:none;stroke-width:0;stroke-miterlimit:4;stroke-dasharray:none;stroke-opacity:1"
             id="rect863"
             width="3.5438395"
             height="3.5861514"
             x="71.880699"
             y="89.443031" />
        </g>
        <g
           transform="translate(4.459663,12.143581)"
           id="g916">
          <g
             id="g906"
             transform="matrix(0.98782014,-0.14829362,0.16326643,0.98782014,-145.43373,38.934289)">
            <path
               d="M 191.27884,24.008516 A 21.979767,20.947678 0 0 1 173.26838,48.087942 21.979767,20.947678 0 0 1 147.93782,31.010087 21.979767,20.947678 0 0 1 165.76569,6.807561 21.979767,20.947678 0 0 1 191.22476,23.71096 l -21.62967,3.723906 z"
               sodipodi:end="6.1044636"
               sodipodi:start="6.11888"
               sodipodi:ry="20.947678"
               sodipodi:rx="21.979767"
               sodipodi:cy="27.434866"
               sodipodi:cx="169.59509"
               sodipodi:type="arc"
               id="path885"
               style="opacity:1;fill:#ffffff;fill-opacity:1;fill-rule:nonzero;stroke:none;stroke-width:0;stroke-miterlimit:4;stroke-dasharray:none;stroke-opacity:1" />
            <g
               style="fill:#ff0000;fill-opacity:1"
               id="g900">
              <path
                 style="opacity:1;fill:#ff0000;fill-opacity:1;fill-rule:nonzero;stroke:none;stroke-width:0;stroke-miterlimit:4;stroke-dasharray:none;stroke-opacity:1"
                 id="path887"
                 sodipodi:type="arc"
                 sodipodi:cx="174.85114"
                 sodipodi:cy="28.345634"
                 sodipodi:rx="17.96892"
                 sodipodi:ry="17.957882"
                 sodipodi:start="6.11888"
                 sodipodi:end="6.1044636"
                 d="M 192.57805,25.408317 A 17.96892,17.957882 0 0 1 177.85413,46.050962 17.96892,17.957882 0 0 1 157.14586,31.410575 17.96892,17.957882 0 0 1 171.72052,10.662399 17.96892,17.957882 0 0 1 192.53384,25.15323 l -17.6827,3.192404 z" />
              <rect
                 style="opacity:1;fill:#ff0000;fill-opacity:1;fill-rule:nonzero;stroke:none;stroke-width:0;stroke-miterlimit:4;stroke-dasharray:none;stroke-opacity:1"
                 id="rect891"
                 width="21.9991"
                 height="8.5005074"
                 x="169.59509"
                 y="22.577433" />
            </g>
          </g>
          <path
             sodipodi:type="star"
             style="opacity:1;fill:#ffffff;fill-opacity:1;fill-rule:nonzero;stroke:none;stroke-width:0;stroke-miterlimit:4;stroke-dasharray:none;stroke-opacity:1"
             id="path908"
             sodipodi:sides="8"
             sodipodi:cx="914.28571"
             sodipodi:cy="343.94827"
             sodipodi:r1="51.749989"
             sodipodi:r2="103.49998"
             sodipodi:arg1="0.45747485"
             sodipodi:arg2="0.85017393"
             inkscape:flatsided="false"
             inkscape:rounded="0"
             inkscape:randomized="0"
             d="m 960.71428,366.80542 21.86614,54.91224 -51.6272,-28.77699 -23.36712,54.29052 -16.15754,-56.85435 -54.91224,21.86615 28.77699,-51.6272 -54.29052,-23.36712 56.85434,-16.15754 -21.86614,-54.91224 51.6272,28.77698 23.36712,-54.29051 16.15754,56.85434 54.91224,-21.86614 -28.77699,51.6272 54.2905,23.36712 z"
             transform="matrix(0.09260586,0,0.00734151,0.09477045,-45.663892,9.0441616)"
             inkscape:transform-center-x="-0.17661473"
             inkscape:transform-center-y="-2.6969487" />
        </g>
      </g>
    </g>
  </g>
</svg>
