<svg id="_002_BASIC" data-name="002_BASIC" xmlns="http://www.w3.org/2000/svg" width="24" height="24" viewBox="0 0 24 24"><title>002a_003</title><path d="M18,22H6a3.00328,3.00328,0,0,1-3-3V9a.99832.99832,0,0,1,.3999-.7998l8-6a1.00049,1.00049,0,0,1,1.2002,0L19,7V6a1,1,0,0,1,2,0V9a.99982.99982,0,0,1-1.6001.7998L12,4.25,5,9.5V19a1.0013,1.0013,0,0,0,1,1H18a1.0013,1.0013,0,0,0,1-1V14a1,1,0,0,1,2,0v5A3.00328,3.00328,0,0,1,18,22Z" style="fill:#fff"/><path d="M15,15a1,1,0,0,1-1-1,2,2,0,0,0-4,0,1,1,0,0,1-2,0,4,4,0,0,1,8,0A1,1,0,0,1,15,15Z" style="fill:#fff"/></svg>