<svg id="_002_BASIC" data-name="002_BASIC" xmlns="http://www.w3.org/2000/svg" width="24" height="24" viewBox="0 0 24 24"><title>002a_081</title><path d="M12,22a9.994,9.994,0,1,1,8.81592-5.27539.99966.99966,0,1,1-1.76172-.94531,8.00791,8.00791,0,1,0-2.31152,2.66406,1,1,0,0,1,1.1875,1.60938A9.92342,9.92342,0,0,1,12,22Z" style="fill:#fff"/><path d="M12,15a.99974.99974,0,0,1-1-1V13a.99974.99974,0,0,1,1-1,2,2,0,1,0-2-2,1,1,0,0,1-2,0,4,4,0,1,1,5,3.873V14A.99974.99974,0,0,1,12,15Z" style="fill:#fff"/><path d="M12,18a.99042.99042,0,0,1-1-1,1,1,0,1,1,2,0,.99042.99042,0,0,1-1,1Z" style="fill:#fff"/></svg>