<svg id="_014_MAPS" data-name="014_MAPS" xmlns="http://www.w3.org/2000/svg" width="24" height="24" viewBox="0 0 24 24"><title>014_001</title><path d="M12,23a.99676.99676,0,0,1-.707-.293C10.99512,22.40918,4,15.34131,4,9A8,8,0,0,1,20,9a11.08839,11.08839,0,0,1-.56641,3.35205.99988.99988,0,0,1-1.90527-.60742A9.11039,9.11039,0,0,0,18,9.00049,6,6,0,1,0,6,9c0,4.42334,4.27686,9.62109,6.00049,11.53613a33.51347,33.51347,0,0,0,3.958-5.35352A1,1,0,0,1,17.689,16.18555,35.38034,35.38034,0,0,1,12.707,22.707.99676.99676,0,0,1,12,23Z" style="fill:#fff"/><path d="M12,12.5A3.50425,3.50425,0,0,1,8.5,9l.00537-.19385a.99985.99985,0,0,1,1.99707.10254A1.5205,1.5205,0,0,0,12,10.5a1.49986,1.49986,0,0,0,.12939-2.99414,1.00016,1.00016,0,0,1,.16895-1.99316A3.5,3.5,0,0,1,12,12.5Z" style="fill:#fff"/></svg>