<svg id="_014_MAPS" data-name="014_MAPS" xmlns="http://www.w3.org/2000/svg" width="24" height="24" viewBox="0 0 24 24"><title>014_012</title><path d="M6.1499,22a.99676.99676,0,0,1-.707-.293c-.31641-.31641-3.09277-3.17139-3.09277-5.90723a3.8,3.8,0,0,1,7.6001,0c0,2.73584-2.77686,5.59082-3.09326,5.90723A.99676.99676,0,0,1,6.1499,22Zm0-8a1.80214,1.80214,0,0,0-1.7998,1.7998c0,1.1958,1.01025,2.71826,1.80127,3.6958A7.04985,7.04985,0,0,0,7.9502,15.7998,1.80224,1.80224,0,0,0,6.1499,14Z" style="fill:#fff"/><path d="M17.8501,12a.99676.99676,0,0,1-.707-.293c-.31641-.31641-3.09326-3.17139-3.09326-5.90723a3.8,3.8,0,0,1,7.6001,0c0,2.73584-2.77637,5.59082-3.09277,5.90723A.99676.99676,0,0,1,17.8501,12Zm0-8A1.80224,1.80224,0,0,0,16.0498,5.7998,7.05266,7.05266,0,0,0,17.8501,9.49756,7.05546,7.05546,0,0,0,19.6499,5.7998,1.80214,1.80214,0,0,0,17.8501,4Z" style="fill:#fff"/><path d="M15.55322,22H10a1,1,0,0,1,0-2h5.55322a.26249.26249,0,0,0,.26123-.26367.24944.24944,0,0,0-.05029-.14648L13.6084,16.57178a2.23735,2.23735,0,0,1-.42334-1.30859A2.265,2.265,0,0,1,15.44678,13H18a1,1,0,0,1,0,2H15.44678a.26222.26222,0,0,0-.26172.26318.24264.24264,0,0,0,.05029.146l2.15625,3.019a2.2398,2.2398,0,0,1,.42285,1.30811A2.265,2.265,0,0,1,15.55322,22Z" style="fill:#fff"/></svg>